<?xml version="1.0" standalone="no"?>
<!DOCTYPE svg PUBLIC "-//W3C//DTD SVG 20010904//EN"
 "http://www.w3.org/TR/2001/REC-SVG-20010904/DTD/svg10.dtd">
<svg version="1.0" xmlns="http://www.w3.org/2000/svg"
 width="358.000000pt" height="446.000000pt" viewBox="0 0 358.000000 446.000000"
 preserveAspectRatio="xMidYMid meet">

<g transform="translate(0.000000,446.000000) scale(0.100000,-0.100000)"
fill="#000000" stroke="none">
<path d="M0 3345 l0 -1115 360 0 c217 0 360 -4 360 -9 0 -5 -6 -40 -14 -78
-36 -172 -43 -418 -15 -603 52 -357 206 -668 453 -916 211 -211 428 -331 709
-391 112 -24 381 -24 487 0 189 42 369 120 515 222 102 72 300 273 374 383
276 407 359 936 226 1430 -74 275 -206 504 -410 708 -209 212 -427 331 -708
390 -89 19 -305 24 -419 11 l-68 -8 0 546 0 545 -925 0 -925 0 0 -1115z"/>
</g>
</svg>
