<svg id="el3VpyONgRq1" xmlns="http://www.w3.org/2000/svg" xmlns:xlink="http://www.w3.org/1999/xlink" width = "100%" viewBox="0 0 1200 1200" shape-rendering="geometricPrecision" text-rendering="geometricPrecision"><path d="M664.45418,306.18416l50,50l50-50l50,50l50-50l50,50l50-50l280.11933,280.11933L976.12582,854.75118l-50-50-50,50-50-50-50,50-50-50-50,50-50-50-50,50-50-50-50,50-50.00057-50.00057-50.00057,50.00057-49.99943-49.99943-49.99943,49.99943-50-50-50,50-280.11933-280.11933L164.45418,306.18416l50,50l50-50l49.99943,49.99943l49.99943-49.99943l50.00057,50.00057l50.00057-50.00057l50,50l50-50l50,50l50-50Z" stroke-width="0"/></svg>
