<svg xmlns="http://www.w3.org/2000/svg" xml:space="preserve" viewBox="0 0 50 50">
  <path fill="#D2D0D6" d="M19 51H8l-3-9v-2h4l1 3v1h2l3 2c2 1 2 6 4 1v1h2l-2 3z"/>
  <path fill="#E1E0E5" d="m5 42 3 9H1v-8l4-1z"/>
  <path fill="#E7E5E8" d="m5 42-4 1V32l3-1v1l1 1v9z"/>
  <path fill="#AB7B63" d="m19 51 2-3v-1l1-1a687 687 0 0 1 7 0l1 5H19z"/>
  <path fill="#1E1918" d="M51 31v9h-4v-9h4z"/>
  <path fill="#281F1C" d="m49 1 2 1v10l-1 1-2-1-1-3V7h1l1-6z"/>
  <path fill="#AE7860" d="M40 51h-6l-3-5v-1h4l3 1 1 3 1 1s1 0 0 0v1z"/>
  <path fill="#603A2A" d="M1 12V7l4-1 2 1-1 3-1 1H3l-2 1z"/>
  <path fill="#1A130F" d="M5 6 1 7V1h4l1 2-1 3z"/>
  <path fill="#B6846F" d="m31 46 3 5h-4l-1-5h2z"/>
  <path fill="#93624E" d="m4 31-3 1v-7l2-1 2 3v2l-1 2z"/>
  <path fill="#251F1D" d="M51 31h-3v-7h3v7z"/>
  <path fill="#BC7E5D" d="M18 1h7l1 2-2 1h-6V1z"/>
  <path fill="#CBCBCF" d="M45 51h-3l-1-1h-1l1-4 2-2h2l-1 2 1 5z"/>
  <path fill="#9A5F3F" d="M6 3 5 1h7v4H9L6 3z"/>
  <path fill="#A5694A" d="M12 5V1h4v5h-2l-1-1h-1z"/>
  <path fill="#332824" d="m1 12 2-1v10H1v-9z"/>
  <path fill="#B9B8BD" d="M45 51v-5h1v1h1l1 1v3h-3z"/>
  <path fill="#C08667" d="m26 3-1-2h7l3 2c1 0 1 0 0 0h-9z"/>
  <path fill="#523225" d="M40 1h5l2 5h-2V5l-5-3V1z"/>
  <path fill="#1F1613" d="m47 6-2-5h4l-1 6h-1V6z"/>
  <path fill="#C1C0C4" d="M50 40h1v7h-1l-2-2 2-5z"/>
  <path fill="#825646" d="M51 24h-3v-3l2-1h1v4z"/>
  <path fill="#281F1C" d="M40 1v3h-1l-3-1-1-1h1l1-1h3z"/>
  <path fill="#D2D0D6" d="M51 47c-1 1 2 4-2 4l-1-3 3-1z"/>
  <path fill="#96644F" d="M51 20h-2l1-4v-3h1v7z"/>
  <path fill="#452E2A" d="M2 21a10266 10266 0 0 0 2 0l-1 3-2 1v-2l1-1v-1z"/>
  <path fill="#B07051" d="M16 5V1h2v3l-1 1h-1z"/>
  <path fill="#C49A87" d="m35 2-3-1h3v1z"/>
  <path fill="#3E332F" d="M21 51h2-2z"/>
  <path fill="#C4C2C8" d="m40 50 2 1h-2v-1z"/>
  <path fill="#6D4837" d="m2 22-1 1v-1h1z"/>
  <path fill="#C08667" d="m36 2-1-1h2l-1 1z"/>
  <path fill="#734938" d="M2 22H1v-1h1v1z"/>
  <path fill="#543D36" d="m10 42-1-2v-4h3l2 3v1l-2 1-2 1c0 1 0 0 0 0z"/>
  <path fill="#51403D" d="m12 41 2-1 3 4-2 2-3-2v-3z"/>
  <path fill="#473A38" d="m15 46 2-2 2 1v2c-2 5-2 0-4-1z"/>
  <path fill="#CCC7CB" d="M5 40v-3l4 2v1H5z"/>
  <path fill="#9B6F58" d="M19 47v-2l3 1-1 1h-2z"/>
  <path fill="#A29A9D" d="M7 40h2-2zm3 2 1 1v1h-1v-2z"/>
  <path fill="#473A38" d="m19 48 1-1 1 1h-2z"/>
  <path fill="#B7B5BC" d="M11 44v-2l1 1v1h-1z"/>
  <path fill="#AEACB1" d="M10 42v2-2z"/>
  <path fill="#C8C1C4" d="m9 39-4-2v-4l2-1 2 4v3z"/>
  <path fill="#C39F79" d="M7 32H4v-1l1-2 2 3z"/>
  <path fill="#93624E" d="M4 31v1-1z"/>
  <path fill="#9B6854" d="m22 46-3-1-2-1-3-4 1-1h1l2-2 3-1h2l1 1 1 1v1l1 1v1l-1 2v3h-3z"/>
  <path fill="#8B594B" d="M31 46h-4v-3h4v3z"/>
  <path fill="#A36C57" d="M27 43v3h-2v-3h2z"/>
  <path fill="#905B46" d="M47 31v2l-1 1h-5l-1-3v-1l1-1 5-1 1 3z"/>
  <path fill="#B7B5BC" d="M47 38v4h-3v-1l1-2 1-2 1 1z"/>
  <path fill="#442D30" d="M47 42v-2h2l-1 5-1 1v-4z"/>
  <path fill="#51352C" d="m47 31-1-3v-1h2a249 249 0 0 1-1 4z"/>
  <path fill="#979699" d="m47 38-2-1v-1l1-1v-1l1-1v5z"/>
  <path fill="#573A31" d="m50 17-1 3-1 1h-1v-1l-1-2v-7l1-2 1 3 2 5z"/>
  <path fill="#643F30" d="m47 9-1 2-2-1V8l1-2h2v3z"/>
  <path fill="#3A2E2C" d="m50 16-2-4 2 1v3zm-2-9z"/>
  <path fill="#98624F" d="m41 46-3 3v-5h-3v-1a20 20 0 0 0 1-6v-1l2-1h1l2 7v4z"/>
  <path fill="#96644F" d="M35 43v2a1029 1029 0 0 1-3-2h3z"/>
  <path fill="#9D6750" d="M35 45v-1h3v2l-3-1z"/>
  <path fill="#422B27" d="m39 49 2-3-1 4-1-1z"/>
  <path fill="#724733" d="m5 11 1-1h2l1 1v1l3 1v2H9a14 14 0 0 0-3 0H5v-4z"/>
  <path fill="#231714" d="M7 10H6l1-3 1-1h6l-1 2-6 2z"/>
  <path fill="#683E2B" d="M8 6 7 7 5 6l1-3 3 2-1 1z"/>
  <path fill="#633E2E" d="M5 11v4H3v-4h2z"/>
  <path fill="#583E33" d="m7 32-2-3v-2h4l1 2 1 4 1 3H9l-2-4z"/>
  <path fill="#69493B" d="M8 27H5l-2-3 1-3h3v3l1 3z"/>
  <path fill="#583A31" d="M48 27h-2v-2l1-3h1a352 352 0 0 0 0 5z"/>
  <path fill="#D3ADA0" d="M26 3h3v1l-1 2h-4V4l2-1z"/>
  <path fill="#BD9480" d="M18 4h4v2h-2l-1-1-1-1z"/>
  <path fill="#CBA597" d="M22 6V4h2v2h-2z"/>
  <path fill="#725B4C" d="M18 4v2l-1-1 1-1z"/>
  <path fill="#907E83" d="M47 42v4h-2v-4h2z"/>
  <path fill="#583B35" d="M41 46v-4l1-1 1 2v1l-2 2z"/>
  <path fill="#B9B8BD" d="M43 44v-1h2v1h-2z"/>
  <path fill="#96644F" d="m13 5-1 1h-1l-1-1h3z"/>
  <path fill="#7F4F37" d="M10 5 8 6l1-1h1z"/>
  <path fill="#473A38" d="m13 8 1-2h2v1l-2 1h-1z"/>
  <path fill="#725B4C" d="M16 5h1v1h-1V5z"/>
  <path fill="#6D4837" d="M7 21H3v-6h3l1 4v2z"/>
  <path fill="#464046" d="M46 46h1l1-1 2 2h-4v-1z"/>
  <path fill="#907E83" d="M46 47h1-1z"/>
  <path fill="#322523" d="m35 3 4 1-2 2-2 1h-1l-1-1-1-1 1-1 1-1h1z"/>
  <path fill="#C49A87" d="m33 4-1 1h-1l-2-1V3h4v1z"/>
  <path fill="#B07B60" d="M33 4V3h1l-1 1z"/>
  <path fill="#281A15" d="M40 4V3l5 2h-2l-3-1z"/>
  <path fill="#794738" d="M43 5h2v1l-1 2h-1V5z"/>
  <path fill="#69493B" d="M48 22h-1v-1a3736 3736 0 0 0 1 1z"/>
  <path fill="#A26B53" d="M43 5v3h-4l-2-2 2-2h1l3 1z"/>
  <path fill="#946048" d="M12 36v-3h5v4l-1 2h-1l-3-3z"/>
  <path fill="#958C91" d="m12 43-1-1 1-1v2z"/>
  <path fill="#AA6765" d="M32 43h-7l1-2h6v2z"/>
  <path fill="#DACBBF" d="M25 39v-1l1-1h4l1 2h-6z"/>
  <path fill="#734D40" d="M17 37v-3h3l1 1v1l-3 1h-1z"/>
  <path fill="#BF7C80" d="M32 41a143 143 0 0 1-6-1h6v1z"/>
  <path fill="#764946" d="M21 36v-1h6v1a1602 1602 0 0 0-6 0z"/>
  <path fill="#C6A995" d="M23 36h4v1h-3l-1-1z"/>
  <path fill="#885947" d="M17 37h1l-2 2 1-2z"/>
  <path fill="#9D4A4C" d="M28 40h-2l-1-1h3v1z"/>
  <path fill="#CFBDAD" d="M24 37h2l-1 1-1-1z"/>
  <path fill="#865845" d="M42 41h-1l-2-6 2-1h4v5l-1 2h-2z"/>
  <path fill="#98644B" d="M47 21v1l-1 3v3l-5 1v-2l1-2 1-2 1-3h3v1z"/>
  <path fill="#A3664C" d="M41 27a6731 6731 0 0 0-1 3h-2l-2-2h-1v-5h1l2 1 2 2 1 1z"/>
  <path fill="#926653" d="m41 34-2 1h-1l-1-1 1-3h2l1 3z"/>
  <path fill="#A67259" d="M40 31h-2v-1a4801 4801 0 0 0 2 1z"/>
  <path fill="#5C3D33" d="M45 35v-1h1v1h-1z"/>
  <path fill="#4D3632" d="M42 41h2v2h-1l-1-2z"/>
  <path fill="#AEACB1" d="M44 43v-1h1v1h-1z"/>
  <path fill="#979699" d="M45 39z"/>
  <path fill="#67443B" d="M45 35h1l-1 1v-1z"/>
  <path fill="#915D45" d="m44 10 2 1v7h-2l-3-3v-3h2v-1l1-1z"/>
  <path fill="#8B5A44" d="M44 18a810 810 0 0 0-2 2l2-2z"/>
  <path fill="#8F5A45" d="m44 10-1 1h-1V8h2v2z"/>
  <path fill="#A1695A" d="M32 41v-1l2-1h2l-1 4h-3v-2z"/>
  <path fill="#623F3B" d="m37 34 1 1-2 1-2-1h-2v-1h5z"/>
  <path fill="#9C504F" d="M36 39h-3v-1l1-1h2v2z"/>
  <path fill="#A47157" d="M38 46v-2 2z"/>
  <path fill="#895C58" d="M36 37h-1v-2l1 1v1z"/>
  <path fill="#9A6A54" d="M13 8h2v1l1 2-1 1v1l-2-1-1 1-3-1v-1l-1-1 5-2z"/>
  <path fill="#704237" d="m10 15 2-1 2 1-1 3-3-3z"/>
  <path fill="#9D634A" d="m9 15 4 3v1H8v-4h1z"/>
  <path fill="#251C1C" d="m14 15-2-1v-1h6l-1 2h-3z"/>
  <path fill="#69493B" d="M8 15v4H7l-1-4h2z"/>
  <path fill="#8D5B45" d="m8 10 1 1-1-1z"/>
  <path fill="#603A2A" d="M9 12z"/>
  <path fill="#322B29" d="M11 6h1-1z"/>
  <path fill="#9C654E" d="M17 33h-5l-1-4h5l2-1v3l-1 1v1z"/>
  <path fill="#A26B53" d="m11 29-2-2v-3h1l1 5z"/>
  <path fill="#805540" d="M9 24v3H8l-1-3h2z"/>
  <path fill="#8D5C45" d="M9 24H7v-3h2v3z"/>
  <path fill="#6E4B3E" d="M46 27v-2 2z"/>
  <path fill="#B6876D" d="M22 6h2a157 157 0 0 0 6 0v1l-2 5v-1h-4l-2-3V6z"/>
  <path fill="#CD9F8B" d="M30 6h-2l1-2 2 1-1 1z"/>
  <path fill="#683E31" d="m22 8 2 3 1 2-1 2-5-2-3-2-1-2h2l3-3 1 1 1 1z"/>
  <path fill="#664538" d="m22 8-1-1 1-1v2z"/>
  <path fill="#725B4C" d="M19 6h1-2 1z"/>
  <path fill="#2F201D" d="M18 6h2l-3 3-1-2V6h2z"/>
  <path fill="#322B29" d="m16 7 1 2h-1l-1-1 1-1z"/>
  <path fill="#A46D52" d="M9 21H7v-2h3l-1 2z"/>
  <path fill="#8F5A45" d="m37 6 2 2v2h-2l-1-2-1-1 2-1z"/>
  <path fill="#6A4132" d="M35 7v2l-2 1-1-2V7h3z"/>
  <path fill="#6A4C40" d="M33 7a11 11 0 0 1-3 0V6l1-1h1l1 1v1z"/>
  <path fill="#885D4A" d="M33 7h1-1z"/>
  <path fill="#6A4132" d="M39 10V8h3v2h-3z"/>
  <path fill="#986952" d="M17 33v-1l1-1h1l1 3h-3v-1z"/>
  <path fill="#B7877C" d="M32 34v2l-2 1h-3v-4a142 142 0 0 0 4 0l1 1z"/>
  <path fill="#CFBDAD" d="m30 37 1-1 3-1 1 1-1 1-1 1-1 1h-1l-1-2z"/>
  <path fill="#AA4F55" d="M31 39h3l-2 1h-4v-1h3z"/>
  <path fill="#9D6D59" d="M27 33v2h-6l-1-1v-3h2l5 2z"/>
  <path fill="#7D5342" d="M45 35v1-1z"/>
  <path fill="#B87F5F" d="M42 20h2l-1 3-3 2v1l-2-2 1-3 2-1h1z"/>
  <path fill="#BF8666" d="m40 25 3-2-1 2h-2z"/>
  <path fill="#AF7557" d="M40 25h2l-1 2-1-1v-1z"/>
  <path fill="#9E705B" d="M37 34h-3l-1-2-1-2 3-2h1l2 2v1l-1 3z"/>
  <path fill="#825646" d="m35 28-3 2h-1l1-5 3 2v1z"/>
  <path fill="#A2644C" d="m35 27-3-2v-1l2-1h1v4z"/>
  <path fill="#B87F5F" d="M35 23h-1l-1-4 1-1 1 1v1l1 2v1h-1z"/>
  <path fill="#C79074" d="M36 23v-1l1-1h2l-1 3-2-1z"/>
  <path fill="#A67259" d="m38 30-2-2 2 2z"/>
  <path fill="#B87B5C" d="M42 20h-1l-3-2 1-2h2l3 2-2 2z"/>
  <path fill="#754739" d="m41 15-2 1h-2v-3l2-1 2 1v2z"/>
  <path fill="#49362D" d="m41 13-2-1v-2h3v1l-1 1v1z"/>
  <path fill="#794738" d="m41 12 1-1h1v1h-2z"/>
  <path fill="#754739" d="M42 12h1-1z"/>
  <path fill="#A9786B" d="m33 32 1 2h-2l-1-1 2-1z"/>
  <path fill="#98624F" d="m34 37 1-1v1h-1z"/>
  <path fill="#AA6765" d="M33 39h-1l1-1v1z"/>
  <path fill="#9F7364" d="m16 11 3 2h-1a93 93 0 0 0-3-1l1-1z"/>
  <path fill="#8D5B45" d="M15 12h2l-2 1v-1zm-2 0-1 1 1-1z"/>
  <path fill="#2F201D" d="m15 8 1 1h-1V8z"/>
  <path fill="#7F574F" d="M14 15h4l1 1-1 1v1l-1 1h-4v-1l1-3z"/>
  <path fill="#BA8466" d="m9 21 1-2h2l1 2 1 4 2 4h-4l-2-5-1-3z"/>
  <path fill="#AE7156" d="m13 21-1-2h2v2h-1z"/>
  <path fill="#915741" d="m19 16-1-1v-2h1l5 2v1l-3 1-2-1z"/>
  <path fill="#CB967F" d="m16 29-2-4 2-3 3-2 2 4-1 2-2 2-2 1z"/>
  <path fill="#995F47" d="m18 28 3-2h1v3h-1a480 480 0 0 0-3-1z"/>
  <path fill="#A56D55" d="M18 29h3l1 1v1h-4v-2z"/>
  <path fill="#9D6D59" d="m18 31-1 1 1-1z"/>
  <path fill="#915741" d="m34 18-1 1-2 4-1 2-1-5-1-7v-1h3v2a30 30 0 0 0 3 4z"/>
  <path fill="#724535" d="M31 12h-2l1-5h2v1l1 2v2c0-1 0 0 0 0h-2z"/>
  <path fill="#AB775A" d="M28 11v2l-3-1-1-1h4z"/>
  <path fill="#C17F5E" d="M25 13h3l1 8-2 2-1-2a189 189 0 0 0-2-6l1-2z"/>
  <path fill="#2C1E1E" d="M33 12v-1h2l2-1h2v2l-2 1h-2l-1-1h-1z"/>
  <path fill="#A1695A" d="M35 11h-2v-1l3-1 1 1-2 1z"/>
  <path fill="#93644F" d="M22 31v-1h4l1 1 1 1 1 1h-2l-5-2z"/>
  <path fill="#8F6657" d="M29 32h-1v-2a451 451 0 0 0 5 2l-2 1h-1l-1-1z"/>
  <path fill="#A9786B" d="M29 33h1-1z"/>
  <path fill="#BF8666" d="m38 18 3 2-2 1h-2l-2-1v-1l3-1z"/>
  <path fill="#A76B51" d="M31 30h-3l-1-1v-2h1l2-1v-1h1v-2l1 1v1l-1 5z"/>
  <path fill="#8B533C" d="m32 24-1-1 2-4 1 4-2 1z"/>
  <path fill="#CB967F" d="m35 20 2 1-1 1-1-2z"/>
  <path fill="#BF8666" d="m35 19-1-1 1 1z"/>
  <path fill="#A6715F" d="m35 19-1-1-1-1 4-1h2l-1 2-3 1z"/>
  <path fill="#A97B6E" d="m37 16-4 1-2-3 3-1h1l1 1 1 1v1z"/>
  <path fill="#7F574F" d="m37 15-1-1 1-1v2z"/>
  <path fill="#AE7E72" d="m19 16 2 1-2 2v-1l-1-1 1-1z"/>
  <path fill="#BB8063" d="m19 20-3 2v-2l1-1 1-1 1 2z"/>
  <path fill="#9B604D" d="m17 19-1 1h-1v-1h2z"/>
  <path fill="#BA8466" d="M15 19v1l-1 1a248 248 0 0 0 1-2z"/>
  <path fill="#9B604D" d="m18 17 1 1h-1v-1z"/>
  <path fill="#C38C6F" d="m14 21 1-1h1v2l-2 3-1-4h1z"/>
  <path fill="#9B5C40" d="m19 19 2-2 3-1 2 5v5h-2l-2-1-1-1-2-4v-1z"/>
  <path fill="#A6664A" d="m21 24 1 1v1h-1v-2z"/>
  <path fill="#BA8466" d="M24 26h1v3h-3v-2l2-1z"/>
  <path fill="#582C24" d="M22 29h4v1a235 235 0 0 0-5-1h1z"/>
  <path fill="#B37057" d="m24 26-2 1v-2l2 1z"/>
  <path fill="#CB8D70" d="m27 23 2-2 1 4c1 0 0 0 0 0h-2l-1-2z"/>
  <path fill="#87523D" d="m34 13-3 1v-2h3v1z"/>
  <path fill="#885D4A" d="M32 8z"/>
  <path fill="#CD9F8B" d="M26 23v-1l1 1h-1z"/>
  <path fill="#724535" d="m35 11 2-1-2 1z"/>
  <path fill="#7F574F" d="M34 13v-1l1 1h-1z"/>
  <path fill="#78503F" d="M26 30v-1h1l1 1v1h-1l-1-1z"/>
  <path fill="#8B594B" d="M27 31h1v1l-1-1z"/>
  <path fill="#CD9F8B" d="M28 25h2v1h-2v-1z"/>
  <path fill="#D9B3AB" d="M28 26z"/>
  <path fill="#9B5C40" d="M25 28v-1h2v1h-2z"/>
  <path fill="#C17F5E" d="M25 28h2v1h-2v-1z"/>
  <path fill="#CD9F8B" d="M28 26v1h-1l1-1z"/>
  <path fill="#A36C57" d="M19 19v1l-1-2h1v1z"/>
  <path fill="#C17F5E" d="m28 26-1 1h-1v-4h1l1 2v1z"/>
  <path fill="#B37057" d="M26 26v1h-1v-1h1z"/>
</svg>
