<svg version="1.1" id="Layer_1" xmlns="http://www.w3.org/2000/svg" xmlns:xlink="http://www.w3.org/1999/xlink" x="0px" y="0px"
	 width="100%" viewBox="0 0 1138 446" enable-background="new 0 0 1138 446" xml:space="preserve">
<path fill="#FFFFFF" opacity="1.000000" stroke="none" 
	d="
M808.000000,447.000000 
	C540.166687,447.000000 272.833344,446.990845 5.500036,447.093292 
	C1.750846,447.094727 0.903099,446.249390 0.905952,442.499939 
	C1.016785,296.833344 1.016785,151.166656 0.905952,5.500072 
	C0.903099,1.750601 1.750923,0.905996 5.500025,0.906987 
	C381.833344,1.006524 758.166687,1.006524 1134.500000,0.906987 
	C1138.249023,0.905996 1139.096924,1.750600 1139.094116,5.500071 
	C1138.983276,151.166656 1138.983276,296.833344 1139.094116,442.499939 
	C1139.096924,446.249390 1138.249634,447.098663 1134.499878,447.094635 
	C1025.833374,446.977600 917.166687,447.000000 808.000000,447.000000 
z"/>
<path fill="#000000" opacity="1.000000" stroke="none" 
	d="
M452.666138,216.287018 
	C470.232269,220.115891 487.421051,223.794998 504.654053,227.253616 
	C522.530518,230.841385 540.299194,234.935791 558.272278,238.084656 
	C573.845764,240.813095 589.283020,244.311691 604.802490,247.358124 
	C619.857178,250.313324 634.943604,253.106735 650.009155,256.007050 
	C665.866211,259.059753 681.715515,262.152710 697.567444,265.232178 
	C710.880615,267.818451 724.197083,270.387970 737.504089,273.005585 
	C754.926025,276.432617 772.348145,279.859497 789.755249,283.360840 
	C807.150818,286.859833 824.540955,290.388062 841.908875,294.021088 
	C855.787354,296.924164 869.667786,299.836578 883.477112,303.046661 
	C901.334839,307.197815 919.138367,311.586182 936.936340,315.989166 
	C954.541931,320.344574 971.992981,325.224182 989.334412,330.582855 
	C1008.080933,336.375702 1026.471558,342.918213 1043.867554,352.024719 
	C1052.821533,356.711914 1061.289795,362.064911 1067.237061,370.659760 
	C1070.254028,375.019928 1071.467529,379.424530 1070.203125,384.672089 
	C1069.090332,389.291168 1070.540405,394.064758 1069.213501,398.869537 
	C1067.359741,405.582214 1058.893433,411.913544 1051.983765,411.998505 
	C1051.150635,412.008759 1050.317383,412.000000 1049.484131,412.000000 
	C729.523254,412.000000 409.562347,411.966339 89.601578,412.154480 
	C79.482407,412.160431 69.792801,402.909698 69.823509,392.218811 
	C70.118370,289.565552 69.925552,186.910965 70.123703,84.257233 
	C70.142029,74.764992 72.070457,65.323433 75.874573,56.420414 
	C76.372055,55.256142 76.932800,54.502636 78.610077,53.597290 
	C78.834724,59.241604 80.197998,64.215019 82.427399,68.969406 
	C89.148727,83.303162 100.259048,93.752083 112.688522,102.930779 
	C125.530151,112.413834 139.408569,120.248177 153.731049,127.243813 
	C173.044891,136.677414 192.968689,144.691147 213.182739,151.974869 
	C238.381271,161.054565 263.974670,168.885269 289.692596,176.358856 
	C319.322906,184.969376 349.277985,192.323563 379.174622,199.890793 
	C397.739807,204.589859 416.517639,208.452744 435.216034,212.619278 
	C440.885986,213.882706 446.609344,214.906723 452.666138,216.287018 
z"/>
</svg>