<?xml-stylesheet type="text/css" href="svg.css" ?>
<svg version="1.1" xmlns="http://www.w3.org/2000/svg" xmlns:xlink="http://www.w3.org/1999/xlink" width="800" height="800" viewBox="0 0 800 800"><defs/><g transform="scale(2,2)"><g id="background-f584f847"><rect fill="white" stroke="none" x="0" y="0" width="400" height="400" class="dcg-svg-background"/></g><g id="background-images-f584f847"/><g id="graphpaper-f584f847"><g id="axis-f584f847"><g><g><path fill="none" stroke="rgb(0,0,0)" class="dcg-svg-tickmark" paint-order="fill stroke markers" d="" stroke-opacity="0.9" stroke-miterlimit="2" stroke-width="1.5" stroke-dasharray=""/></g></g></g></g><g id="expressions-f584f847"><g id="sketch-f584f847"><title>Expression 8</title><path fill="#388c46" stroke="none" paint-order="stroke fill markers" d="" fill-opacity="0.4"/><g><path fill="none" stroke="#388c46" class="dcg-svg-curve" paint-order="fill stroke markers" d=" M 188.73684657217404 199.9836835803748 L 188.73684657217404 199.9836835803748 L 187.90961144928312 199.10581282164722 L 185.28530270786965 197.84402147748492 L 181.47301007805558 196.16043856553074 L 172.9054576682327 191.99323289749566 L 163.3243743852262 186.56285584160977 L 153.03316126878286 179.8475456652879 L 142.34069809948852 171.91208840074336 L 131.55370134636763 162.87766683119122 L 118.38830009093559 150.29670205249352 L 117.74826525562139 149.63642991675002 L 120.31179554573791 150.41064814006072 L 127.21979074542253 152.77769939164332 L 133.94197558450855 155.38995415734206 L 140.4486261577578 158.2062682184219 L 152.70619565219573 164.28736388380057 L 163.79560878838416 170.69585466409984 L 173.55656953966286 177.11261783166873 L 181.86802769566478 183.22917292304643 L 188.64975404293082 188.7533186323719 L 197.5090528421368 196.97294672594535 L 200.30116612124831 199.98353655698276 L 197.77055653928434 196.60937419147194 L 191.11930769163726 186.39939199960457 L 186.71049094942066 178.80053744556113 L 181.84763865303051 169.6712121471269 L 176.7352249904334 159.1660641071811 L 171.57362078107369 147.4797717179689 L 166.55372259288217 134.84215709483806 L 161.85201470306126 121.51240560509885 L 159.0162148315657 112.52358054772772 L 161.71921975306878 116.61664201487999 L 169.20337274232543 128.72940693741654 L 175.96675775902668 140.74917788859443 L 181.9272945413439 152.366850086515 L 187.03181973485437 163.28090116766603 L 191.25650330638047 173.20497033642783 L 194.60639651646306 181.87508095316372 L 197.1141421517946 189.05632439465978 L 200.3012884700041 199.98368307249515 L 200.2069453560184 199.52149805677638 L 199.12018282725697 192.69687367276924 L 198.37149647008974 186.33520815083327 L 197.66360904782061 178.16185545438313 L 197.1218953167594 168.34912002535 L 196.86034535994443 157.10975197440416 L 196.9777921326663 144.69187089852647 L 197.55466360592456 131.37301369454696 L 198.65035376762089 117.45345391274208 L 200.30128858096148 103.24895834116046" stroke-linecap="round" stroke-linejoin="round" stroke-miterlimit="10" stroke-width="2.5" stroke-opacity="0.9" stroke-dasharray=""/></g><g><path fill="none" stroke="#388c46" class="dcg-svg-curve" paint-order="fill stroke markers" d=" M 200.30128858096148 103.24895834116046 L 200.30128858096148 103.24895834116046 L 202.51974277718938 89.0831605298376 L 205.29344162506155 75.27974050795859 L 208.58595916137176 62.15460478059484 L 212.33790139821838 50.00826069557394 L 216.46884036460222 39.11857444544174 L 220.87994310523223 29.734092433847337 L 225.45721953706985 22.06809172598119 L 230.07529490380557 16.293507165665886 L 232.3583634583829 14.157483027875656 L 234.60159696621636 12.538860926216245 L 236.78803459543593 11.446279662184537 L 238.90083545170398 10.885295308449571 L 240.92342520872913 10.858353678569529 L 242.83964201091362 11.364782125474534 L 244.63388055406048 12.400800715178946 L 246.29123325770126 13.959552701201517 L 247.79762745778572 16.031154104611943 L 249.13995757111573 18.602762085247832 L 250.30621121287683 21.658661672190448 L 251.28558828575484 25.180370306798352 L 252.0686121031833 29.146759540176646 L 252.6472316599918 33.53419311961838 L 253.01491422079005 38.31668059595563 L 253.1667274594777 43.466045486553924 L 253.09941045190718 48.95210693747873 L 252.8114328975201 54.74287374374046 L 251.57629671357813 67.10274765633494 L 249.4851489408294 80.26156205073985 L 246.5911529336966 93.92027992755098 L 241.97235428405935 111.22986818859975 L 241.603486504545 112.48730394936442 L 246.9785729135701 104.71982591620096 L 255.5496698129595 93.34002546949071 L 264.4389570107195 82.76294315154752 L 273.46995022964774 73.25184408303382 L 282.45175290181334 65.04107804276828 L 291.18399420777234 58.33036148600968 L 295.39263791323293 55.58925830065502 L 299.4621999595577 53.27996574232748 L 303.36740980568925 51.415733692456456 L 307.0834577305291 50.00693506734848 L 310.5861773689165 49.061010564504045 L 313.8522268263418 48.58243258653491 L 316.85926711958297 48.5726885965783 L 319.5861366952379 49.03028403742147 L 322.01302079119927 49.95076482401262 L 324.12161442744275 51.326759296418004 L 325.89527784200675 53.1480393984078 L 327.3191832255876 55.40160072650329 L 328.38045165358585 58.07176097631904 L 329.06827916746823 61.14027619817861 L 329.37405101767683 64.58647416308185 L 329.2914431476868 68.38740403395335 L 328.81651007279453 72.51800143650081 L 327.94775838739923 76.95126792975601 L 326.686205220432 81.65846378926608 L 325.035421049702 86.60931293675776 L 323.0015563816999 91.7722187797817 L 320.59335190326897 97.11448966423565 L 314.70178016155876 108.20229382437441 L 307.4817560349388 119.59833298989199 L 299.0935755500693 131.02624308954722 L 289.7341291473026 142.21577538521694 L 282.92280860158 149.5946553050715 L 287.3530908111507 148.3301774988424 L 294.5366120892726 146.5780646438239 L 301.8068177673853 145.19680279467514 L 309.1279460531949 144.23013320702842 L 316.46320353007474 143.72390043022534 L 323.7749773204518 143.7274090032586 L 331.02505570893754 144.295591977253 L 338.1748559387622 145.49256304334475 L 345.1856578349494 147.39767947239383 L 352.01884185544907 150.11653534242393 L 358.6361301275244 153.80268812929447 L 361.85200462962257 156.08041307965505 L 364.999828991409 158.70633845698273 L 368.0750225859655 161.74764342767094 L 371.0730715469158 165.30699405722766 L 373.98953624107526 169.55661676464015 L 376.82005868151407 174.83112110296258 L 378.2017538191857 178.0719688526724 L 379.5603698690958 181.9902295889142 L 380.8953883015157 187.18975119666922 L 381.5538881320291 190.91254719685975 L 381.8808579004633 193.56086525264266 L 382.2062970506027 199.9836835803748" stroke-linecap="round" stroke-linejoin="round" stroke-miterlimit="10" stroke-width="2.5" stroke-opacity="0.9" stroke-dasharray=""/></g></g><g id="sketch-f584f847"><title>Expression 9</title><path fill="#388c46" stroke="none" paint-order="stroke fill markers" d="" fill-opacity="0.4"/><g><path fill="none" stroke="#388c46" class="dcg-svg-curve" paint-order="fill stroke markers" d=" M 188.73684657217404 199.9836835803748 L 188.73684657217404 199.9836835803748 L 187.90961144928312 200.86155433910236 L 185.28530270786965 202.12334568326466 L 181.47301007805558 203.80692859521884 L 172.9054576682327 207.97413426325392 L 163.3243743852262 213.4045113191398 L 153.03316126878286 220.11982149546168 L 142.34069809948852 228.05527876000622 L 131.55370134636763 237.08970032955835 L 118.38830009093559 249.67066510825606 L 117.74826525562139 250.33093724399956 L 120.31179554573791 249.55671902068886 L 127.21979074542253 247.18966776910625 L 133.94197558450855 244.57741300340751 L 140.4486261577578 241.76109894232766 L 152.70619565219573 235.680003276949 L 163.79560878838416 229.27151249664973 L 173.55656953966286 222.85474932908085 L 181.86802769566478 216.73819423770314 L 188.64975404293082 211.21404852837767 L 197.5090528421368 202.99442043480423 L 200.30116612124831 199.98383060376682 L 197.77055653928434 203.35799296927763 L 191.11930769163726 213.567975161145 L 186.71049094942066 221.16682971518844 L 181.84763865303051 230.29615501362267 L 176.7352249904334 240.80130305356846 L 171.57362078107369 252.48759544278067 L 166.55372259288217 265.1252100659115 L 161.85201470306126 278.4549615556507 L 159.0162148315657 287.44378661302187 L 161.71921975306878 283.3507251458696 L 169.20337274232543 271.23796022333306 L 175.96675775902668 259.21818927215514 L 181.9272945413439 247.60051707423457 L 187.03181973485437 236.68646599308354 L 191.25650330638047 226.76239682432174 L 194.60639651646306 218.09228620758586 L 197.1141421517946 210.9110427660898 L 200.3012884700041 199.98368408825442 L 200.2069453560184 200.4458691039732 L 199.12018282725697 207.27049348798033 L 198.37149647008974 213.6321590099163 L 197.66360904782061 221.80551170636645 L 197.1218953167594 231.61824713539957 L 196.86034535994443 242.8576151863454 L 196.9777921326663 255.2754962622231 L 197.55466360592456 268.5943534662026 L 198.65035376762089 282.5139132480075 L 200.30128858096148 296.7184088195891" stroke-linecap="round" stroke-linejoin="round" stroke-miterlimit="10" stroke-width="2.5" stroke-opacity="0.9" stroke-dasharray=""/></g><g><path fill="none" stroke="#388c46" class="dcg-svg-curve" paint-order="fill stroke markers" d=" M 200.30128858096148 296.7184088195891 L 200.30128858096148 296.7184088195891 L 202.51974277718938 310.884206630912 L 205.29344162506155 324.687626652791 L 208.58595916137176 337.8127623801547 L 212.33790139821838 349.95910646517564 L 216.46884036460222 360.8487927153078 L 220.87994310523223 370.2332747269022 L 225.45721953706985 377.89927543476836 L 230.07529490380557 383.6738599950837 L 232.3583634583829 385.8098841328739 L 234.60159696621636 387.4285062345333 L 236.78803459543593 388.52108749856507 L 238.90083545170398 389.08207185230003 L 240.92342520872913 389.10901348218005 L 242.83964201091362 388.60258503527507 L 244.63388055406048 387.56656644557063 L 246.29123325770126 386.00781445954806 L 247.79762745778572 383.9362130561376 L 249.13995757111573 381.36460507550174 L 250.30621121287683 378.3087054885591 L 251.28558828575484 374.7869968539512 L 252.0686121031833 370.8206076205729 L 252.6472316599918 366.4331740411312 L 253.01491422079005 361.65068656479394 L 253.1667274594777 356.50132167419565 L 253.09941045190718 351.01526022327084 L 252.8114328975201 345.2244934170091 L 251.57629671357813 332.86461950441463 L 249.4851489408294 319.7058051100097 L 246.5911529336966 306.04708723319857 L 241.97235428405935 288.7374989721498 L 241.603486504545 287.4800632113852 L 246.9785729135701 295.24754124454864 L 255.5496698129595 306.62734169125883 L 264.4389570107195 317.20442400920206 L 273.46995022964774 326.7155230777158 L 282.45175290181334 334.9262891179813 L 291.18399420777234 341.6370056747399 L 295.39263791323293 344.3781088600946 L 299.4621999595577 346.6874014184221 L 303.36740980568925 348.5516334682931 L 307.0834577305291 349.9604320934011 L 310.5861773689165 350.90635659624553 L 313.8522268263418 351.38493457421464 L 316.85926711958297 351.3946785641713 L 319.5861366952379 350.9370831233281 L 322.01302079119927 350.0166023367369 L 324.12161442744275 348.64060786433157 L 325.89527784200675 346.8193277623418 L 327.3191832255876 344.56576643424626 L 328.38045165358585 341.89560618443056 L 329.06827916746823 338.827090962571 L 329.37405101767683 335.38089299766773 L 329.2914431476868 331.5799631267962 L 328.81651007279453 327.44936572424876 L 327.94775838739923 323.0160992309936 L 326.686205220432 318.3089033714835 L 325.035421049702 313.3580542239918 L 323.0015563816999 308.1951483809679 L 320.59335190326897 302.85287749651394 L 314.70178016155876 291.76507333637517 L 307.4817560349388 280.3690341708576 L 299.0935755500693 268.94112407120235 L 289.7341291473026 257.75159177553263 L 282.92280860158 250.37271185567806 L 287.3530908111507 251.63718966190717 L 294.5366120892726 253.38930251692568 L 301.8068177673853 254.77056436607444 L 309.1279460531949 255.73723395372116 L 316.46320353007474 256.24346673052423 L 323.7749773204518 256.239958157491 L 331.02505570893754 255.67177518349658 L 338.1748559387622 254.47480411740483 L 345.1856578349494 252.56968768835574 L 352.01884185544907 249.85083181832564 L 358.6361301275244 246.1646790314551 L 361.85200462962257 243.88695408109453 L 364.999828991409 241.26102870376684 L 368.0750225859655 238.21972373307864 L 371.0730715469158 234.66037310352192 L 373.98953624107526 230.41075039610942 L 376.82005868151407 225.136246057787 L 378.2017538191857 221.89539830807718 L 379.5603698690958 217.97713757183539 L 380.8953883015157 212.77761596408035 L 381.5538881320291 209.05481996388983 L 381.8808579004633 206.40650190810692 L 382.2062970506027 199.9836835803748" stroke-linecap="round" stroke-linejoin="round" stroke-miterlimit="10" stroke-width="2.5" stroke-opacity="0.9" stroke-dasharray=""/></g></g><g id="sketch-f584f847"><title>Expression 10</title><path fill="#388c46" stroke="none" paint-order="stroke fill markers" d="" fill-opacity="0.4"/><g><path fill="none" stroke="#388c46" class="dcg-svg-curve" paint-order="fill stroke markers" d=" M 18.396280111320266 199.9836835803748 L 18.396280111320266 199.9836835803748 L 18.721719261459697 193.56086525264266 L 19.048689029893893 190.91254719685975 L 19.707188860407257 187.18975119666922 L 21.042207292827158 181.9902295889142 L 22.400823342737255 178.0719688526724 L 23.782518480408896 174.83112110296258 L 26.61304092084768 169.55661676464015 L 29.529505615007196 165.30699405722766 L 32.52755457595745 161.74764342767094 L 35.60274817051399 158.70633845698273 L 38.75057253230037 156.08041307965505 L 41.966447034398584 153.80268812929447 L 48.5837353064739 150.11653534242393 L 55.416919326973584 147.39767947239383 L 62.42772122316077 145.49256304334475 L 69.57752145298542 144.295591977253 L 76.82759984147117 143.7274090032586 L 84.13937363184824 143.72390043022534 L 91.47463110872808 144.23013320702842 L 98.79575939453764 145.19680279467514 L 106.06596507265036 146.5780646438239 L 113.24948635077227 148.3301774988424 L 117.67976856034296 149.5946553050715 L 110.86844801462038 142.21577538521694 L 101.50900161185363 131.02624308954722 L 93.12082112698415 119.59833298989199 L 85.90079700036422 108.20229382437441 L 80.00922525865403 97.11448966423565 L 77.60102078022305 91.7722187797817 L 75.56715611222096 86.60931293675776 L 73.91637194149097 81.65846378926608 L 72.65481877452373 76.95126792975601 L 71.78606708912844 72.51800143650081 L 71.31113401423622 68.38740403395335 L 71.22852614424613 64.58647416308185 L 71.53429799445473 61.14027619817861 L 72.22212550833709 58.07176097631904 L 73.28339393633539 55.40160072650329 L 74.70729931991623 53.1480393984078 L 76.4809627344802 51.326759296418004 L 78.58955637072371 49.95076482401262 L 81.01644046668505 49.03028403742147 L 83.74331004233998 48.5726885965783 L 86.75035033558116 48.58243258653491 L 90.0163997930065 49.061010564504045 L 93.51911943139383 50.00693506734848 L 97.2351673562337 51.415733692456456 L 101.14037720236523 53.27996574232748 L 105.20993924869005 55.58925830065502 L 109.41858295415064 58.33036148600968 L 118.15082426010964 65.04107804276828 L 127.13262693227522 73.25184408303382 L 136.16362015120345 82.76294315154752 L 145.05290734896346 93.34002546949071 L 153.62400424835286 104.71982591620096 L 158.99909065737796 112.48730394936442 L 157.62618820791417 107.77253537881748 L 154.01142422822636 93.92027992755098 L 151.11742822109358 80.26156205073985 L 149.02628044834483 67.10274765633494 L 147.79114426440287 54.74287374374046 L 147.5031667100158 48.95210693747873 L 147.43584970244527 43.466045486553924 L 147.58766294113292 38.31668059595563 L 147.95534550193116 33.53419311961838 L 148.53396505873965 29.146759540176646 L 149.31698887616812 25.180370306798352 L 150.29636594904613 21.658661672190448 L 151.46261959080724 18.602762085247832 L 152.80494970413724 16.031154104611943 L 154.3113439042217 13.959552701201517 L 155.96869660786248 12.400800715178946 L 157.76293515100934 11.364782125474534 L 159.67915195319384 10.858353678569529 L 161.70174171021898 10.885295308449571 L 163.81454256648703 11.446279662184537 L 166.0009801957066 12.538860926216245 L 168.24421370354005 14.157483027875656 L 170.5272822581174 16.293507165665886 L 175.14535762485312 22.06809172598119 L 179.72263405669074 29.734092433847337 L 184.13373679732075 39.11857444544174 L 188.2646757637046 50.00826069557394 L 192.0166180005512 62.15460478059484 L 195.30913553686142 75.27974050795859 L 198.0828343847336 89.0831605298376 L 200.30128858096148 103.24895834116046" stroke-linecap="round" stroke-linejoin="round" stroke-miterlimit="10" stroke-width="2.5" stroke-opacity="0.9" stroke-dasharray=""/></g><g><path fill="none" stroke="#388c46" class="dcg-svg-curve" paint-order="fill stroke markers" d=" M 200.30128858096148 103.24895834116046 L 200.30128858096148 103.24895834116046 L 201.95222339430208 117.45345391274208 L 203.0479135559984 131.37301369454696 L 203.62478502925666 144.69187089852647 L 203.74223180197853 157.10975197440416 L 203.48068184516356 168.34912002535 L 202.93896811410235 178.16185545438313 L 202.23108069183323 186.33520815083327 L 201.482394334666 192.69687367276924 L 200.30128869191887 199.98368307249515 L 200.74401201904496 198.1929172863903 L 203.48843501012837 189.05632439465978 L 205.9961806454599 181.87508095316372 L 209.3460738555425 173.20497033642783 L 213.5707574270686 163.28090116766603 L 218.67528262057905 152.366850086515 L 224.6358194028963 140.74917788859443 L 231.39920441959754 128.72940693741654 L 241.35334273529352 112.86131397127241 L 241.58636233035728 112.52358054772772 L 240.93197588322084 114.67540866617021 L 238.7505624588617 121.51240560509885 L 234.0488545690408 134.84215709483806 L 229.02895638084928 147.4797717179689 L 223.86735217148956 159.1660641071811 L 218.75493850889245 169.6712121471269 L 213.8920862125023 178.80053744556113 L 209.4832694702857 186.39939199960457 L 202.83202062263862 196.60937419147194 L 200.30141104067465 199.98353655698276 L 203.09352431978616 196.97294672594535 L 211.95282311899214 188.7533186323719 L 218.7345494662582 183.22917292304643 L 227.0460076222601 177.11261783166873 L 236.8069683735388 170.69585466409984 L 247.89638150972723 164.28736388380057 L 260.1539510041652 158.2062682184219 L 266.6606015774144 155.38995415734206 L 273.38278641650044 152.77769939164332 L 282.8543119063016 149.63642991675002 L 279.63321376222115 152.91088353685336 L 269.04887581555533 162.87766683119122 L 258.26187906243445 171.91208840074336 L 247.5694158931401 179.8475456652879 L 237.27820277669676 186.56285584160977 L 227.69711949369025 191.99323289749566 L 219.12956708386739 196.16043856553074 L 212.69296571263985 199.10581282164722 L 211.86573058974892 199.9836835803748" stroke-linecap="round" stroke-linejoin="round" stroke-miterlimit="10" stroke-width="2.5" stroke-opacity="0.9" stroke-dasharray=""/></g></g><g id="sketch-f584f847"><title>Expression 11</title><path fill="#388c46" stroke="none" paint-order="stroke fill markers" d="" fill-opacity="0.4"/><g><path fill="none" stroke="#388c46" class="dcg-svg-curve" paint-order="fill stroke markers" d=" M 18.396280111320266 199.9836835803748 L 18.396280111320266 199.9836835803748 L 18.721719261459697 206.40650190810692 L 19.048689029893893 209.05481996388983 L 19.707188860407257 212.77761596408035 L 21.042207292827158 217.97713757183539 L 22.400823342737255 221.89539830807718 L 23.782518480408896 225.136246057787 L 26.61304092084768 230.41075039610942 L 29.529505615007196 234.66037310352192 L 32.52755457595745 238.21972373307864 L 35.60274817051399 241.26102870376684 L 38.75057253230037 243.88695408109453 L 41.966447034398584 246.1646790314551 L 48.5837353064739 249.85083181832564 L 55.416919326973584 252.56968768835574 L 62.42772122316077 254.47480411740483 L 69.57752145298542 255.67177518349658 L 76.82759984147117 256.239958157491 L 84.13937363184824 256.24346673052423 L 91.47463110872808 255.73723395372116 L 98.79575939453764 254.77056436607444 L 106.06596507265036 253.38930251692568 L 113.24948635077227 251.63718966190717 L 117.67976856034296 250.37271185567806 L 110.86844801462038 257.75159177553263 L 101.50900161185363 268.94112407120235 L 93.12082112698415 280.3690341708576 L 85.90079700036422 291.76507333637517 L 80.00922525865403 302.85287749651394 L 77.60102078022305 308.1951483809679 L 75.56715611222096 313.3580542239918 L 73.91637194149097 318.3089033714835 L 72.65481877452373 323.0160992309936 L 71.78606708912844 327.44936572424876 L 71.31113401423622 331.5799631267962 L 71.22852614424613 335.38089299766773 L 71.53429799445473 338.827090962571 L 72.22212550833709 341.89560618443056 L 73.28339393633539 344.56576643424626 L 74.70729931991623 346.8193277623418 L 76.4809627344802 348.64060786433157 L 78.58955637072371 350.0166023367369 L 81.01644046668505 350.9370831233281 L 83.74331004233998 351.3946785641713 L 86.75035033558116 351.38493457421464 L 90.0163997930065 350.90635659624553 L 93.51911943139383 349.9604320934011 L 97.2351673562337 348.5516334682931 L 101.14037720236523 346.6874014184221 L 105.20993924869005 344.3781088600946 L 109.41858295415064 341.6370056747399 L 118.15082426010964 334.9262891179813 L 127.13262693227522 326.7155230777158 L 136.16362015120345 317.20442400920206 L 145.05290734896346 306.62734169125883 L 153.62400424835286 295.24754124454864 L 158.99909065737796 287.4800632113852 L 157.62618820791417 292.19483178193207 L 154.01142422822636 306.04708723319857 L 151.11742822109358 319.7058051100097 L 149.02628044834483 332.86461950441463 L 147.79114426440287 345.2244934170091 L 147.5031667100158 351.01526022327084 L 147.43584970244527 356.50132167419565 L 147.58766294113292 361.65068656479394 L 147.95534550193116 366.4331740411312 L 148.53396505873965 370.8206076205729 L 149.31698887616812 374.7869968539512 L 150.29636594904613 378.3087054885591 L 151.46261959080724 381.36460507550174 L 152.80494970413724 383.9362130561376 L 154.3113439042217 386.00781445954806 L 155.96869660786248 387.56656644557063 L 157.76293515100934 388.60258503527507 L 159.67915195319384 389.10901348218005 L 161.70174171021898 389.08207185230003 L 163.81454256648703 388.52108749856507 L 166.0009801957066 387.4285062345333 L 168.24421370354005 385.8098841328739 L 170.5272822581174 383.6738599950837 L 175.14535762485312 377.89927543476836 L 179.72263405669074 370.2332747269022 L 184.13373679732075 360.8487927153078 L 188.2646757637046 349.95910646517564 L 192.0166180005512 337.8127623801547 L 195.30913553686142 324.687626652791 L 198.0828343847336 310.884206630912 L 200.30128858096148 296.7184088195891" stroke-linecap="round" stroke-linejoin="round" stroke-miterlimit="10" stroke-width="2.5" stroke-opacity="0.9" stroke-dasharray=""/></g><g><path fill="none" stroke="#388c46" class="dcg-svg-curve" paint-order="fill stroke markers" d=" M 200.30128858096148 296.7184088195891 L 200.30128858096148 296.7184088195891 L 201.95222339430208 282.5139132480075 L 203.0479135559984 268.5943534662026 L 203.62478502925666 255.2754962622231 L 203.74223180197853 242.8576151863454 L 203.48068184516356 231.61824713539957 L 202.93896811410235 221.80551170636645 L 202.23108069183323 213.6321590099163 L 201.482394334666 207.27049348798033 L 200.30128869191887 199.98368408825442 L 200.74401201904496 201.77444987435928 L 203.48843501012837 210.9110427660898 L 205.9961806454599 218.09228620758586 L 209.3460738555425 226.76239682432174 L 213.5707574270686 236.68646599308354 L 218.67528262057905 247.60051707423457 L 224.6358194028963 259.21818927215514 L 231.39920441959754 271.23796022333306 L 241.35334273529352 287.10605318947717 L 241.58636233035728 287.44378661302187 L 240.93197588322084 285.2919584945794 L 238.7505624588617 278.4549615556507 L 234.0488545690408 265.1252100659115 L 229.02895638084928 252.48759544278067 L 223.86735217148956 240.80130305356846 L 218.75493850889245 230.29615501362267 L 213.8920862125023 221.16682971518844 L 209.4832694702857 213.567975161145 L 202.83202062263862 203.35799296927763 L 200.30141104067465 199.98383060376682 L 203.09352431978616 202.99442043480423 L 211.95282311899214 211.21404852837767 L 218.7345494662582 216.73819423770314 L 227.0460076222601 222.85474932908085 L 236.8069683735388 229.27151249664973 L 247.89638150972723 235.680003276949 L 260.1539510041652 241.76109894232766 L 266.6606015774144 244.57741300340751 L 273.38278641650044 247.18966776910625 L 282.8543119063016 250.33093724399956 L 279.63321376222115 247.0564836238962 L 269.04887581555533 237.08970032955835 L 258.26187906243445 228.05527876000622 L 247.5694158931401 220.11982149546168 L 237.27820277669676 213.4045113191398 L 227.69711949369025 207.97413426325392 L 219.12956708386739 203.80692859521884 L 212.69296571263985 200.86155433910236 L 211.86573058974892 199.9836835803748" stroke-linecap="round" stroke-linejoin="round" stroke-miterlimit="10" stroke-width="2.5" stroke-opacity="0.9" stroke-dasharray=""/></g></g><g id="sketch-f584f847"><title>Expression 17</title><path fill="#000000" stroke="none" paint-order="stroke fill markers" d="" fill-opacity="0.4"/><g><path fill="none" stroke="#000000" class="dcg-svg-curve" paint-order="fill stroke markers" d=" M 103.56656334174716 199.9836835803748 L 103.56656334174716 199.9836835803748 L 103.7109375 194.70058362268955 L 104.10156250000003 189.8239705404177 L 104.68750000000001 185.30000215160862 L 105.46875000000001 180.89450619116437 L 106.44531250000001 176.56013088236847 L 107.61718750000003 172.2841443437664 L 109.08203125000001 167.78656943804643 L 110.74218750000003 163.42175692604738 L 112.69531250000003 158.96173796576142 L 114.84375000000001 154.655809520479 L 117.28515625000001 150.3255640034659 L 120.01953125000001 146.01659632379864 L 123.14453125000001 141.63608838333678 L 126.5625 137.3721980068911 L 130.17578125 133.35020634346662 L 133.984375 129.55873033082287 L 137.890625 126.07484690646727 L 141.9921875 122.79783126120617 L 146.19140625 119.79810070392627 L 150.48828125 117.06039753989116 L 154.8828125 114.5742631538819 L 159.47265625 112.28744734934001 L 164.16015625 110.25394703254901 L 168.84765625 108.50540156603553 L 173.63281250000003 106.9976660797555 L 178.515625 105.73405796072865 L 183.39843750000003 104.7371576991589 L 188.37890625 103.98647598212916 L 193.359375 103.49836395639909 L 198.33984375 103.26884603575921 L 203.32031250000003 103.29608064348032 L 208.30078125 103.58028538225996 L 213.28125 104.12374581351328 L 218.26171875 104.93090868532303 L 223.14453125000003 105.9847828874959 L 228.02734375 107.30751117414233 L 232.8125 108.87590016329857 L 237.5 110.68719464677011 L 242.08984375 112.74078287211937 L 246.58203125 115.03840751920393 L 250.9765625 117.58451076694962 L 255.2734375 120.38676209261031 L 259.375 123.38144023015398 L 263.37890625 126.64323623850967 L 267.1875 130.09919467823022 L 270.8984375 133.85010941709987 L 274.4140625 137.81533303822374 L 277.734375 142.0033059106148 L 280.859375 146.42995560921472 L 283.69140625 150.95618780249316 L 286.1328125 155.3680297261298 L 288.28125 159.77008568350934 L 290.13671875 164.10607840040083 L 291.796875 168.58042367089178 L 293.1640625 172.88917699383907 L 294.3359375 177.28804810173133 L 295.3125 181.80466348046144 L 295.99609375 185.83761236727648 L 296.484375 189.66763036152904 L 296.875 194.40467561671704 L 296.97265625 196.4831493205993 L 297.0360138201758 199.9836835803748" stroke-linecap="round" stroke-linejoin="round" stroke-miterlimit="10" stroke-width="2.5" stroke-opacity="0.9" stroke-dasharray=""/></g></g></g><g id="labels-f584f847"/></g></svg>