<?xml-stylesheet type="text/css" href="svg.css" ?>
<svg xmlns="http://www.w3.org/2000/svg" width="800" height="800" viewBox="0 0 800 800">
  <path fill="#fff" d="M0 0h800v800H0z" class="dcg-svg-background"/>
  <path fill="none" stroke="#000" stroke-linecap="round" stroke-linejoin="round" stroke-miterlimit="10" stroke-opacity=".9" stroke-width="5" d="M0 540.8h10.6l5.2-1 5.4-1.4 5.8-2 6-2.6 6-3.6 7-4.2 7.2-5.4 8-6.6 9.4-8.4 12.4-12 28.6-28 9.4-8.4 8.4-6.6 7.2-5 6.6-4 6.2-3.2 6-2.2 5.6-1.8 5.4-1 5.2-.6h5.4l5.2.4 5.4 1 5.6 1.6 5.6 2 6 3 6 3.4 6.8 4.6 7.4 5.6 8.4 7 10 9.2 14 13.8 22 21.4 10 9.2 8.4 6.8 7.4 5.4 7 4 6 3.4 6 2.4 5.6 2 5.6 1.2 5.4.6h5.2l5.4-.2 5.2-.8 5.6-1.6 5.6-2 6-2.6 6-3.6 6.8-4.2 7.2-5.4 8-6.6 9.6-8.6 12.6-12.4 27.4-26.8 9.8-8.6 8-6.6 7.4-5 6.6-4 6.2-3.2 6-2.4 5.6-1.8 5.4-1 5.4-.6h5.2l5.2.4 5.6 1 5.4 1.4 5.6 2.2 6 2.8 6 3.6 6.8 4.4 7.4 5.4 8.2 7 10 9 13.4 13.4 23.6 23 10 8.8 8.2 6.8 7.6 5.4 6.6 4 6.2 3.2 6 2.6 5.6 1.8 5.4 1.2 5.4.6h5.4l5.2-.2 5.2-1 5.6-1.4 5.6-2 6-2.6 6-3.6 6.8-4.2 7.2-5.4 8-6.8 9.8-8.8 12.8-12.6 26.4-25.8 9-8" class="dcg-svg-curve" paint-order="fill stroke markers"/>
  <path fill="none" stroke="#388c46" stroke-linecap="round" stroke-linejoin="round" stroke-miterlimit="10" stroke-opacity=".9" stroke-width="5" d="M91.4-11h0l691.2 822" class="dcg-svg-curve" paint-order="fill stroke markers"/>
  <path fill="none" stroke="#000" stroke-linecap="round" stroke-linejoin="round" stroke-miterlimit="10" stroke-opacity=".9" stroke-width="15" d="M267.2 198v.4h.4v-.4" class="dcg-svg-point" paint-order="fill stroke markers"/>
  <path fill="none" stroke="#6042a6" stroke-linecap="round" stroke-linejoin="round" stroke-miterlimit="10" stroke-opacity=".9" stroke-width="15" d="M475.6 446v.4h.4v-.4" class="dcg-svg-point" paint-order="fill stroke markers"/>
  <path fill="none" stroke="#2d70b3" stroke-linecap="round" stroke-linejoin="round" stroke-miterlimit="10" stroke-opacity=".9" stroke-width="5" d="M0 748.6h0L11.6 712 23 676.8l11.4-33.2 11.2-31.4 10.8-29.4 10.8-27.6L78 528.8l10.4-24.6 10.4-23 10.4-22 10-20 10.2-19.2 10-17.8 10-16.6 9.8-15.2 9.8-14 9.8-13.2 9.4-11.8 9.2-10.4 8.8-9 8.6-8 8.2-7 8-6 8-5.2 7.4-4.4 7.6-4 7.2-2.8 7.2-2.6 7-1.8 7-1.2 6.8-.8 6.8-.2 7 .2 6.8.8 6.8 1.4 7 2 7 2.2 7.2 3.2 7.4 3.6 7.4 4.2 7.6 5.2 7.8 6 8 6.6 8 7.6 8.8 8.8 8.8 9.8 9.2 11 9.6 12.6 9.6 14 10 15 9.6 16 10 17.4 10 18.4 10 19.6 10 21 10.4 22.8 10.4 23.8 10.4 25.4 10.8 27.4 10.8 28.4 11 30.4 11 32 11.4 34.4 11.4 35.6 11.4 37.6 11.4 38.8" class="dcg-svg-curve" paint-order="fill stroke markers"/>
  <path fill="none" stroke="#6042a6" stroke-linecap="round" stroke-linejoin="round" stroke-miterlimit="10" stroke-opacity=".9" stroke-width="5" d="M0 533h0l16-10.8 15.4-10 15.4-9.4 15.4-8.6 15-8 15-7.2 14.8-6.6 14.6-6 14.8-5.2 14.4-4.8 14.2-4 14.2-3.6 14.4-3 14-2.6 14-2 14-1.2 14.2-1 14-.4 14 .2 14.2.8 14 1.2 14 1.8 14 2.2 14.2 2.8 14.4 3.4 14 4 14.4 4.4 14.4 5.2 14.6 5.6 14.6 6.2 14.8 7 14.8 7.6 15 8 15.4 9 15.4 9.8 15.6 10.4 15.8 11.2 16 12 16.2 13 16.4 14 16.6 14.6 17 15.8 17.2 16.6 17.4 18 17.8 18.8 18 20.2 18.6 21.4 18.6 22.8 19.2 24 19.6 25.8 19.6 27 5.4 7.6" class="dcg-svg-curve" paint-order="fill stroke markers"/>
  <rect class="btn" x="0" y="0" width="800" height="800" onclick="https://www.desmos.com/calculator/regctq7bjn" />
</svg>  