<?xml-stylesheet type="text/css" href="svg.css" ?>
<svg version="1.1" xmlns="http://www.w3.org/2000/svg" xmlns:xlink="http://www.w3.org/1999/xlink" width="800" height="800" viewBox="0 0 800 800"><defs/><g transform="scale(2,2)"><g id="background-3b1a62fa"><rect fill="white" stroke="none" x="0" y="0" width="400" height="400" class="dcg-svg-background"/></g><g id="background-images-3b1a62fa"/><g id="graphpaper-3b1a62fa"><g id="axis-3b1a62fa"><g><g><path fill="none" stroke="rgb(0,0,0)" class="dcg-svg-tickmark" paint-order="fill stroke markers" d="" stroke-opacity="0.9" stroke-miterlimit="2" stroke-width="1.5" stroke-dasharray=""/></g></g></g></g><g id="expressions-3b1a62fa"><g id="sketch-3b1a62fa"><title>Expression 2</title><path fill="#6042a6" stroke="none" paint-order="stroke fill markers" d="" fill-opacity="0.4"/><g><path fill="none" stroke="#6042a6" class="dcg-svg-curve" paint-order="fill stroke markers" d=" M -5.5 30.03584917011895 L -5.5 30.03584917011895 L 2.8593355959166615 30.058541161736485 L 6.753788798734632 29.67981290427042 L 9.648111729896385 29.14235643786776 L 12.932739446604785 28.23168598271738 L 16.841795993160844 26.72392939666031 L 19.155135123066742 25.6269519770851 L 21.8193272852385 24.194484795444424 L 24.97190530123669 22.295017363475694 L 28.83177788144738 19.71922661879259 L 33.77013008774526 16.11218107544923 L 40.47105891999067 10.819739202358733 L 50.34987882562234 2.4885608155901764 L 59.33806202719357 -5.5" stroke-linecap="round" stroke-linejoin="round" stroke-miterlimit="10" stroke-width="2.5" stroke-opacity="0.9" stroke-dasharray=""/></g><g><path fill="none" stroke="#6042a6" class="dcg-svg-curve" paint-order="fill stroke markers" d=" M -5.5 68.61381560934939 L -5.5 68.61381560934939 L -3.4536073256357724 67.31685516922656 L -0.5756611792839124 65.67999393452592 L 4.061848570264743 63.475681898542604 L 7.777680999492759 62.1526884673857 L 10.943654292981194 61.35547675579258 L 13.761586384467108 60.891066101367954 L 17.5876401563483 60.57774217762582 L 22.29323894023605 60.53845149469433 L 30.369539591425735 60.621249690745714 L 34.099718545365675 60.39960238627495 L 36.81038955737253 60.03775602722189 L 39.81140426202748 59.398279642472005 L 43.26359728623737 58.3273812856813 L 47.45079185406503 56.55366587927378 L 49.975841196084104 55.25424868532926 L 52.93271422885448 53.541916641172776 L 56.50540600476437 51.2407315314544 L 60.99830492166858 48.059633619530814 L 66.9542392342028 43.47956419636304 L 75.44525718833597 36.47541822398074 L 88.92614656548322 24.699898991308118 L 114.52621902777489 1.3358755253754282 L 121.79491339535527 -5.5" stroke-linecap="round" stroke-linejoin="round" stroke-miterlimit="10" stroke-width="2.5" stroke-opacity="0.9" stroke-dasharray=""/></g><g><path fill="none" stroke="#6042a6" class="dcg-svg-curve" paint-order="fill stroke markers" d=" M -5.5 122.35182073656615 L -5.5 122.35182073656615 L 0.5094859169892914 117.0503923484185 L 9.731327448344501 109.34742434662188 L 16.08393443801384 104.38805188248988 L 20.815777041704308 100.97847323004274 L 24.543332921793336 98.52920525745715 L 27.606160955295138 96.71555780566268 L 32.47351668435971 94.2914643629703 L 36.32048945648924 92.84307300621165 L 39.567197286480734 91.96866198906602 L 42.43718094320727 91.45447902078982 L 46.309846880782715 91.09658400049165 L 51.0428816271786 91.03105873017621 L 60.304124758734574 91.09586554540749 L 64.10570111931797 90.80594720787124 L 66.89629262712351 90.36767993848285 L 70.02004720410308 89.61083825608618 L 73.66786021396447 88.35288578715718 L 75.78676210942267 87.44183151922284 L 78.18768900498114 86.26110165644121 L 80.97221476718663 84.71357008278679 L 84.29614418663826 82.6502544400646 L 88.41150716742635 79.83016079411763 L 93.75469483731497 75.83600685818416 L 101.1531552391621 69.8765771617089 L 112.39049690846511 60.246364417700676 L 132.1497847276732 42.46736735877923 L 177.94196903829427 -0.20458899246921192 L 183.50674163171217 -5.5" stroke-linecap="round" stroke-linejoin="round" stroke-miterlimit="10" stroke-width="2.5" stroke-opacity="0.9" stroke-dasharray=""/></g><g><path fill="none" stroke="#6042a6" class="dcg-svg-curve" paint-order="fill stroke markers" d=" M -5.5 179.34910850788518 L -5.5 179.34910850788518 L 6.434160087366422 168.25343628603486 L 25.183399811095427 151.44025899796935 L 36.00521968410075 142.20737304253893 L 43.19342851080964 136.448988354743 L 48.41576872248217 132.57039016801116 L 52.45539053091369 129.82272111457345 L 55.728783438996985 127.80772907351746 L 60.85323803723588 125.13779469312641 L 64.84432665871034 123.55159808014875 L 68.17876569226298 122.59329746279538 L 71.10495234267682 122.02537253636144 L 75.02790871740447 121.619389213433 L 79.79125397563281 121.52488067813886 L 90.25026430615172 121.55943296703059 L 94.13373248442551 121.19120871817127 L 97.0157822607263 120.66548798560991 L 100.28127501154582 119.77311460804708 L 104.15896383056504 118.29535220895747 L 106.44872999823933 117.22091553084083 L 109.08071943648419 115.81924096945578 L 112.1877710955259 113.96330637106243 L 115.98039513792612 111.4518194626711 L 120.81352092172168 107.94539265196441 L 127.33632854745736 102.82327235427776 L 136.87740949656614 94.81504389737714 L 152.6493945580494 80.8487522462832 L 184.92474108954323 51.10175384997419 L 218.9724233684355 19.102495117666592 L 244.90285264383388 -5.5" stroke-linecap="round" stroke-linejoin="round" stroke-miterlimit="10" stroke-width="2.5" stroke-opacity="0.9" stroke-dasharray=""/></g><g><path fill="none" stroke="#6042a6" class="dcg-svg-curve" paint-order="fill stroke markers" d=" M -5.5 237.11742444522298 L -5.5 237.11742444522298 L 24.809774935125915 208.66580995178816 L 48.90269797296638 186.74294034603756 L 61.82852520664302 175.49817800961281 L 70.05557735145177 168.74643922320172 L 75.86571638110863 164.30578095018694 L 80.26973973182544 161.20966689136299 L 83.78432937174037 158.96403972182992 L 86.70118943442911 157.28996854640684 L 91.38740865634209 155.03907994476486 L 95.13121942893207 153.6893332953249 L 98.31449011260591 152.87558161746674 L 101.14360024308638 152.4004823917665 L 104.97966404540335 152.0775867601572 L 109.69109220346421 152.0327219616432 L 118.9715823495417 152.07912455707734 L 122.8076461518587 151.75622892546806 L 125.63675628233918 151.2811296997678 L 128.82002696601302 150.46737802190964 L 132.56383773860296 149.1176313724697 L 134.75368896673385 148.13873452502733 L 137.25005696051596 146.86674277082773 L 140.1669170232047 145.19267159540465 L 143.68150666311965 142.94704442587158 L 148.08553001383643 139.85093036704762 L 153.89566904349329 135.41027209403285 L 162.12272118830205 128.65853330762172 L 175.0485484219787 117.41377097119701 L 199.14147145981914 95.49090136544636 L 262.79645980627413 35.73832342998443 L 306.1731167339035 -5.5" stroke-linecap="round" stroke-linejoin="round" stroke-miterlimit="10" stroke-width="2.5" stroke-opacity="0.9" stroke-dasharray=""/></g><g><path fill="none" stroke="#6042a6" class="dcg-svg-curve" paint-order="fill stroke markers" d=" M -5.5 294.99640379741027 L -5.5 294.99640379741027 L 4.978823026509531 285.054216199568 L 39.02650530540183 253.05495746726035 L 71.30185183689565 223.30795907095134 L 87.07383689837891 209.34166741985743 L 96.6149178474877 201.3334389629568 L 103.13772547322354 196.21131866527003 L 107.97085125701919 192.70489185456327 L 111.76347529941927 190.19340494617205 L 114.87052695846113 188.33747034777863 L 119.7922825643801 185.86135910827707 L 123.6699713833994 184.38359670918743 L 126.9354641342189 183.4912233316246 L 129.81751391051966 182.96550259906326 L 133.70098208879338 182.59727835020396 L 138.44047189552936 182.52558067589467 L 147.69679202850992 182.59509491978932 L 151.488939505304 182.31419259091803 L 154.26899458092953 181.88600038088484 L 157.3765119252699 181.14468492974115 L 160.9982657244051 179.91165058208273 L 163.098008357709 179.01891662410821 L 165.47328620140945 177.8627126839031 L 168.22246295594783 176.34898224371727 L 171.49585586403126 174.33399020266117 L 175.5354776724625 171.5863211492237 L 180.75781788413522 167.70772296249172 L 187.94602671084354 161.94933827469623 L 198.76784658384926 152.71645231926556 L 217.51708630757636 135.9032750312018 L 259.64085955488247 96.7390961297943 L 310.5434455648602 48.62298184157916 L 367.37422169081947 -5.5" stroke-linecap="round" stroke-linejoin="round" stroke-miterlimit="10" stroke-width="2.5" stroke-opacity="0.9" stroke-dasharray=""/></g><g><path fill="none" stroke="#6042a6" class="dcg-svg-curve" paint-order="fill stroke markers" d=" M -5.5 353.12058998201576 L -5.5 353.12058998201576 L 46.00927735664396 304.3613003097102 L 91.80146166727188 261.6893439584553 L 111.5607494864787 243.910346899535 L 122.7980911557827 234.28013415552587 L 130.19655155762956 228.32070445905083 L 135.53973922751857 224.32655052311702 L 139.6551022083065 221.5064568771702 L 142.97903162775836 219.4431412344478 L 145.76355738996386 217.89560966079338 L 150.28338618098041 215.80382553007746 L 153.93119919084182 214.54587306114843 L 157.05495376782156 213.7890313787517 L 159.8455452756271 213.3507641093633 L 163.6471216362105 213.06084577182708 L 168.3386310991656 213.03502746191984 L 176.42558367855605 213.1076401599736 L 180.17708048664267 212.8656084747003 L 182.9116556445561 212.48090469249544 L 185.94928387310978 211.806418029106 L 189.45950404169872 210.6800334399879 L 193.7444724844209 208.81282551389842 L 196.34508543964992 207.44115351157186 L 199.40791347315172 205.6275060597774 L 203.13546935324075 203.17823808719183 L 207.86731195693125 199.76865943474468 L 214.21991894660056 194.80928697061267 L 223.44176047795577 187.10631896881605 L 238.50308018426733 173.81957382007124 L 268.6276366507416 146.12918597236308 L 299.42846144331986 117.23461024225084 L 364.04631862174233 56.00379367755494 L 405.5 16.46786109845128" stroke-linecap="round" stroke-linejoin="round" stroke-miterlimit="10" stroke-width="2.5" stroke-opacity="0.9" stroke-dasharray=""/></g><g><path fill="none" stroke="#6042a6" class="dcg-svg-curve" paint-order="fill stroke markers" d=" M 0.6975233025467205 405.5 L 0.6975233025467205 405.5 L 38.65997202784715 369.3721427230577 L 109.42502736717017 302.82083579185917 L 135.02509982946185 279.4568123259264 L 148.5059892066091 267.6812930932538 L 156.99700716074227 260.6771471208715 L 162.9529414732765 256.09707769770375 L 167.4458403901807 252.91597978578014 L 171.01853216609058 250.6147946760618 L 173.97540519886098 248.90246263190528 L 178.71152311586602 246.60386031596056 L 182.48389022051177 245.22680776870635 L 185.6847747033034 244.39621357067114 L 188.5252529302753 243.91024403849983 L 192.371497454363 243.57761348197778 L 197.08889124248898 243.52704427840797 L 206.3636062385968 243.57896913960874 L 210.18966001047806 243.26564521586658 L 213.007592101964 242.801234561442 L 216.17356539545244 242.0040228498488 L 219.8893978246805 240.68102941869188 L 222.05851099312434 239.72196254582656 L 224.52690757422923 238.47671738270853 L 227.40485372058095 236.83985614800795 L 230.86313856270823 234.64806828290085 L 235.18143947529467 231.63392301934803 L 240.85185731213133 227.3268677807207 L 248.82828619832122 220.81477787765874 L 261.23480135782 210.06658780420855 L 283.95507260893703 189.4562638485632 L 341.5565025521455 135.4921690715329 L 405.5 74.76839498516867" stroke-linecap="round" stroke-linejoin="round" stroke-miterlimit="10" stroke-width="2.5" stroke-opacity="0.9" stroke-dasharray=""/></g><g><path fill="none" stroke="#6042a6" class="dcg-svg-curve" paint-order="fill stroke markers" d=" M 61.9504778393691 405.5 L 61.9504778393691 405.5 L 84.53951520846933 384.04247151095296 L 122.38839572290334 348.408462685792 L 157.0639707189261 316.3663378336347 L 173.6013675693231 301.66815050164405 L 183.48018747495416 293.336972114876 L 190.18111630719932 288.0445302417857 L 195.11946851349768 284.43748469844195 L 198.9793410937081 281.8616939537591 L 202.13191910970647 279.96222652179017 L 207.10945040178416 277.43278192057426 L 211.01850694834025 275.9250253345172 L 214.30313466504862 275.0143548793668 L 217.19745759621037 274.47689841296415 L 221.0919107990283 274.0981701554981 L 225.83799769586145 274.02016426668445 L 235.08963462291928 274.0941566467108 L 238.87251302814474 273.82211751219484 L 241.64220659510744 273.40383309760966 L 244.73377356248062 272.6777695829791 L 248.32998273019203 271.4691613098599 L 250.41098606872814 270.5943460841316 L 252.76122834393166 269.46208144655685 L 255.47598987850574 267.9812592411458 L 258.7003412979442 266.01316124358874 L 262.6667736743447 263.3354767787955 L 267.773003181457 259.56790500216664 L 274.76082857937547 254.0011292864026 L 285.19147790473653 245.14228517153654 L 303.00975839061266 229.219301966113 L 341.9033164522222 193.14389250492212 L 386.90385119119503 150.67138848799635 L 405.5 132.97811875484282" stroke-linecap="round" stroke-linejoin="round" stroke-miterlimit="10" stroke-width="2.5" stroke-opacity="0.9" stroke-dasharray=""/></g><g><path fill="none" stroke="#6042a6" class="dcg-svg-curve" paint-order="fill stroke markers" d=" M 123.30692117690587 405.5 L 123.30692117690587 405.5 L 127.04707828965417 401.937127003236 L 177.03081070122107 355.2571634645012 L 197.8885462706204 336.427817853728 L 209.5678356322283 326.37500957112843 L 217.18707617833212 320.2044673253696 L 222.65610933855365 316.08997846362365 L 226.84988497689056 313.1949057198644 L 230.22590696911226 311.08177855141264 L 233.04674925158292 309.49952069745757 L 237.61245194619067 307.36387140502006 L 241.2868519819241 306.08049611182116 L 244.42713686582286 305.3078479571266 L 247.22844293143038 304.85933530258535 L 251.03961029755482 304.560245933674 L 255.73661106877287 304.52917677075106 L 263.81917865862215 304.60598244695393 L 267.56210122873904 304.3721495480436 L 270.28706755074353 303.9966338468195 L 273.30996872798517 303.33622936168206 L 276.7968157182792 302.23219447829183 L 281.0423105084786 300.4027317191949 L 283.6123455358494 299.0602986881703 L 286.6322037757486 297.2877394542505 L 290.2967789076057 294.898694407779 L 294.9310870764805 291.58237931961753 L 301.1209505497093 286.77862410426843 L 310.0407207081533 279.3645002728366 L 324.44098970287166 266.7098595255087 L 352.63037865175085 240.8699014313709 L 405.5 191.0153247713352" stroke-linecap="round" stroke-linejoin="round" stroke-miterlimit="10" stroke-width="2.5" stroke-opacity="0.9" stroke-dasharray=""/></g><g><path fill="none" stroke="#6042a6" class="dcg-svg-curve" paint-order="fill stroke markers" d=" M 184.99589161875002 405.5 L 184.99589161875002 405.5 L 193.81848031709774 397.18794888396565 L 221.07860017607555 372.23656873328326 L 235.15368190810602 359.8928758397658 L 243.92297565577746 352.62263930758456 L 250.03113698903252 347.89700863151336 L 254.6162209641115 344.62776229164734 L 258.2488891991958 342.269226992056 L 261.2469156727007 340.51754354782446 L 266.0341599024864 338.1700536552233 L 269.8356766827104 336.76512784815736 L 273.05449844249927 335.91738181662356 L 275.9065384127182 335.4203568106946 L 279.7631369163496 335.0778256581563 L 284.4866338098209 335.0214205940642 L 293.7558171830529 335.0786348575836 L 297.5720291087335 334.7747218219812 L 300.37896971959196 334.32082134954555 L 303.52795516235426 333.53985361897566 L 307.2163723840463 332.2430749290562 L 309.3652127864857 331.30339311152113 L 311.80632499121543 330.0842375873584 L 314.6464167279141 328.48357318073033 L 318.05012104846986 326.3439758470181 L 322.28570543621976 323.40892508938157 L 327.82214310707724 319.2299832483087 L 335.56040453057676 312.94563185123525 L 347.4803366949606 302.6627181135832 L 368.9467649940019 283.25133341447776 L 405.5 249.07653962478497" stroke-linecap="round" stroke-linejoin="round" stroke-miterlimit="10" stroke-width="2.5" stroke-opacity="0.9" stroke-dasharray=""/></g><g><path fill="none" stroke="#6042a6" class="dcg-svg-curve" paint-order="fill stroke markers" d=" M 247.2332182948297 405.5 L 247.2332182948297 405.5 L 260.08967449399665 394.03213978714973 L 270.3261966619762 385.3589223246166 L 277.21366741772806 379.88810688830426 L 282.26139660161454 376.17647380313565 L 286.1907963046868 373.5342004125556 L 289.3902547243026 371.58990539179956 L 294.4249836865041 369.00576771121473 L 298.3660775345585 367.46737668375783 L 301.6701983231057 366.5380667259334 L 304.57700547613365 365.9886727009569 L 308.4826293413311 365.59926292582054 L 313.2354567294286 365.5148117006338 L 322.48264929613754 365.5930538298682 L 326.2564161856028 365.32972723300566 L 329.0159200443393 364.9211863362868 L 332.091817443244 364.2101062458074 L 335.6629837434379 363.0254442547272 L 340.0514570199032 361.0592637992546 L 342.73270486000206 359.6104877794295 L 345.9094517474122 357.68790979069297 L 349.8051333385398 355.0778780520679 L 354.7997445121662 351.41703702791824 L 361.5964453480533 346.03301684778893 L 371.6584013018694 337.5267216355103 L 388.61670377994926 322.4260594325701 L 405.5 306.80451340941454" stroke-linecap="round" stroke-linejoin="round" stroke-miterlimit="10" stroke-width="2.5" stroke-opacity="0.9" stroke-dasharray=""/></g><g><path fill="none" stroke="#6042a6" class="dcg-svg-curve" paint-order="fill stroke markers" d=" M 313.1597987907918 405.5 L 313.1597987907918 405.5 L 314.0395769233578 404.8882224660499 L 317.4693117457025 402.7237344628878 L 320.3274733289616 401.10579145819844 L 324.9401489273838 398.9252261272064 L 328.6416774770388 397.61591023254834 L 331.79879213796005 396.82716924874967 L 334.6109941704327 396.3682377435932 L 338.43191702780206 396.05982006015824 L 343.1345424322104 396.0233725573687 L 351.2129314990341 396.1041737860302 L 354.94742781888385 395.87839816591537 L 357.6629439183429 395.5119188777237 L 360.6713735164433 394.86535228536843 L 364.1352960061947 393.7832380768057 L 368.3421936391078 391.9906823697321 L 370.8824227633932 390.6767500909162 L 373.86051842260554 388.9441247237993 L 377.46411217361356 386.6133907850282 L 382.00445203067926 383.3869292927353 L 388.03859915986425 378.7320718619533 L 396.6722526287316 371.5915361465743 L 405.5 363.8644515909514" stroke-linecap="round" stroke-linejoin="round" stroke-miterlimit="10" stroke-width="2.5" stroke-opacity="0.9" stroke-dasharray=""/></g></g></g><g id="labels-3b1a62fa"/></g></svg>