<?xml-stylesheet type="text/css" href="svg.css" ?>
<svg xmlns="http://www.w3.org/2000/svg" viewbox = "0 0 1200 801">
  <path fill="none" stroke="#2d70b3" stroke-linecap="round" stroke-linejoin="round" stroke-miterlimit="10" stroke-opacity=".9" stroke-width="7" d="M0 390.8h0l3.6 2.8 7 6.8 4.6 4 3.2 2 2.6.8 2.4.2 2.4-.4 2.4-.8 2.8-2 4-3.4 11-10 3.2-1.8 2.6-.6h2.4l2.4.4 2.6 1.4 3.2 2.2 4.6 4.4 7.8 7 3.4 2.4 2.6 1 2.4.2 2.4-.2 2.2-.8 3-2 4-3 12.4-11.2 3-1.4 2.4-.4h2.2l2.4.6 2.6 1.4 3.2 2.4 5.4 5 6.6 6 3.6 2.4 2.6 1 2.2.2 2.4-.2 2.4-1 3-1.8 3.8-3.2 12.2-11 3-1.4 2.4-.4h2.4l2.2.6 2.6 1.2 3.4 2.4 4.8 4.8 7.2 6.4 3.4 2.4 2.6 1 2.4.2 2.4-.2 2.4-.8 2.8-1.8 4-3.2 12.4-11.2 3-1.4 2.4-.4h2.2l2.4.6 2.6 1.4 3.2 2.4 5.4 5 6.6 6 3.6 2.4 2.6 1 2.2.2 2.6-.2 2.2-1 3-1.6 3.8-3.2 12.2-11.2 3-1.4 2.4-.4h2.4l2.2.6 2.6 1.2 3.4 2.4 4.8 4.6 7.2 6.6 3.4 2.4 2.6 1 2.6.2 2-.2 2.6-.8 2.8-1.8 4-3.2 12.4-11.2 3-1.4 2.4-.4h2.2l2.4.6 2.6 1.4 3.2 2.4 5.4 5 6.6 6 3.6 2.4 2.6 1 2.4.2 2.4-.2 2.2-1 3-1.6 3.8-3.2 12.4-11.2 2.8-1.4 2.4-.4h2.4l2.2.6 2.8 1.2 3.2 2.4 5 4.6 7 6.6 3.4 2.4 2.6 1 2.6.2 2-.2 2.6-.8 2.6-1.6 3.4-2.8 8-7.6 4.4-3.6 3.2-1.8 2.6-.6h2.4l2.4.4 2.6 1.4 3.2 2.2 5 4.6 7.2 7 3.6 2 2.6 1.2 2.4.2 2.4-.2 2.2-.8 3-2 4-3 12.4-11.2 3-1.4 2.2-.4h2.4l2.4.6 2.6 1.4 3.2 2.4 5.4 5 6.4 6 3.4 2.2 2.8 1.2 2.2.2 2.4-.2 2.4-.8 2.6-1.6 3.4-2.8 7.8-7.4 4.2-3.6 3.4-2 2.6-.6h2.2l2.4.4 2.6 1.2 3.4 2 4.6 4.4 8.2 7.8 3.6 2 2.6 1 2.2.2 2.4-.4 2.4-.8 3-2 3.8-3 12-10.8 2.8-1.6 2.4-.4h2.4l2.2.6 2.8 1.2 3.2 2.4 5 4.6 7.2 6.8 3.6 2.2 2.6 1 2.2.2 2.4-.2 2.4-1 3-1.8 3.8-3 12.2-11.2 3-1.4 2.4-.4h2.2l2.4.6 2.6 1.2 3.2 2.4 5 4.8 7.2 6.4 3.4 2.4 2.6 1 2.4.2 2.4-.2 2.2-.8 3-1.8 4-3.2 12.4-11.2 3-1.4 2.4-.4h2.2l2.4.6 2.6 1.4 3.2 2.4 5.4 5 6.6 6 3.6 2.4 2.6 1 2.2.2 2.6-.2 2.2-1 3-1.6 3.8-3.2 12.2-11.2 3-1.4 2.4-.4h2.4l2.2.6 2.6 1.2 3.4 2.4 4.8 4.6 7.2 6.6 3.4 2.4 2.6 1 2.6.2 2-.2 2.6-.8 2.8-1.8 4-3.2 12.4-11.2 3-1.4 2.4-.4h2.2l2.4.6 2.6 1.4 3.2 2.4 5.4 4.8 6.6 6.4 3.6 2 2.6 1.2 2.4.2 2.4-.2 2.2-1 3-1.6 3.8-3.2 12.2-11.2 3-1.4 2.4-.4h2.4l2.2.6 2.6 1.2 3.4 2.4 4.8 4.6 7.2 6.6 3.4 2.2 2.6 1.2 2.6.2 2-.2 2.6-.8 2.6-1.6 3.4-2.8 7.6-7.4 4.4-3.6 3.2-2 2.8-.6h2.2l2.4.4 2.6 1.2 3.2 2.2 4.8 4.2 8 7.8 3.6 2 2.8 1 2.2.2 2.4-.4 2.4-.8 2.8-2 4-3 11.6-10.6 3-1.6 2.2-.6h2.4l2.4.4 2.6 1.2 3.2 2.4 4.8 4.2 8 7.4 3.4 2.2 2.6 1 2.2.2 2-.2 2.6-.8 2.6-1.6 3.4-2.8 7.4-7 4.6-4 3.4-2 2.6-.6h2.2l2.4.4 2.6 1.2 3.2 2 4.8 4.4 8 7.8 3.8 2 2.6 1 2.2.2 2.4-.4 2.4-.8 2.8-2 4-3 12-10.8 2.8-1.6 2.4-.4h2.4l1.4.2" class="dcg-svg-curve" paint-order="fill stroke markers"/>
  <path fill="none" stroke="#388c46" stroke-linecap="round" stroke-linejoin="round" stroke-miterlimit="10" stroke-opacity=".9" stroke-width="7" d="M218.8 398h0l1.4-.4 1.6-.8 1.4-1.4.6-2 .4-2-.4-2.2-1-2.4-1.6-2-2.4-2-2.8-1.4-2.8-.8-3-.2-3.2.2-3 .8-3.2 1.4-3.2 2-3 2.8-2.8 3.4-2 3.6-1.4 4-.8 4-.4 4.2.2 4.4 1 4.4 1.4 4.4 2.2 4 2.8 4 3.4 4 4 3.6 4.6 2.8 4.8 2.2 4.8 1.6 5 1 5 .6h4.8l4.8-.6 5-1.2 4.8-1.6 5-2.4 5-2.8 4.8-4 4.6-4.4 4-5 3.2-5.2 2.6-5.2 2-5.6 1.6-6 .8-5.6.2-6v-5.8l-1-6-1.4-5.8-2-6-2.6-5.6-3.2-5.4-4-5.2-4.4-5.2-5.2-4.8-5.6-4.4-6-3.4-6-3-6-2.2-6.4-1.8-6-1.2-6.4-.6h-6.2l-6.4.4-6.2 1-6.4 1.4-6 2-6.2 2.6-6.4 3.4-6 4-6 4.6-5.6 5.4-5.2 6-4.6 6-4 6.6-3 6.4-2.6 6.8-2 7-1.6 7.2-.8 7.4-.4 7.4.4 7.6 1 7.4 1.6 7.6 2 7.4 3 7.2 3.4 7 4 6.8 4.8 6.6 5.2 6 6.2 6.2 6.8 5.6 6.8 4.8 7.2 4 6.8 3.4 7.4 2.8 7.4 2.2 7 1.6 7.2 1.2 7.4.6h7.4l7.4-.4 7.4-1 7.2-1.4 7.4-2 7.2-2.6 7-3 7.4-3.8 7.2-4.4 6.8-5 7-6 6.6-6.8 6-7.2 5-7 4.6-7.6 4-8 3.4-8 2.4-8 2-8 1.6-8 .8-8.4.4-8.2-.4-8.4-.8-8.6-1.4-8.4-2-8.2-2.6-8.2-3.2-8-4-8-4-7.4-5-7.4-6-7.6-6.4-7.2-7.2-6.8-7.6-6-8-5.8-8-4.6-8-4-8.4-3.6-8-2.6-8-2.4-8.4-1.6-8.4-1.2-8.4-.6h-8.6l-8.6.2-8.6 1-8.6 1.6-8.4 2-8.4 2.6-8.2 3.2-8 3.6-8 4.2-8.2 5.2-8 5.8-7.6 6.4-7.8 7.4-6.6 7.4-6 8L90 329l-5 8.8-4 8.2-3.6 8.6-3 8.8-2.4 9.2-2 9.2-1.2 9.2-.8 9.4v9.6l.4 9.6 1 9.4 1.8 9.6 2.2 9.4 3 9.2 3.4 9 4 9 4.6 8.6 5.2 8.4 5.8 8 6.2 7.8 7.4 8 8 7.6 8.6 7 9.2 6.4 8.6 5.2 9 4.8 9.2 4 9.6 3.8 8.8 2.6 9 2.4 9.2 1.6 9.2 1.2 9.4.8h9.4l9.4-.2 9.4-1 9.4-1.4 9.4-2 9.2-2.6 9-3 9-3.6 8.8-4 9.4-5.2 9.2-5.6 8.8-6.4 8.4-6.8 8.6-8.2 7.6-8 7-8.6 6.4-8.8 6-9.4 5.2-9.8 4.4-9 3.6-9.4 3.4-9.4 2.6-10 2-9.8 1.8-10 1-10 .4-10.4v-10.2l-.8-10.4-1.4-10-2-10.4-2.2-10-3.2-10-3.6-9.8-4-9.6-4.8-9.4-5.4-9.2-5.8-8.8-6.2-8.4-7.6-9.2-8-8.6-8.8-8-9.4-7.6-9.6-7-9.2-5.8-9.4-5.2-10-4.6-10-4.2-10.2-3.6-10.6-3-9.4-2.2-9.8-1.8-9.6-1.2-10-.6-9.8-.4-9.8.4-10 .8-9.8 1.2-9.8 1.8-9.4 2.2-9.6 2.8-9.6 3.2-10.4 4.2L120 223l-10 5.4-9.6 6L91 241l-9 7-9.6 8.6-9 9-7.6 8.8-7.2 9L42 293l-6.2 10-5.6 10-5 10.8-4.4 10.8-3.6 11.2-3.2 11.4-2.2 10.2-2 10.4-1 10.6L8 399v10.6l.4 10.6.8 10.6 1.6 10.6 2 10.6 2.4 10.4 3.2 10.4 3.4 10 4.2 10 5.2 11.2 6 10.6 6.4 10.4 7 10 7.6 9.8 8.2 9.2 8.8 8.8 9.2 8.2 9.8 8 10 7 10.6 6.8 11 6 10 4.8 10.4 4.4 10.4 4 10.8 3.2 11 2.8 11 2.2 11.2 1.8 11.2 1 11.4.6h11.4l11.4-.6 11.4-1.2 11.2-1.6 11.2-2.4L291 615l11-3.6 10.8-4 10.8-4.6 10.4-5 10-5.6 10-6 10.8-7.6 10.4-8.2 10-8.8 9.2-9.2 9-10 8.2-10.2 8-10.8 6.2-10 6-10.4 5.2-10.6 4.8-10.8 4.4-11.2L450 457l3-11.6 2.6-11.8 2-12 1.4-12 .8-12 .2-12-.4-12.2-1-12-1.8-12.2-2.2-12-2.8-12-3.6-11.8-4-11.6-4.8-11.4-5.2-11.2-5.8-10.8-6.4-10.6-6.8-10.4-7.4-10-8-9.6-8.4-9.2-10-10-10.6-9.2-11.2-8.8-10.4-7.2-10.6-6.6-11-6-11.4-5.8-11.6-5-12-4.6-12-3.8-11-2.8-10.8-2.4-11.2-2-11-1.4-11.2-1-11.2-.4h-11.4l-11.2.6-11.4 1-11.2 1.6-11.2 2-11 2.4-11 3-10.8 3.6-10.8 4-12 5-12 6-11.4 6-11.2 7-10.8 7.6-10.4 8-10 8.6-11 10.2-9 9.6L7.6 238l-8 10.6-7.8 11-4.6 7.4v281.4l6.6 10.6 8 11.4 8.6 11 9.2 10.6 9.6 10 10.4 9.8 10.6 9.2 11.2 8.6 11.6 8 12 7.4 12.4 6.8 11 5.6 11.4 5 11.6 4.4 12 4 12 3.6 12 2.8 12.2 2.4 12.4 2 12.6 1.2 12.6.8 12.6.2 12.6-.2 12.6-1 12.6-1.4 12.4-2 12.4-2.6 12.4-3 12-3.6 12-4.2 12-4.8 11.8-5.2L364 650l11.2-6.2 12.4-8 12-8.2 11.6-9 11.2-9.6 10.8-10 10-10.8 10-11.4 9-11.6 8.4-12.2 8-12.6L485 529l6-11.6 5.2-12 5-12 4.2-12.4 4-12.6 3.2-12.8 2.6-13 2-13 1.6-13 1-13.2.4-13.4-.2-13.2-.8-13.2-1.4-13.2-2-13.2-2.4-13.2-3.2-13-3.6-12.8-4.4-12.8-4.8-12.4-5.4-12.4-6-12-6.4-12-6.8-11.4-7.6-11.2-8-11-9.6-12-10.4-11.6-11-11-11.4-10.6-12-10-12.6-9.2-13-8.6-11.6-7.2-12-6.6-12.4-6-12.6-5.4-12.8-5-13.2-4.4-13.2-3.8-13.4-3.2-14-2.4-13.8-2-13.8-1.4-12-.8-12-.2h-11.8l-12 .8-12 1-11.8 1.6-13.6 2.2-13.8 3-13.6 3.6-13.4 4-13.2 4.8-13 5.4-12.8 6-12.6 6.4-12.4 7-12 7.6-11.6 8-10.8 8.6-12.4 10.6-10.4 9.6v473.4l2.6 2.8 12.6 11.6 13.2 10.8 12 9.2 12.2 8.4 12.8 8 13 7.4 13.4 6.8 13.8 6.2 14 5.6 14.2 5.2 12.4 3.8 12.6 3 12.6 3 12.8 2.4 12.8 2 13 1.2 13 1 13 .4h13.2l13-.6 13-1 13.2-1.6 12.8-2 13-2.4 12.8-3 12.6-3.6 12.6-4 12.4-4.4 12.4-4.8 14-6.4 13.8-7 13.4-7.4 13.2-8.2 12.8-8.8 12.4-9.2 12-10 11.6-10.2 11.2-11 10.6-11.4 10.2-11.8L509 603l9.2-12.8 8.6-13.2 8-13.4 7.2-14 6.8-14 6-14.6 5.6-14.8 5-15 4-15.2 3.2-13.2 2.6-13.4 2-13.4 1.6-13.4 1-13.6.4-11.4" class="dcg-svg-curve" paint-order="fill stroke markers"/>
  <path fill="none" stroke="#c74440" stroke-linecap="round" stroke-linejoin="round" stroke-miterlimit="10" stroke-opacity=".9" stroke-width="7" d="M131.4 813h0l1.4-13 7-60.8 7-56 6.8-48.6 6-40.4L166 558l6-31 5.4-26.4 5.4-22 5-18.2 4.6-15 4.4-12 4-9.4 4-8 4.2-6.6 4-5.2 5.4-5.6 7-7.6 4.2-5.6 3.8-6.2 4-7.6 4-9.6 4-11.2 4.4-14 4.6-16.8 5-20.4 5-22.8 5.4-27.2 5.4-31.6 6-36.6 6-42.4 6.6-48.6 6.6-55.4 5.4-47.8" class="dcg-svg-curve" paint-order="fill stroke markers"/>
</svg>
