<?xml version="1.0" encoding="utf-8"?>
<?xml-stylesheet type="text/css" href="svg.css" ?>
<svg viewBox="114.833 172.847 293.062 163.875" xmlns="http://www.w3.org/2000/svg">
  <rect x="115.132" y="172.997" width="291.268" height="160.885" style="stroke: rgb(0, 0, 0); fill: rgb(190, 84, 84); stroke-width: 0px;" rx="39.473" ry="39.473"/>
  <path d="M 242.826 245.963 L 234.234 245.963 L 234.234 231.043 L 242.826 231.043 L 242.826 233.635 L 237.397 233.635 L 237.397 236.911 L 242.449 236.911 L 242.449 239.503 L 237.397 239.503 L 237.397 243.35 L 242.826 243.35 Z M 248.027 240.136 L 244.353 234.554 L 247.884 234.554 L 250.099 238.187 L 252.334 234.554 L 255.865 234.554 L 252.15 240.136 L 256.038 245.963 L 252.497 245.963 L 250.099 242.054 L 247.69 245.963 L 244.159 245.963 Z M 264.122 234.339 Q 266.051 234.339 267.24 235.84 Q 268.429 237.34 268.429 240.238 Q 268.429 242.177 267.867 243.498 Q 267.306 244.82 266.316 245.494 Q 265.326 246.167 264.04 246.167 Q 263.214 246.167 262.622 245.958 Q 262.03 245.749 261.612 245.417 Q 261.193 245.085 260.887 244.708 L 260.724 244.708 Q 260.805 245.116 260.846 245.545 Q 260.887 245.973 260.887 246.381 L 260.887 250.984 L 257.774 250.984 L 257.774 234.554 L 260.305 234.554 L 260.744 236.033 L 260.887 236.033 Q 261.193 235.574 261.632 235.186 Q 262.071 234.799 262.688 234.569 Q 263.306 234.339 264.122 234.339 Z M 263.122 236.829 Q 262.306 236.829 261.826 237.166 Q 261.346 237.503 261.127 238.177 Q 260.907 238.85 260.887 239.881 L 260.887 240.218 Q 260.887 241.32 261.096 242.085 Q 261.305 242.85 261.8 243.248 Q 262.295 243.646 263.163 243.646 Q 263.877 243.646 264.336 243.248 Q 264.796 242.85 265.025 242.08 Q 265.255 241.309 265.255 240.197 Q 265.255 238.523 264.734 237.676 Q 264.214 236.829 263.122 236.829 Z M 274.111 245.963 L 270.998 245.963 L 270.998 230.084 L 274.111 230.084 Z M 287.743 240.238 Q 287.743 241.667 287.361 242.769 Q 286.978 243.871 286.248 244.631 Q 285.519 245.392 284.493 245.779 Q 283.467 246.167 282.182 246.167 Q 280.977 246.167 279.972 245.779 Q 278.967 245.392 278.227 244.631 Q 277.487 243.871 277.084 242.769 Q 276.681 241.667 276.681 240.238 Q 276.681 238.34 277.355 237.023 Q 278.028 235.707 279.273 235.023 Q 280.518 234.339 282.243 234.339 Q 283.845 234.339 285.085 235.023 Q 286.325 235.707 287.034 237.023 Q 287.743 238.34 287.743 240.238 Z M 279.855 240.238 Q 279.855 241.361 280.1 242.126 Q 280.345 242.891 280.865 243.279 Q 281.386 243.667 282.222 243.667 Q 283.049 243.667 283.564 243.279 Q 284.08 242.891 284.32 242.126 Q 284.559 241.361 284.559 240.238 Q 284.559 239.105 284.32 238.355 Q 284.08 237.605 283.559 237.227 Q 283.039 236.85 282.202 236.85 Q 280.967 236.85 280.411 237.697 Q 279.855 238.544 279.855 240.238 Z M 296.681 234.339 Q 296.916 234.339 297.227 234.365 Q 297.538 234.39 297.732 234.431 L 297.497 237.35 Q 297.344 237.299 297.064 237.273 Q 296.783 237.248 296.579 237.248 Q 295.977 237.248 295.41 237.401 Q 294.844 237.554 294.395 237.896 Q 293.946 238.238 293.686 238.794 Q 293.426 239.35 293.426 240.156 L 293.426 245.963 L 290.313 245.963 L 290.313 234.554 L 292.67 234.554 L 293.13 236.472 L 293.283 236.472 Q 293.619 235.891 294.125 235.406 Q 294.63 234.921 295.278 234.63 Q 295.926 234.339 296.681 234.339 Z M 304.505 234.339 Q 306.087 234.339 307.23 234.947 Q 308.373 235.554 308.996 236.707 Q 309.618 237.86 309.618 239.524 L 309.618 241.034 L 302.26 241.034 Q 302.311 242.35 303.051 243.1 Q 303.791 243.851 305.108 243.851 Q 306.199 243.851 307.108 243.626 Q 308.016 243.402 308.975 242.952 L 308.975 245.361 Q 308.128 245.779 307.205 245.973 Q 306.281 246.167 304.965 246.167 Q 303.25 246.167 301.929 245.534 Q 300.607 244.902 299.857 243.606 Q 299.107 242.31 299.107 240.34 Q 299.107 238.34 299.786 237.008 Q 300.464 235.676 301.679 235.008 Q 302.893 234.339 304.505 234.339 Z M 304.526 236.554 Q 303.618 236.554 303.021 237.136 Q 302.424 237.717 302.332 238.962 L 306.7 238.962 Q 306.689 238.268 306.449 237.727 Q 306.21 237.187 305.735 236.87 Q 305.261 236.554 304.526 236.554 Z" transform="matrix(2.666784, 0, 0, 3.004359, -462.645942, -461.564307)" style="fill: rgb(255, 255, 255);"/>
</svg>