<?xml-stylesheet type="text/css" href="svg.css" ?>
<svg version="1.1" xmlns="http://www.w3.org/2000/svg" xmlns:xlink="http://www.w3.org/1999/xlink" width="800" height="800" viewBox="0 0 800 800"><defs/><g transform="scale(2,2)"><g id="background-b1d40ca7"><rect fill="white" stroke="none" x="0" y="0" width="400" height="400" class="dcg-svg-background"/></g><g id="background-images-b1d40ca7"/><g id="graphpaper-b1d40ca7"><g id="axis-b1d40ca7"><g id="yaxis-b1d40ca7"><title>Y axis</title><g><path fill="none" stroke="rgb(0,0,0)" class="dcg-svg-axis-line" paint-order="fill stroke markers" d=" M 199 0 L 199 400" stroke-opacity="0.9" stroke-miterlimit="10" stroke-width="1.5" stroke-dasharray=""/></g></g><g id="xaxis-b1d40ca7"><title>X axis</title><g><path fill="none" stroke="rgb(0,0,0)" class="dcg-svg-axis-line" paint-order="fill stroke markers" d=" M 0 213 L 400 213" stroke-opacity="0.9" stroke-miterlimit="10" stroke-width="1.5" stroke-dasharray=""/></g></g><g><g class="dcg-svg-axis-value"><text fill="none" stroke="#ffffff" font-family="Arial" font-size="14px" font-style="normal" font-weight="normal" text-decoration="normal" x="189.72266718472605" y="228.32534675099544" text-anchor="middle" stroke-miterlimit="2" stroke-width="3" stroke-dasharray="">0</text><text fill="#000000" stroke="none" font-family="Arial" font-size="14px" font-style="normal" font-weight="normal" text-decoration="normal" x="189.72266718472605" y="228.32534675099544" text-anchor="middle">0</text></g><g><path fill="none" stroke="rgb(0,0,0)" class="dcg-svg-tickmark" paint-order="fill stroke markers" d=" M 47 210 L 47 216 M 350 210 L 350 216 M 196 364 L 202 364 M 196 61 L 202 61" stroke-opacity="0.9" stroke-miterlimit="2" stroke-width="1.5" stroke-dasharray=""/></g><g class="dcg-svg-axis-value"><text fill="none" stroke="#ffffff" font-family="Arial" font-size="14px" font-style="normal" font-weight="normal" text-decoration="normal" x="44.4759852030372" y="228.32534675099544" text-anchor="middle" stroke-miterlimit="2" stroke-width="3" stroke-dasharray="">-2</text><text fill="#000000" stroke="none" font-family="Arial" font-size="14px" font-style="normal" font-weight="normal" text-decoration="normal" x="44.4759852030372" y="228.32534675099544" text-anchor="middle">-2</text></g><g class="dcg-svg-axis-value"><text fill="none" stroke="#ffffff" font-family="Arial" font-size="14px" font-style="normal" font-weight="normal" text-decoration="normal" x="350.4244272914149" y="228.32534675099544" text-anchor="middle" stroke-miterlimit="2" stroke-width="3" stroke-dasharray="">2</text><text fill="#000000" stroke="none" font-family="Arial" font-size="14px" font-style="normal" font-weight="normal" text-decoration="normal" x="350.4244272914149" y="228.32534675099544" text-anchor="middle">2</text></g><g class="dcg-svg-axis-value"><text fill="none" stroke="#ffffff" font-family="Arial" font-size="14px" font-style="normal" font-weight="normal" text-decoration="normal" x="187.39161249722605" y="368.1340404514343" text-anchor="middle" stroke-miterlimit="2" stroke-width="3" stroke-dasharray="">-2</text><text fill="#000000" stroke="none" font-family="Arial" font-size="14px" font-style="normal" font-weight="normal" text-decoration="normal" x="187.39161249722605" y="368.1340404514343" text-anchor="middle">-2</text></g><g class="dcg-svg-axis-value"><text fill="none" stroke="#ffffff" font-family="Arial" font-size="14px" font-style="normal" font-weight="normal" text-decoration="normal" x="189.72266718472605" y="64.5166530505566" text-anchor="middle" stroke-miterlimit="2" stroke-width="3" stroke-dasharray="">2</text><text fill="#000000" stroke="none" font-family="Arial" font-size="14px" font-style="normal" font-weight="normal" text-decoration="normal" x="189.72266718472605" y="64.5166530505566" text-anchor="middle">2</text></g></g></g></g><g id="expressions-b1d40ca7"><g id="sketch-b1d40ca7"><title>Expression 3</title><path fill="#000000" stroke="none" paint-order="stroke fill markers" d="" fill-opacity="0.4"/><g><path fill="none" stroke="#000000" class="dcg-svg-curve" paint-order="fill stroke markers" d=" M 46.807039895089616 -4.5 L 46.807039895089616 -4.5 L 46.807039895089616 59.37499999999997 L 46.64885735439819 60.71135735439822 L -4.5 60.70895539005449" stroke-linecap="round" stroke-linejoin="round" stroke-miterlimit="10" stroke-width="1.5" stroke-opacity="0.3" stroke-dasharray=""/></g><g><path fill="none" stroke="#000000" class="dcg-svg-curve" paint-order="fill stroke markers" d=" M 74.7711420658168 60.708642065816804 L 74.7711420658168 60.708642065816804 L 122.6958549082956 60.664210953098774 L 122.71138674093135 59.37499999999997 L 122.71138674093135 -4.5" stroke-linecap="round" stroke-linejoin="round" stroke-miterlimit="10" stroke-width="1.5" stroke-opacity="0.3" stroke-dasharray=""/></g><g><path fill="none" stroke="#000000" class="dcg-svg-curve" paint-order="fill stroke markers" d=" M 198.6156700844153 -4.5 L 198.6156700844153 -4.5 L 198.61502721866125 60.67034296371847 L 197.36328125 60.708653083292205 L 122.96889741091663 60.7069060263361 L 122.71136571713323 61.18792821713322 L 122.63385039732998 136.61290856206804 L 122.55520846258639 136.6177084625864 L 46.9526995699608 136.60113706996077 L 46.80703989508967 136.71875 L 46.807039895089616 164.84375 L 46.80699613843365 212.28278862858937 L 45.3125 212.51734673113958 L -4.5 212.51734673113958" stroke-linecap="round" stroke-linejoin="round" stroke-miterlimit="10" stroke-width="1.5" stroke-opacity="0.3" stroke-dasharray=""/></g><g><path fill="none" stroke="#000000" class="dcg-svg-curve" paint-order="fill stroke markers" d=" M -4.5 136.60083751160332 L -4.5 136.60083751160332 L 46.80917838777515 136.50389881749754 L 46.807039895089616 134.08203125 L 46.80171562495846 60.82758125190912 L 58.04129681726735 60.70870318273262 L 74.7711420658168 60.708642065816804" stroke-linecap="round" stroke-linejoin="round" stroke-miterlimit="10" stroke-width="1.5" stroke-opacity="0.3" stroke-dasharray=""/></g><g><path fill="none" stroke="#000000" class="dcg-svg-curve" paint-order="fill stroke markers" d=" M 199.54458380523636 60.709322444763615 L 199.54458380523636 60.709322444763615 L 201.33343293016122 60.708432930161194 L 274.3750182342069 60.71057523046059 L 274.52119340020886 60.06806840020889 L 274.52008043899366 38.28124999999997 L 274.52008043899366 -4.5" stroke-linecap="round" stroke-linejoin="round" stroke-miterlimit="10" stroke-width="1.5" stroke-opacity="0.3" stroke-dasharray=""/></g><g><path fill="none" stroke="#000000" class="dcg-svg-curve" paint-order="fill stroke markers" d=" M 350.42378274258624 -4.5 L 350.42378274258624 -4.5 L 350.4172615971602 60.630389879860815 L 350.29296875 60.70865308329215 L 305.46875 60.70865308329223 L 274.70703125 60.70865308329226 L 274.5200804389938 61.1328125 L 274.52007153465297 91.707571534653 L 274.53490212489305 136.56375176023226 L 272.0703125 136.61299991339794 L 198.61573358643332 136.71875 L 198.61573358643332 140.234375 L 198.61573358643332 207.03125 L 198.4671175206384 212.52961752063837 L 198.3463341177477 212.51755500277693 L 122.81884016534514 212.51243856519872 L 122.71138674093136 213.623046875 L 122.65625 288.4216935661961 L 46.78876299106943 288.48798174106946 L 46.80737955549705 289.91137044450295 L 46.81110484355972 364.16542422369537 L 45.751953125 364.32604041696345 L -4.5 364.32604041696334" stroke-linecap="round" stroke-linejoin="round" stroke-miterlimit="10" stroke-width="1.5" stroke-opacity="0.3" stroke-dasharray=""/></g><g><path fill="none" stroke="#000000" class="dcg-svg-curve" paint-order="fill stroke markers" d=" M -4.5 288.422372129812 L -4.5 288.422372129812 L 46.757234194455776 288.4277750492953 L 46.806456671189466 287.188235815242 L 46.80703989508959 214.0625 L 47.04831476116081 212.51726114164833 L 73.43750000000001 212.5173467311396 L 122.65625 212.51734673113947 L 122.71135191835366 212.24958558164633 L 122.71135838388899 136.69633132819206 L 136.82448696300287 136.6130130369971 L 198.2421875 136.61299991339794 L 198.61805155802892 136.21570780802892 L 198.61573358643332 122.65624999999999 L 198.68468814719034 60.696406897190315 L 199.54458380523636 60.709322444763615" stroke-linecap="round" stroke-linejoin="round" stroke-miterlimit="10" stroke-width="1.5" stroke-opacity="0.3" stroke-dasharray=""/></g><g><path fill="none" stroke="#000000" class="dcg-svg-curve" paint-order="fill stroke markers" d=" M 404.5 136.6242498161389 L 404.5 136.6242498161389 L 350.42442729382833 136.71875 L 350.4244272938281 192.96875 L 350.4441549277873 212.4558736777873 L 350.0814246617487 212.5162315882513 L 325.01735472943733 212.5173547294373 L 274.70703125 212.5173467311395 L 274.51860086896903 212.99516336896903 L 274.52013928218565 223.91736071781432 L 274.52008043899366 284.375 L 274.4198089421958 288.4277174485542 L 273.9518091960471 288.42195264356786 L 198.71782468789903 288.4215534096942 L 198.6157335864333 290.52734375 L 198.61630756533097 364.02201464375753 L 198.2421875 364.32604041696334 L 122.71130604027911 364.4105247902791 L 122.71137557514103 404.5" stroke-linecap="round" stroke-linejoin="round" stroke-miterlimit="10" stroke-width="1.5" stroke-opacity="0.3" stroke-dasharray=""/></g><g><path fill="none" stroke="#000000" class="dcg-svg-curve" paint-order="fill stroke markers" d=" M 46.80703989508957 404.5 L 46.80703989508957 404.5 L 46.807039895089275 364.35546875 L 47.07031249999997 364.32604041696345 L 122.65625 364.3260404169632 L 122.71137504391952 363.4214374560804 L 122.71138674093135 288.76953125 L 123.18528370433252 288.4196587043325 L 143.75 288.42169356619615 L 198.2421875 288.42169356619615 L 198.61973701843382 288.26817451843385 L 198.61582038445223 282.9908203844522 L 198.61387711777073 212.67637711777073 L 200 212.51734673113958 L 274.2736829298625 212.5175022718994 L 274.52008043899366 212.3046875 L 274.5201030292829 190.14510302928286 L 274.5847301822911 136.59644893229103 L 275.5859375 136.61299991339797 L 349.4140625 136.61299991339794 L 350.29296875 136.612999913398 L 350.42555441450884 135.97242941450884 L 350.4244870358981 125.42448703589811 L 350.4244272938282 61.1328125 L 350.7451643900662 60.70610189006612 L 370.08362937976733 60.7086293797673 L 404.5 60.70864934823753" stroke-linecap="round" stroke-linejoin="round" stroke-miterlimit="10" stroke-width="1.5" stroke-opacity="0.3" stroke-dasharray=""/></g><g><path fill="none" stroke="#000000" class="dcg-svg-curve" paint-order="fill stroke markers" d=" M 302.48418142932434 288.4216814293243 L 302.48418142932434 288.4216814293243 L 350.21793168882823 288.4201049729399 L 350.4244272938281 287.890625 L 350.48207487980665 212.49379362980665 L 350.5676422310109 212.51417297268088 L 375.78125 212.51734673113958 L 404.5 212.5173467311396" stroke-linecap="round" stroke-linejoin="round" stroke-miterlimit="10" stroke-width="1.5" stroke-opacity="0.3" stroke-dasharray=""/></g><g><path fill="none" stroke="#000000" class="dcg-svg-curve" paint-order="fill stroke markers" d=" M 404.5 288.42169356619615 L 404.5 288.42169356619615 L 351.171875 288.42169356619615 L 350.4242758424293 288.6869805831613 L 350.42443982332924 316.76306017667076 L 350.4244272938281 361.71875 L 350.26673436729595 364.32923436729595 L 274.520080438994 364.35546875 L 274.52008043899366 368.75 L 274.52008043899366 404.5" stroke-linecap="round" stroke-linejoin="round" stroke-miterlimit="10" stroke-width="1.5" stroke-opacity="0.3" stroke-dasharray=""/></g><g><path fill="none" stroke="#000000" class="dcg-svg-curve" paint-order="fill stroke markers" d=" M 198.62678170354596 404.5 L 198.62678170354596 404.5 L 198.6957151887354 364.33394216569616 L 203.5547392010424 364.32613309921817 L 274.52645256487494 364.2178555338012 L 274.5209220230598 364.0626911803016 L 274.51998232375934 295.6137323237593 L 274.51989523705464 288.58239523705464 L 277.34375 288.42169356619615 L 302.48418142932434 288.4216814293243" stroke-linecap="round" stroke-linejoin="round" stroke-miterlimit="10" stroke-width="1.5" stroke-opacity="0.3" stroke-dasharray=""/></g><g><path fill="none" stroke="#000000" class="dcg-svg-curve" paint-order="fill stroke markers" d=" M 356.50413711733205 364.32605644133395 L 356.50413711733205 364.32605644133395 L 404.5 364.3260423120674" stroke-linecap="round" stroke-linejoin="round" stroke-miterlimit="10" stroke-width="1.5" stroke-opacity="0.3" stroke-dasharray=""/></g><g><path fill="none" stroke="#000000" class="dcg-svg-curve" paint-order="fill stroke markers" d=" M 350.42441178712335 404.5 L 350.42441178712335 404.5 L 350.4243152725661 364.43265668562685 L 356.50413711733205 364.32605644133395" stroke-linecap="round" stroke-linejoin="round" stroke-miterlimit="10" stroke-width="1.5" stroke-opacity="0.3" stroke-dasharray=""/></g></g><g id="sketch-b1d40ca7"><title>Expression 4</title><path fill="#2d70b3" stroke="none" paint-order="stroke fill markers" d="" fill-opacity="0.4"/><g><path fill="none" stroke="#2d70b3" class="dcg-svg-curve" paint-order="fill stroke markers" d=" M 46.807039895089616 -5 L 46.807039895089616 -5 L 46.807039895089616 59.37499999999997 L 46.64885735439819 60.71135735439822 L -5 60.70893190991761" stroke-linecap="round" stroke-linejoin="round" stroke-miterlimit="10" stroke-width="2" stroke-opacity="0.9" stroke-dasharray=""/></g><g><path fill="none" stroke="#2d70b3" class="dcg-svg-curve" paint-order="fill stroke markers" d=" M 74.7711420658168 60.708642065816804 L 74.7711420658168 60.708642065816804 L 122.6958549082956 60.664210953098774 L 122.71138674093135 59.37499999999997 L 122.71138674093135 -5" stroke-linecap="round" stroke-linejoin="round" stroke-miterlimit="10" stroke-width="2" stroke-opacity="0.9" stroke-dasharray=""/></g><g><path fill="none" stroke="#2d70b3" class="dcg-svg-curve" paint-order="fill stroke markers" d=" M 198.6156750166109 -5 L 198.6156750166109 -5 L 198.61502721866125 60.67034296371847 L 197.36328125 60.708653083292205 L 122.96889741091663 60.7069060263361 L 122.71136571713323 61.18792821713322 L 122.63385039732998 136.61290856206804 L 122.55520846258639 136.6177084625864 L 46.9526995699608 136.60113706996077 L 46.80703989508967 136.71875 L 46.807039895089616 164.84375 L 46.80699613843365 212.28278862858937 L 45.3125 212.51734673113958 L -5 212.51734673113958" stroke-linecap="round" stroke-linejoin="round" stroke-miterlimit="10" stroke-width="2" stroke-opacity="0.9" stroke-dasharray=""/></g><g><path fill="none" stroke="#2d70b3" class="dcg-svg-curve" paint-order="fill stroke markers" d=" M -5 136.6017821641699 L -5 136.6017821641699 L 46.80917838777515 136.50389881749754 L 46.807039895089616 134.08203125 L 46.80171562495846 60.82758125190912 L 58.04129681726735 60.70870318273262 L 74.7711420658168 60.708642065816804" stroke-linecap="round" stroke-linejoin="round" stroke-miterlimit="10" stroke-width="2" stroke-opacity="0.9" stroke-dasharray=""/></g><g><path fill="none" stroke="#2d70b3" class="dcg-svg-curve" paint-order="fill stroke markers" d=" M 199.54458380523636 60.709322444763615 L 199.54458380523636 60.709322444763615 L 201.33343293016122 60.708432930161194 L 274.3750182342069 60.71057523046059 L 274.52119340020886 60.06806840020889 L 274.52008043899366 38.28124999999997 L 274.52008043899366 -5" stroke-linecap="round" stroke-linejoin="round" stroke-miterlimit="10" stroke-width="2" stroke-opacity="0.9" stroke-dasharray=""/></g><g><path fill="none" stroke="#2d70b3" class="dcg-svg-curve" paint-order="fill stroke markers" d=" M 350.42383280481863 -5 L 350.42383280481863 -5 L 350.4172615971602 60.630389879860815 L 350.29296875 60.70865308329215 L 305.46875 60.70865308329223 L 274.70703125 60.70865308329226 L 274.5200804389938 61.1328125 L 274.52007153465297 91.707571534653 L 274.53490212489305 136.56375176023226 L 272.0703125 136.61299991339794 L 198.61573358643332 136.71875 L 198.61573358643332 140.234375 L 198.61573358643332 207.03125 L 198.4671175206384 212.52961752063837 L 198.3463341177477 212.51755500277693 L 122.81884016534514 212.51243856519872 L 122.71138674093136 213.623046875 L 122.65625 288.4216935661961 L 46.78876299106943 288.48798174106946 L 46.80737955549705 289.91137044450295 L 46.81110484355972 364.16542422369537 L 45.751953125 364.32604041696345 L -5 364.32604041696334" stroke-linecap="round" stroke-linejoin="round" stroke-miterlimit="10" stroke-width="2" stroke-opacity="0.9" stroke-dasharray=""/></g><g><path fill="none" stroke="#2d70b3" class="dcg-svg-curve" paint-order="fill stroke markers" d=" M -5 288.42231942584186 L -5 288.42231942584186 L 46.757234194455776 288.4277750492953 L 46.806456671189466 287.188235815242 L 46.80703989508959 214.0625 L 47.04831476116081 212.51726114164833 L 73.43750000000001 212.5173467311396 L 122.65625 212.51734673113947 L 122.71135191835366 212.24958558164633 L 122.71135838388899 136.69633132819206 L 136.82448696300287 136.6130130369971 L 198.2421875 136.61299991339794 L 198.61805155802892 136.21570780802892 L 198.61573358643332 122.65624999999999 L 198.68468814719034 60.696406897190315 L 199.54458380523636 60.709322444763615" stroke-linecap="round" stroke-linejoin="round" stroke-miterlimit="10" stroke-width="2" stroke-opacity="0.9" stroke-dasharray=""/></g><g><path fill="none" stroke="#2d70b3" class="dcg-svg-curve" paint-order="fill stroke markers" d=" M 405 136.62337603728523 L 405 136.62337603728523 L 350.42442729382833 136.71875 L 350.4244272938281 192.96875 L 350.4441549277873 212.4558736777873 L 350.0814246617487 212.5162315882513 L 325.01735472943733 212.5173547294373 L 274.70703125 212.5173467311395 L 274.51860086896903 212.99516336896903 L 274.52013928218565 223.91736071781432 L 274.52008043899366 284.375 L 274.4198089421958 288.4277174485542 L 273.9518091960471 288.42195264356786 L 198.71782468789903 288.4215534096942 L 198.6157335864333 290.52734375 L 198.61630756533097 364.02201464375753 L 198.2421875 364.32604041696334 L 122.71130604027911 364.4105247902791 L 122.7113764423869 405" stroke-linecap="round" stroke-linejoin="round" stroke-miterlimit="10" stroke-width="2" stroke-opacity="0.9" stroke-dasharray=""/></g><g><path fill="none" stroke="#2d70b3" class="dcg-svg-curve" paint-order="fill stroke markers" d=" M 46.807039895089574 405 L 46.807039895089574 405 L 46.807039895089275 364.35546875 L 47.07031249999997 364.32604041696345 L 122.65625 364.3260404169632 L 122.71137504391952 363.4214374560804 L 122.71138674093135 288.76953125 L 123.18528370433252 288.4196587043325 L 143.75 288.42169356619615 L 198.2421875 288.42169356619615 L 198.61973701843382 288.26817451843385 L 198.61582038445223 282.9908203844522 L 198.61387711777073 212.67637711777073 L 200 212.51734673113958 L 274.2736829298625 212.5175022718994 L 274.52008043899366 212.3046875 L 274.5201030292829 190.14510302928286 L 274.5847301822911 136.59644893229103 L 275.5859375 136.61299991339797 L 349.4140625 136.61299991339794 L 350.29296875 136.612999913398 L 350.42555441450884 135.97242941450884 L 350.4244870358981 125.42448703589811 L 350.4244272938282 61.1328125 L 350.7451643900662 60.70610189006612 L 370.08362937976733 60.7086293797673 L 405 60.70864963833886" stroke-linecap="round" stroke-linejoin="round" stroke-miterlimit="10" stroke-width="2" stroke-opacity="0.9" stroke-dasharray=""/></g><g><path fill="none" stroke="#2d70b3" class="dcg-svg-curve" paint-order="fill stroke markers" d=" M 302.48418142932434 288.4216814293243 L 302.48418142932434 288.4216814293243 L 350.21793168882823 288.4201049729399 L 350.4244272938281 287.890625 L 350.48207487980665 212.49379362980665 L 350.5676422310109 212.51417297268088 L 375.78125 212.51734673113958 L 405 212.5173467311396" stroke-linecap="round" stroke-linejoin="round" stroke-miterlimit="10" stroke-width="2" stroke-opacity="0.9" stroke-dasharray=""/></g><g><path fill="none" stroke="#2d70b3" class="dcg-svg-curve" paint-order="fill stroke markers" d=" M 405 288.42169356619615 L 405 288.42169356619615 L 351.171875 288.42169356619615 L 350.4242758424293 288.6869805831613 L 350.42443982332924 316.76306017667076 L 350.4244272938281 361.71875 L 350.26673436729595 364.32923436729595 L 274.520080438994 364.35546875 L 274.52008043899366 368.75 L 274.52008043899366 405" stroke-linecap="round" stroke-linejoin="round" stroke-miterlimit="10" stroke-width="2" stroke-opacity="0.9" stroke-dasharray=""/></g><g><path fill="none" stroke="#2d70b3" class="dcg-svg-curve" paint-order="fill stroke markers" d=" M 198.62592359736246 405 L 198.62592359736246 405 L 198.6957151887354 364.33394216569616 L 203.5547392010424 364.32613309921817 L 274.52645256487494 364.2178555338012 L 274.5209220230598 364.0626911803016 L 274.51998232375934 295.6137323237593 L 274.51989523705464 288.58239523705464 L 277.34375 288.42169356619615 L 302.48418142932434 288.4216814293243" stroke-linecap="round" stroke-linejoin="round" stroke-miterlimit="10" stroke-width="2" stroke-opacity="0.9" stroke-dasharray=""/></g><g><path fill="none" stroke="#2d70b3" class="dcg-svg-curve" paint-order="fill stroke markers" d=" M 356.50413711733205 364.32605644133395 L 356.50413711733205 364.32605644133395 L 405 364.3260421648748" stroke-linecap="round" stroke-linejoin="round" stroke-miterlimit="10" stroke-width="2" stroke-opacity="0.9" stroke-dasharray=""/></g><g><path fill="none" stroke="#2d70b3" class="dcg-svg-curve" paint-order="fill stroke markers" d=" M 350.4244129915276 405 L 350.4244129915276 405 L 350.4243152725661 364.43265668562685 L 356.50413711733205 364.32605644133395" stroke-linecap="round" stroke-linejoin="round" stroke-miterlimit="10" stroke-width="2" stroke-opacity="0.9" stroke-dasharray=""/></g></g><g id="sketch-b1d40ca7"><title>Expression 8</title><path fill="#000000" stroke="none" class="dcg-svg-region" paint-order="stroke fill markers" d=" M 198.61573359097605 212.51734675099544 L 274.5200804411955 212.51734675099544 L 274.5200804411955 136.612999900776 L 198.61573359097605 136.612999900776 L 198.61573359097605 212.51734675099544" fill-opacity="0.4"/><path fill="#000000" stroke="none" paint-order="stroke fill markers" d="" fill-opacity="0.4"/><g><path fill="none" stroke="#000000" class="dcg-svg-curve" paint-order="fill stroke markers" d=" M 198.61573359097605 212.51734675099544 L 198.61573359097605 212.51734675099544 L 274.5200804411955 212.51734675099544 L 274.5200804411955 136.612999900776 L 198.61573359097605 136.612999900776 L 198.61573359097605 212.51734675099544" stroke-linecap="round" stroke-linejoin="round" stroke-miterlimit="10" stroke-width="2.5" stroke-opacity="0.9" stroke-dasharray=""/></g></g></g><g id="labels-b1d40ca7"/></g></svg>