<?xml-stylesheet type="text/css" href="svg.css" ?>
<svg version="1.1" xmlns="http://www.w3.org/2000/svg" xmlns:xlink="http://www.w3.org/1999/xlink" width="800" height="800" viewBox="0 0 800 800"><defs/><g transform="scale(2,2)"><g id="background-44740361"><rect fill="white" stroke="none" x="0" y="0" width="400" height="400" class="dcg-svg-background"/></g><g id="background-images-44740361"/><g id="graphpaper-44740361"><g id="axis-44740361"><g><g><path fill="none" stroke="rgb(0,0,0)" class="dcg-svg-tickmark" paint-order="fill stroke markers" d="" stroke-opacity="0.9" stroke-miterlimit="2" stroke-width="1.5" stroke-dasharray=""/></g></g></g></g><g id="expressions-44740361"><g id="sketch-44740361"><title>Expression 2</title><path fill="#c74440" stroke="none" paint-order="stroke fill markers" d="" fill-opacity="0.4"/><g><path fill="none" stroke="#c74440" class="dcg-svg-curve" paint-order="fill stroke markers" d=" M 87.9744996506114 203.0176095578208 L 87.9744996506114 203.0176095578208 L 88.0859375 207.94980953042483 L 88.47656250000001 213.4771943209729 L 89.0625 218.39438373511263 L 89.84375 223.13642570359696 L 90.8203125 227.78557522111572 L 91.9921875 232.36649122120926 L 93.35937500000001 236.88658750921743 L 95.01953125000001 241.6060136889441 L 96.875 246.2001214527486 L 99.02343750000001 250.88311930122444 L 101.46484375 255.5953753092749 L 104.19921874999999 260.29222072532235 L 107.2265625 264.9383605494094 L 110.54687500000001 269.50441205012544 L 114.25781250000001 274.07882382431865 L 118.06640625000001 278.2958702230004 L 122.07031250000003 282.2912089757403 L 126.171875 285.98511026329595 L 130.46875 289.47777359467386 L 134.86328125 292.69686050636176 L 139.453125 295.71787718426015 L 144.140625 298.47726824049244 L 148.92578125 300.983123500515 L 153.80859375 303.2404725894433 L 158.7890625 305.25178422295136 L 163.86718750000003 307.0173031355577 L 169.04296875 308.5352677710148 L 174.21875 309.7810803811037 L 179.4921875 310.78025506311855 L 184.765625 311.5142387415616 L 190.0390625 311.98839021041147 L 195.41015625000003 312.20772011347617 L 200.78125 312.1626147304575 L 206.15234375 311.85274528599894 L 211.42578125 311.2887331848314 L 216.69921875 310.4632579937024 L 221.97265625 309.37023170709324 L 227.1484375 308.02921737906 L 232.2265625 306.44522999675746 L 237.20703125 304.62154835583243 L 242.1875 302.5155389379843 L 247.07031250000003 300.15904938126164 L 251.7578125 297.6048973715507 L 256.34765625 294.8036178376533 L 260.83984375 291.74695978934096 L 265.234375 288.42291376521484 L 269.43359375 284.9008996359491 L 273.53515625 281.09024488003377 L 277.44140625 277.06856919368715 L 281.15234375 272.83218927617196 L 284.66796875 268.3726238704959 L 287.98828125 263.6746088218748 L 291.015625 258.8771167104785 L 293.65234375 254.1887961439246 L 295.99609375 249.50177967734717 L 298.046875 244.86575907005553 L 299.90234375 240.07850855285025 L 301.46484375 235.42221073562035 L 302.83203125 230.64064696573936 L 303.90625 226.14528079718445 L 304.78515625 221.63239114007064 L 305.46875 217.12168390168745 L 305.95703125 212.65787524965873 L 306.25 208.4131379360644 L 306.383371479776 203.0176095578208" stroke-linecap="round" stroke-linejoin="round" stroke-miterlimit="10" stroke-width="2.5" stroke-opacity="0.9" stroke-dasharray=""/></g><path fill="#c74440" stroke="none" paint-order="stroke fill markers" d="" fill-opacity="0.4"/><g><path fill="none" stroke="#c74440" class="dcg-svg-curve" paint-order="fill stroke markers" d=" M 87.9744996506114 203.0176095578208 L 87.9744996506114 203.0176095578208 L 88.0859375 198.08540958521678 L 88.47656250000001 192.5580247946687 L 89.0625 187.64083538052898 L 89.84375 182.89879341204465 L 90.8203125 178.2496438945259 L 91.9921875 173.66872789443235 L 93.35937500000001 169.14863160642417 L 95.01953125000001 164.4292054266975 L 96.875 159.83509766289302 L 99.02343750000001 155.15209981441717 L 101.46484375 150.4398438063667 L 104.19921874999999 145.74299839031923 L 107.2265625 141.09685856623219 L 110.54687500000001 136.5308070655162 L 114.25781250000001 131.956395291323 L 118.06640625000001 127.73934889264117 L 122.07031250000003 123.74401013990132 L 126.171875 120.05010885234564 L 130.46875 116.55744552096778 L 134.86328125 113.33835860927982 L 139.453125 110.31734193138146 L 144.140625 107.55795087514915 L 148.92578125 105.05209561512662 L 153.80859375 102.7947465261983 L 158.7890625 100.78343489269025 L 163.86718750000003 99.0179159800839 L 169.04296875 97.49995134462682 L 174.21875 96.25413873453792 L 179.4921875 95.25496405252305 L 184.765625 94.52098037408 L 190.0390625 94.04682890523016 L 195.41015625000003 93.82749900216541 L 200.78125 93.87260438518412 L 206.15234375 94.18247382964267 L 211.42578125 94.74648593081018 L 216.69921875 95.57196112193918 L 221.97265625 96.66498740854838 L 227.1484375 98.00600173658161 L 232.2265625 99.58998911888416 L 237.20703125 101.41367075980916 L 242.1875 103.51968017765736 L 247.07031250000003 105.87616973437996 L 251.7578125 108.43032174409093 L 256.34765625 111.2316012779883 L 260.83984375 114.28825932630065 L 265.234375 117.6123053504268 L 269.43359375 121.13431947969251 L 273.53515625 124.94497423560782 L 277.44140625 128.96664992195443 L 281.15234375 133.20302983946965 L 284.66796875 137.66259524514575 L 287.98828125 142.36061029376677 L 291.015625 147.15810240516313 L 293.65234375 151.846422971717 L 295.99609375 156.53343943829444 L 298.046875 161.16946004558608 L 299.90234375 165.95671056279136 L 301.46484375 170.61300838002126 L 302.83203125 175.39457214990225 L 303.90625 179.88993831845715 L 304.78515625 184.40282797557097 L 305.46875 188.91353521395416 L 305.95703125 193.37734386598288 L 306.25 197.6220811795772 L 306.383371479776 203.0176095578208" stroke-linecap="round" stroke-linejoin="round" stroke-miterlimit="10" stroke-width="2.5" stroke-opacity="0.9" stroke-dasharray=""/></g></g><g id="sketch-44740361"><title>Expression 3</title><path fill="#000000" stroke="none" paint-order="stroke fill markers" d="" fill-opacity="0.4"/><path fill="#000000" stroke="none" paint-order="stroke fill markers" d="" fill-opacity="0.4"/><path fill="#000000" stroke="none" paint-order="stroke fill markers" d="" fill-opacity="0.4"/><path fill="#000000" stroke="none" paint-order="stroke fill markers" d="" fill-opacity="0.4"/><path fill="#000000" stroke="none" paint-order="stroke fill markers" d="" fill-opacity="0.4"/><path fill="#000000" stroke="none" paint-order="stroke fill markers" d="" fill-opacity="0.4"/><path fill="#000000" stroke="none" paint-order="stroke fill markers" d="" fill-opacity="0.4"/><path fill="#000000" stroke="none" paint-order="stroke fill markers" d="" fill-opacity="0.4"/><path fill="#000000" stroke="none" paint-order="stroke fill markers" d="" fill-opacity="0.4"/><path fill="#000000" stroke="none" paint-order="stroke fill markers" d="" fill-opacity="0.4"/><path fill="#000000" stroke="none" paint-order="stroke fill markers" d="" fill-opacity="0.4"/><path fill="#000000" stroke="none" paint-order="stroke fill markers" d="" fill-opacity="0.4"/><path fill="#000000" stroke="none" paint-order="stroke fill markers" d="" fill-opacity="0.4"/><path fill="#000000" stroke="none" paint-order="stroke fill markers" d="" fill-opacity="0.4"/><path fill="#000000" stroke="none" paint-order="stroke fill markers" d="" fill-opacity="0.4"/><path fill="#000000" stroke="none" paint-order="stroke fill markers" d="" fill-opacity="0.4"/><path fill="#000000" stroke="none" paint-order="stroke fill markers" d="" fill-opacity="0.4"/><path fill="#000000" stroke="none" paint-order="stroke fill markers" d="" fill-opacity="0.4"/><path fill="#000000" stroke="none" paint-order="stroke fill markers" d="" fill-opacity="0.4"/><path fill="#000000" stroke="none" paint-order="stroke fill markers" d="" fill-opacity="0.4"/><path fill="#000000" stroke="none" paint-order="stroke fill markers" d="" fill-opacity="0.4"/><path fill="#000000" stroke="none" paint-order="stroke fill markers" d="" fill-opacity="0.4"/><path fill="#000000" stroke="none" paint-order="stroke fill markers" d="" fill-opacity="0.4"/><path fill="#000000" stroke="none" paint-order="stroke fill markers" d="" fill-opacity="0.4"/><path fill="#000000" stroke="none" paint-order="stroke fill markers" d="" fill-opacity="0.4"/></g><g id="sketch-44740361"><title>Expression 5</title><path fill="#000000" stroke="none" paint-order="stroke fill markers" d="" fill-opacity="0.4"/><g><path fill="none" stroke="#000000" class="dcg-svg-curve" paint-order="fill stroke markers" d=" M 0 203.0176095578208 L 0 203.0176095578208 L 400 203.0176095578208" stroke-linecap="round" stroke-linejoin="round" stroke-miterlimit="10" stroke-width="2.5" stroke-opacity="0.9" stroke-dasharray=""/></g><path fill="#000000" stroke="none" paint-order="stroke fill markers" d="" fill-opacity="0.4"/><g><path fill="none" stroke="#000000" class="dcg-svg-curve" paint-order="fill stroke markers" d=" M 80.27567293724258 405.5 L 80.27567293724258 405.5 L 317.56663357417887 -5.5" stroke-linecap="round" stroke-linejoin="round" stroke-miterlimit="10" stroke-width="2.5" stroke-opacity="0.9" stroke-dasharray=""/></g><path fill="#000000" stroke="none" paint-order="stroke fill markers" d="" fill-opacity="0.4"/><g><path fill="none" stroke="#000000" class="dcg-svg-curve" paint-order="fill stroke markers" d=" M 76.79123755620861 -5.5 L 76.79123755620861 -5.5 L 314.0821981931447 405.5" stroke-linecap="round" stroke-linejoin="round" stroke-miterlimit="10" stroke-width="2.5" stroke-opacity="0.9" stroke-dasharray=""/></g><path fill="#000000" stroke="none" paint-order="stroke fill markers" d="" fill-opacity="0.4"/><g><path fill="none" stroke="#000000" class="dcg-svg-curve" paint-order="fill stroke markers" d=" M 0 203.0176095578208 L 0 203.0176095578208 L 400 203.0176095578208" stroke-linecap="round" stroke-linejoin="round" stroke-miterlimit="10" stroke-width="2.5" stroke-opacity="0.9" stroke-dasharray=""/></g></g><g id="sketch-44740361"><title>Expression 6</title><path fill="none" stroke="#2d70b3" class="dcg-svg-point" paint-order="fill stroke markers" d=" M 127.0978481125699 286.75230537268214 L 127.0978481125699 286.9523053726822 L 127.2978481125699 286.9523053726822 L 127.2978481125699 286.75230537268214" stroke-linecap="round" stroke-linejoin="round" stroke-miterlimit="10" stroke-width="7.5" stroke-opacity="0.9" stroke-dasharray=""/></g><g id="sketch-44740361"><title>Expression 9</title><path fill="none" stroke="#6042a6" class="dcg-svg-point" paint-order="fill stroke markers" d=" M 127.0978481125699 202.9176095578208 L 127.0978481125699 203.1176095578208 L 127.2978481125699 203.1176095578208 L 127.2978481125699 202.9176095578208" stroke-linecap="round" stroke-linejoin="round" stroke-miterlimit="10" stroke-width="12.5" stroke-opacity="0.9" stroke-dasharray=""/><path fill="none" stroke="#6042a6" class="dcg-svg-point" paint-order="fill stroke markers" d=" M 143.2821755549323 296.09633117818305 L 143.2821755549323 296.2963311781831 L 143.4821755549323 296.2963311781831 L 143.4821755549323 296.09633117818305" stroke-linecap="round" stroke-linejoin="round" stroke-miterlimit="10" stroke-width="12.5" stroke-opacity="0.9" stroke-dasharray=""/><path fill="none" stroke="#6042a6" class="dcg-svg-point" paint-order="fill stroke markers" d=" M 215.8851518491432 235.49093165975054 L 215.8851518491432 235.69093165975053 L 216.0851518491432 235.69093165975053 L 216.0851518491432 235.49093165975054" stroke-linecap="round" stroke-linejoin="round" stroke-miterlimit="10" stroke-width="12.5" stroke-opacity="0.9" stroke-dasharray=""/><path fill="none" stroke="#6042a6" class="dcg-svg-point" paint-order="fill stroke markers" d=" M 127.09784811256992 202.9176095578208 L 127.09784811256992 203.1176095578208 L 127.29784811256991 203.1176095578208 L 127.29784811256991 202.9176095578208" stroke-linecap="round" stroke-linejoin="round" stroke-miterlimit="10" stroke-width="12.5" stroke-opacity="0.9" stroke-dasharray=""/></g></g><g id="labels-44740361"/></g></svg>