<?xml-stylesheet type="text/css" href="svg.css" ?>
<svg version="1.1" xmlns="http://www.w3.org/2000/svg" xmlns:xlink="http://www.w3.org/1999/xlink" width="800" height="800" viewBox="0 0 800 800"><defs/><g transform="scale(2,2)"><g id="background-3d0b7288"><rect fill="white" stroke="none" x="0" y="0" width="400" height="400" class="dcg-svg-background"/></g><g id="background-images-3d0b7288"/><g id="graphpaper-3d0b7288"><g id="grid-3d0b7288"><g><path fill="none" stroke="rgb(0,0,0)" class="dcg-svg-minor-gridline" paint-order="fill stroke markers" d=" M 24.5 0 L 24.5 400" stroke-opacity="0.2" stroke-miterlimit="10" stroke-dasharray=""/><path fill="none" stroke="rgb(0,0,0)" class="dcg-svg-minor-gridline" paint-order="fill stroke markers" d=" M 49.5 0 L 49.5 400" stroke-opacity="0.2" stroke-miterlimit="10" stroke-dasharray=""/><path fill="none" stroke="rgb(0,0,0)" class="dcg-svg-minor-gridline" paint-order="fill stroke markers" d=" M 74.5 0 L 74.5 400" stroke-opacity="0.2" stroke-miterlimit="10" stroke-dasharray=""/><path fill="none" stroke="rgb(0,0,0)" class="dcg-svg-minor-gridline" paint-order="fill stroke markers" d=" M 98.5 0 L 98.5 400" stroke-opacity="0.2" stroke-miterlimit="10" stroke-dasharray=""/><path fill="none" stroke="rgb(0,0,0)" class="dcg-svg-minor-gridline" paint-order="fill stroke markers" d=" M 123.5 0 L 123.5 400" stroke-opacity="0.2" stroke-miterlimit="10" stroke-dasharray=""/><path fill="none" stroke="rgb(0,0,0)" class="dcg-svg-minor-gridline" paint-order="fill stroke markers" d=" M 148.5 0 L 148.5 400" stroke-opacity="0.2" stroke-miterlimit="10" stroke-dasharray=""/><path fill="none" stroke="rgb(0,0,0)" class="dcg-svg-minor-gridline" paint-order="fill stroke markers" d=" M 198.5 0 L 198.5 400" stroke-opacity="0.2" stroke-miterlimit="10" stroke-dasharray=""/><path fill="none" stroke="rgb(0,0,0)" class="dcg-svg-minor-gridline" paint-order="fill stroke markers" d=" M 223.5 0 L 223.5 400" stroke-opacity="0.2" stroke-miterlimit="10" stroke-dasharray=""/><path fill="none" stroke="rgb(0,0,0)" class="dcg-svg-minor-gridline" paint-order="fill stroke markers" d=" M 247.5 0 L 247.5 400" stroke-opacity="0.2" stroke-miterlimit="10" stroke-dasharray=""/><path fill="none" stroke="rgb(0,0,0)" class="dcg-svg-minor-gridline" paint-order="fill stroke markers" d=" M 272.5 0 L 272.5 400" stroke-opacity="0.2" stroke-miterlimit="10" stroke-dasharray=""/><path fill="none" stroke="rgb(0,0,0)" class="dcg-svg-minor-gridline" paint-order="fill stroke markers" d=" M 297.5 0 L 297.5 400" stroke-opacity="0.2" stroke-miterlimit="10" stroke-dasharray=""/><path fill="none" stroke="rgb(0,0,0)" class="dcg-svg-minor-gridline" paint-order="fill stroke markers" d=" M 322.5 0 L 322.5 400" stroke-opacity="0.2" stroke-miterlimit="10" stroke-dasharray=""/><path fill="none" stroke="rgb(0,0,0)" class="dcg-svg-minor-gridline" paint-order="fill stroke markers" d=" M 347.5 0 L 347.5 400" stroke-opacity="0.2" stroke-miterlimit="10" stroke-dasharray=""/><path fill="none" stroke="rgb(0,0,0)" class="dcg-svg-minor-gridline" paint-order="fill stroke markers" d=" M 372.5 0 L 372.5 400" stroke-opacity="0.2" stroke-miterlimit="10" stroke-dasharray=""/><path fill="none" stroke="rgb(0,0,0)" class="dcg-svg-minor-gridline" paint-order="fill stroke markers" d=" M 396.5 0 L 396.5 400" stroke-opacity="0.2" stroke-miterlimit="10" stroke-dasharray=""/><path fill="none" stroke="rgb(0,0,0)" class="dcg-svg-minor-gridline" paint-order="fill stroke markers" d=" M 0 379.5 L 400 379.5" stroke-opacity="0.2" stroke-miterlimit="10" stroke-dasharray=""/><path fill="none" stroke="rgb(0,0,0)" class="dcg-svg-minor-gridline" paint-order="fill stroke markers" d=" M 0 354.5 L 400 354.5" stroke-opacity="0.2" stroke-miterlimit="10" stroke-dasharray=""/><path fill="none" stroke="rgb(0,0,0)" class="dcg-svg-minor-gridline" paint-order="fill stroke markers" d=" M 0 329.5 L 400 329.5" stroke-opacity="0.2" stroke-miterlimit="10" stroke-dasharray=""/><path fill="none" stroke="rgb(0,0,0)" class="dcg-svg-minor-gridline" paint-order="fill stroke markers" d=" M 0 304.5 L 400 304.5" stroke-opacity="0.2" stroke-miterlimit="10" stroke-dasharray=""/><path fill="none" stroke="rgb(0,0,0)" class="dcg-svg-minor-gridline" paint-order="fill stroke markers" d=" M 0 279.5 L 400 279.5" stroke-opacity="0.2" stroke-miterlimit="10" stroke-dasharray=""/><path fill="none" stroke="rgb(0,0,0)" class="dcg-svg-minor-gridline" paint-order="fill stroke markers" d=" M 0 230.5 L 400 230.5" stroke-opacity="0.2" stroke-miterlimit="10" stroke-dasharray=""/><path fill="none" stroke="rgb(0,0,0)" class="dcg-svg-minor-gridline" paint-order="fill stroke markers" d=" M 0 205.5 L 400 205.5" stroke-opacity="0.2" stroke-miterlimit="10" stroke-dasharray=""/><path fill="none" stroke="rgb(0,0,0)" class="dcg-svg-minor-gridline" paint-order="fill stroke markers" d=" M 0 180.5 L 400 180.5" stroke-opacity="0.2" stroke-miterlimit="10" stroke-dasharray=""/><path fill="none" stroke="rgb(0,0,0)" class="dcg-svg-minor-gridline" paint-order="fill stroke markers" d=" M 0 155.5 L 400 155.5" stroke-opacity="0.2" stroke-miterlimit="10" stroke-dasharray=""/><path fill="none" stroke="rgb(0,0,0)" class="dcg-svg-minor-gridline" paint-order="fill stroke markers" d=" M 0 130.5 L 400 130.5" stroke-opacity="0.2" stroke-miterlimit="10" stroke-dasharray=""/><path fill="none" stroke="rgb(0,0,0)" class="dcg-svg-minor-gridline" paint-order="fill stroke markers" d=" M 0 106.5 L 400 106.5" stroke-opacity="0.2" stroke-miterlimit="10" stroke-dasharray=""/><path fill="none" stroke="rgb(0,0,0)" class="dcg-svg-minor-gridline" paint-order="fill stroke markers" d=" M 0 81.5 L 400 81.5" stroke-opacity="0.2" stroke-miterlimit="10" stroke-dasharray=""/><path fill="none" stroke="rgb(0,0,0)" class="dcg-svg-minor-gridline" paint-order="fill stroke markers" d=" M 0 56.5 L 400 56.5" stroke-opacity="0.2" stroke-miterlimit="10" stroke-dasharray=""/><path fill="none" stroke="rgb(0,0,0)" class="dcg-svg-minor-gridline" paint-order="fill stroke markers" d=" M 0 31.5 L 400 31.5" stroke-opacity="0.2" stroke-miterlimit="10" stroke-dasharray=""/><path fill="none" stroke="rgb(0,0,0)" class="dcg-svg-minor-gridline" paint-order="fill stroke markers" d=" M 0 6.5 L 400 6.5" stroke-opacity="0.2" stroke-miterlimit="10" stroke-dasharray=""/><path fill="none" stroke="rgb(0,0,0)" class="dcg-svg-major-gridline" paint-order="fill stroke markers" d=" M 74.5 0 L 74.5 400" stroke-opacity="0.2500000000000001" stroke-miterlimit="10" stroke-dasharray=""/><path fill="none" stroke="rgb(0,0,0)" class="dcg-svg-major-gridline" paint-order="fill stroke markers" d=" M 272.5 0 L 272.5 400" stroke-opacity="0.2500000000000001" stroke-miterlimit="10" stroke-dasharray=""/><path fill="none" stroke="rgb(0,0,0)" class="dcg-svg-major-gridline" paint-order="fill stroke markers" d=" M 372.5 0 L 372.5 400" stroke-opacity="0.2500000000000001" stroke-miterlimit="10" stroke-dasharray=""/><path fill="none" stroke="rgb(0,0,0)" class="dcg-svg-major-gridline" paint-order="fill stroke markers" d=" M 0 354.5 L 400 354.5" stroke-opacity="0.2500000000000001" stroke-miterlimit="10" stroke-dasharray=""/><path fill="none" stroke="rgb(0,0,0)" class="dcg-svg-major-gridline" paint-order="fill stroke markers" d=" M 0 155.5 L 400 155.5" stroke-opacity="0.2500000000000001" stroke-miterlimit="10" stroke-dasharray=""/><path fill="none" stroke="rgb(0,0,0)" class="dcg-svg-major-gridline" paint-order="fill stroke markers" d=" M 0 56.5 L 400 56.5" stroke-opacity="0.2500000000000001" stroke-miterlimit="10" stroke-dasharray=""/></g></g><g id="axis-3d0b7288"><g id="yaxis-3d0b7288"><title>Y axis</title><g><path fill="none" stroke="rgb(0,0,0)" class="dcg-svg-axis-line" paint-order="fill stroke markers" d=" M 173 0 L 173 400" stroke-opacity="0.9" stroke-miterlimit="10" stroke-width="1.5" stroke-dasharray=""/></g></g><g id="xaxis-3d0b7288"><title>X axis</title><g><path fill="none" stroke="rgb(0,0,0)" class="dcg-svg-axis-line" paint-order="fill stroke markers" d=" M 0 255 L 400 255" stroke-opacity="0.9" stroke-miterlimit="10" stroke-width="1.5" stroke-dasharray=""/></g></g><g><g class="dcg-svg-axis-value"><text fill="none" stroke="#ffffff" font-family="Arial" font-size="14px" font-style="normal" font-weight="normal" text-decoration="normal" x="164.55928112632927" y="270.94333807378456" text-anchor="middle" stroke-miterlimit="2" stroke-width="3" stroke-dasharray="">0</text><text fill="#000000" stroke="none" font-family="Arial" font-size="14px" font-style="normal" font-weight="normal" text-decoration="normal" x="164.55928112632927" y="270.94333807378456" text-anchor="middle">0</text></g><g class="dcg-svg-axis-value"><text fill="none" stroke="#ffffff" font-family="Arial" font-size="14px" font-style="normal" font-weight="normal" text-decoration="normal" x="71.81104353245446" y="270.94333807378456" text-anchor="middle" stroke-miterlimit="2" stroke-width="3" stroke-dasharray="">-2</text><text fill="#000000" stroke="none" font-family="Arial" font-size="14px" font-style="normal" font-weight="normal" text-decoration="normal" x="71.81104353245446" y="270.94333807378456" text-anchor="middle">-2</text></g><g class="dcg-svg-axis-value"><text fill="none" stroke="#ffffff" font-family="Arial" font-size="14px" font-style="normal" font-weight="normal" text-decoration="normal" x="272.7625968452041" y="270.94333807378456" text-anchor="middle" stroke-miterlimit="2" stroke-width="3" stroke-dasharray="">2</text><text fill="#000000" stroke="none" font-family="Arial" font-size="14px" font-style="normal" font-weight="normal" text-decoration="normal" x="272.7625968452041" y="270.94333807378456" text-anchor="middle">2</text></g><g class="dcg-svg-axis-value"><text fill="none" stroke="#ffffff" font-family="Arial" font-size="14px" font-style="normal" font-weight="normal" text-decoration="normal" x="372.07284615782885" y="270.94333807378456" text-anchor="middle" stroke-miterlimit="2" stroke-width="3" stroke-dasharray="">4</text><text fill="#000000" stroke="none" font-family="Arial" font-size="14px" font-style="normal" font-weight="normal" text-decoration="normal" x="372.07284615782885" y="270.94333807378456" text-anchor="middle">4</text></g><g class="dcg-svg-axis-value"><text fill="none" stroke="#ffffff" font-family="Arial" font-size="14px" font-style="normal" font-weight="normal" text-decoration="normal" x="162.22822643882927" y="358.2535873864094" text-anchor="middle" stroke-miterlimit="2" stroke-width="3" stroke-dasharray="">-2</text><text fill="#000000" stroke="none" font-family="Arial" font-size="14px" font-style="normal" font-weight="normal" text-decoration="normal" x="162.22822643882927" y="358.2535873864094" text-anchor="middle">-2</text></g><g class="dcg-svg-axis-value"><text fill="none" stroke="#ffffff" font-family="Arial" font-size="14px" font-style="normal" font-weight="normal" text-decoration="normal" x="164.55928112632927" y="159.63308876115974" text-anchor="middle" stroke-miterlimit="2" stroke-width="3" stroke-dasharray="">2</text><text fill="#000000" stroke="none" font-family="Arial" font-size="14px" font-style="normal" font-weight="normal" text-decoration="normal" x="164.55928112632927" y="159.63308876115974" text-anchor="middle">2</text></g><g class="dcg-svg-axis-value"><text fill="none" stroke="#ffffff" font-family="Arial" font-size="14px" font-style="normal" font-weight="normal" text-decoration="normal" x="164.55928112632927" y="60.32283944853496" text-anchor="middle" stroke-miterlimit="2" stroke-width="3" stroke-dasharray="">4</text><text fill="#000000" stroke="none" font-family="Arial" font-size="14px" font-style="normal" font-weight="normal" text-decoration="normal" x="164.55928112632927" y="60.32283944853496" text-anchor="middle">4</text></g></g></g></g><g id="expressions-3d0b7288"><g id="sketch-3d0b7288"><title>Expression 1</title><path fill="#c74440" stroke="none" paint-order="stroke fill markers" d="" fill-opacity="0.4"/><g><path fill="none" stroke="#c74440" class="dcg-svg-curve" paint-order="fill stroke markers" d=" M 0 99.13918972424602 L 0 99.13918972424602 L 91.60156249999999 99.26869710670479 L 104.00390625 99.54813095334183 L 111.62109375 99.9673755744972 L 117.1875 100.52552373444976 L 121.58203125 101.22026852879927 L 125.1953125 102.04408372790348 L 128.3203125 103.01336213205911 L 131.15234375 104.16571655086656 L 133.69140625 105.4838760978115 L 136.03515625 107.00073950095987 L 138.28125 108.78704456087951 L 140.4296875 110.86527188413575 L 142.48046875 113.25325169946183 L 144.53125 116.1102940334481 L 146.484375 119.3443045430713 L 148.33984375 122.95630423003644 L 150.09765625 126.93538487200757 L 151.85546875 131.53014860985445 L 153.515625 136.50393228025658 L 155.17578125 142.1614741037828 L 156.8359375 148.56832380639713 L 158.59375 156.2365822968792 L 160.3515625 164.87405715738853 L 162.20703125 175.08594317434734 L 164.16015625 187.05379095183682 L 166.30859375 201.5754582032993 L 168.84765625 220.21972772153453 L 174.70703125 263.9005051502474 L 176.171875 273.073575219499 L 177.34375 279.2660415631946 L 178.3203125 283.4358501742473 L 179.19921875 286.28271635669194 L 179.8828125 287.83398949497087 L 180.46875 288.6655939154369 L 180.95703125 288.9896861250425 L 181.34765625 288.999686900564 L 181.73828125 288.7835835206224 L 182.2265625 288.19142041257504 L 182.8125 287.0062876991923 L 183.49609375 284.97583853163707 L 184.27734375 281.8320300496739 L 185.15625 277.3303058979751 L 186.23046875 270.66876218724343 L 187.890625 258.8507707648439 L 189.74609375 245.95142000583266 L 190.72265625 240.52823014725448 L 191.40625 237.69601945501068 L 191.9921875 236.0479125830752 L 192.48046875 235.28903831319133 L 192.85572175089422 235.10939877780433 L 193.1640625 235.23202781090745 L 193.5546875 235.7407182384231 L 194.04296875 236.92626128874633 L 194.62890625 239.11930087687674 L 195.3125 242.62633355243435 L 196.19140625 248.28412250669652 L 198.6328125 264.7730142151911 L 199.21875 267.38006100513616 L 199.70703125 268.7766890351773 L 200.09765625 269.315977468179 L 200.390625 269.3625147750323 L 200.68359375 269.0959202620405 L 201.07421875 268.2573207021805 L 201.5625 266.4709487818285 L 202.1484375 263.38504417540383 L 203.02734375 257.4567696235915 L 204.39453125 248.21571653460592 L 204.98046875 245.52404414964212 L 205.37109375 244.46027743744642 L 205.77916084085825 244.07310965531215 L 206.0546875 244.252037293873 L 206.34765625 244.8315135392641 L 206.73828125 246.19757186067653 L 207.2265625 248.73411700792664 L 208.0078125 254.03431711510953 L 209.08203125 261.16521727258004 L 209.5703125 263.2582551732534 L 209.9609375 264.08395566354847 L 210.25390625 264.14297862343795 L 210.546875 263.7087206034972 L 210.9375 262.39699962740394 L 211.42578125 259.76311393467205 L 213.28125 248.26871586490677 L 213.57421875 247.61145220281097 L 213.8671875 247.522011402487 L 214.16015625 248.01465160252866 L 214.55078125 249.51713923234112 L 215.0390625 252.4521616998179 L 216.30859375 260.58926525577937 L 216.69921875 261.6546389450537 L 216.8646975879086 261.76199583067825 L 217.08984375 261.56252988749236 L 217.3828125 260.7240620564986 L 217.7734375 258.7311610236363 L 219.23828125 249.7791122379058 L 219.57246853702839 249.28945630101518 L 219.7265625 249.3955105803455 L 220.01953125 250.1659021078728 L 220.41015625 252.18425323301992 L 221.6796875 259.9312283986205 L 221.97709289488537 260.3651308978946 L 222.16796875 260.1835887653296 L 222.4609375 259.23049124253055 L 222.8515625 256.9552236697598 L 223.73046875 251.29486506790496 L 224.0234375 250.47856946678502 L 224.21875 250.4385500083725 L 224.4140625 250.81535604844782 L 224.70703125 252.0857131578653 L 225.29296875 256.06706151920105 L 225.78125 258.83907756465146 L 226.10489459982887 259.4548303949235 L 226.26953125 259.2914013022973 L 226.5625 258.24064062944404 L 227.05078125 255.0517839762449 L 227.5390625 252.0088659205688 L 227.83203125 251.19711715188893 L 228.02734375 251.25901731644143 L 228.22265625 251.80807030207984 L 228.515625 253.38464202503872 L 229.296875 258.30916534753163 L 229.4921875 258.7746287255034 L 229.6875 258.71197509131997 L 229.8828125 258.1259273277781 L 230.2734375 255.78438627530866 L 230.859375 252.17615673815612 L 231.0546875 251.73318352998697 L 231.10982228502826 251.71002114199615 L 231.34765625 252.13435966877054 L 231.640625 253.6568661087758 L 232.32421875 257.9361485908428 L 232.5493172753964 258.3395703336385 L 232.71484375 258.11797859828994 L 233.0078125 256.7629176359613 L 233.7890625 252.22892686658795 L 233.984375 252.18911111089727 L 234.1796875 252.78865468898113 L 234.5703125 255.2789519788121 L 234.9609375 257.5868086478751 L 235.16841938941076 257.97324331199457 L 235.3515625 257.66886140301773 L 235.64453125 256.1188280209773 L 236.23046875 252.63148191436355 L 236.42578125 252.48390199295898 L 236.62109375 253.0554795560507 L 237.01171875 255.5859734348584 L 237.40234375 257.57802441179155 L 237.59765625 257.5913157814326 L 237.79296875 256.8653742659055 L 238.5824483060586 252.7128448015365 L 238.76953125 253.08204102244878 L 239.0625 254.81185814279402 L 239.453125 257.1725550917467 L 239.6100172984335 257.44513193122145 L 239.84375 256.8516726640583 L 240.59082199781562 252.92822275212006 L 240.8203125 253.52540880539544 L 241.52893578288996 257.24851597460184 L 241.6015625 257.18348467077845 L 241.796875 256.4175581706693 L 242.42792177649486 253.10842720548513 L 242.48046875 253.14398756647466 L 242.67578125 253.85331604559676 L 243.29091469073308 257.08274959969833 L 243.359375 257.0200642497287 L 243.5546875 256.21773599687754 L 244.04296875 253.34501641127645 L 244.12068688813494 253.26142458863 L 244.3359375 253.87360936670714 L 244.9197021773406 256.94109994639877 L 245.1171875 256.40352906275825 L 245.69015997919007 253.39294431591705 L 245.80078125 253.5737627502566 L 246.09375 255.32183032045702 L 246.43403186087664 256.8186606377272 L 246.484375 256.77939574279554 L 246.6796875 255.9622516412008 L 247.0703125 253.61594830273089 L 247.15309196834738 253.50721252789643 L 247.265625 253.7068202387284 L 247.55859375 255.51106518850418 L 247.75390625 256.56445332396635 L 247.84894254067416 256.7117717291068 L 247.94921875 256.54758221885476 L 248.2421875 254.76730487170084 L 248.4375 253.73082610299846 L 248.52303543052676 253.6074147969472 L 248.6328125 253.80947458833538 L 249.17669035838662 256.61764751875273 L 249.31640625 256.28562169292945 L 249.81111047800022 253.69599783258107 L 249.90234375 253.84485564309196 L 250.1953125 255.6441584434695 L 250.4273957148299 256.53413021205904 L 250.48828125 256.46530442886274 L 250.68359375 255.47331179829882 L 250.9765625 253.82261264074657 L 251.02655424929736 253.77487196379647 L 251.171875 254.16192679432237 L 251.6095124461451 256.45952243744324 L 251.66015625 256.4091332719831 L 251.85546875 255.43129336768337 L 252.17712347563574 253.84555049188143 L 252.24609375 253.94094080214848 L 252.44140625 255.0236601484219 L 252.73017482813376 256.39247065729217 L 252.83203125 256.18236590887636 L 253.26939488828677 253.90924774287112 L 253.3203125 253.9641961533166 L 253.515625 254.99305286143928 L 253.7109375 256.1792400761531 L 253.7954587066037 256.33188229962633 L 253.90625 256.07298076633344 L 254.30899308322807 253.96694942819812 L 254.39453125 254.12719136709762 L 254.8105810599909 256.27686575502327 L 254.8828125 256.1592373267008 L 255.30076590152254 254.01946402771318 L 255.37109375 254.13355070179608 L 255.78005463362067 256.2266862016835 L 255.859375 256.07912886638195 L 256.24892119668306 254.06746091004933 L 256.34765625 254.2978449807463 L 256.70780926339273 256.1807325925069 L 256.8359375 255.7954587817122 L 257.1571347626632 254.11149901950594 L 257.2265625 254.2323454298926 L 257.5972881458442 256.13849264663133 L 257.71484375 255.79862793437647 L 258.0286364261427 254.1520487451628 L 258.10546875 254.3051498132639 L 258.45152501796184 256.0995336690747 L 258.69140625 254.91542536992625 L 258.866279399262 254.18950879060807 L 258.984375 254.5503089647528 L 259.27320661699497 256.06348767311783 L 259.375 255.7860286501543 L 259.6725966530601 254.22421932872862 L 259.765625 254.46193649394843 L 260.06472366600804 256.03003971988795 L 260.15625 255.79576035593558 L 260.4498471218152 254.25647236221337 L 260.546875 254.5224923523923 L 260.82821282541227 255.99891869171282 L 260.9375 255.66118009676768 L 261.2000538632405 254.2865199585782 L 261.42578125 255.42930082040888 L 261.56559146588893 255.96988992652018 L 261.62109375 255.87508754551448 L 261.92503579881 254.3145808516208 L 262.01171875 254.54294282202576 L 262.27858668819033 255.9427492895774 L 262.5 254.81099009609898 L 262.62643428825714 254.34084577526846 L 262.6953125 254.49216954893475 L 262.9687596955994 255.9173183656417 L 263.18359375 254.81861581968752 L 263.3057355154742 254.36548180498812 L 263.37890625 254.5405559717469 L 263.6375263845333 255.8934405320182 L 263.9642894539322 254.3886359157149 L 264.16015625 255.37548499950762 L 264.2861748363723 255.870977729801 L 264.35546875 255.70655305714766 L 264.6033260202596 254.41043791644194 L 264.9158802538409 255.84980779264288 L 265.2239689018911 254.4310028852665 L 265.52771777727366 255.82982222387722 L 265.72265625 254.82706790961583 L 265.8272474494674 254.45043320136432 L 266.015625 255.41411131349653 L 266.12267353195466 255.81092433658495 L 266.30859375 254.85966543578016 L 266.4141069501849 254.4688202496429 L 266.6015625 255.43355614198344 L 266.70165419166847 255.79302768930006 L 266.98541753961183 254.48624585798112 L 267.2654952913769 255.77605476394405 L 267.54198196293294 254.50278351474913 L 267.8149684803641 255.75993584332934 L 267.87109375 255.63246591091166 L 268.08454235940513 254.51849940482424 L 268.3507878738915 255.7446080539482 L 268.61378621393476 254.53345329490492 L 268.87361563456795 255.7300145463321 L 268.9453125 255.51763522742291 L 269.1303515955398 254.54769929309296 L 269.3840668928846 255.71610379045467 L 269.43359375 255.60898523124445 L 269.63483178284014 254.56128650309486 L 269.8827140986426 255.7028289677697 L 270.127779360684 254.57425958971342 L 270.37009088047904 255.6901474447678 L 270.60970985885575 254.5866592693537 L 270.84669547874876 255.6780203155774 L 270.8984375 255.55389386542484 L 271.0811049929493 254.59852273689287 L 271.3129938071359 255.6664120032726 L 271.5424155584882 254.6098840383421 L 271.76942219016183 255.65528991127985 L 271.99406402188424 254.62077439716506 L 272.21638981691035 255.64462411769077 L 272.265625 255.52500256002818 L 272.43644684556165 254.6312225008406 L 272.6542809455561 255.63438710644266 L 272.86993657932015 254.64125475320742 L 273.08345688846384 255.62455353028218 L 273.29488374558485 254.65089549726508 L 273.5042578035569 255.6151000012121 L 273.711618542449 254.66016721238927 L 273.9170043142093 255.6060049047747 L 274.1204523852414 254.6690906893248 L 274.3219989769905 255.5972482350666 L 274.5216793046506 254.67768518582412 L 274.71952761409545 255.58881144783507 L 274.9155772171308 254.68596856538318 L 275.10986052515875 255.58067732938483 L 275.30240908133845 254.69395742117857 L 275.4932535913241 255.57282987934548 L 275.68242395265423 254.701667187015 L 275.8699492828632 255.56525420561914 L 276.05585794638085 254.70911223684467 L 276.24017758028236 255.55793643005737 L 276.422935118947 254.71630597420818 L 276.6041568176804 255.5508636036097 L 276.7838682753528 254.7232609127685 L 276.96209445610145 255.5440236298534 L 277.13885971014366 254.72998874895552 L 277.3141877937435 255.53740519595289 L 277.4881018883734 254.7365004276086 L 277.6606246191093 255.5309977102217 L 277.8317780722955 254.742806201392 L 278.0015838125142 255.52479124556032 L 278.17006289889196 254.74891568466177 L 278.33723590077415 255.51877648813604 L 278.5031229127965 254.754837902379 L 278.66774356938123 255.51294469074566 L 278.8311170586839 254.76058133459347 L 278.99326213601637 255.50728763037057 L 279.15419713676823 254.76615395695805 L 279.31393998885034 255.50179756949106 L 279.47250822468004 254.77156327768148 L 279.6299189927294 255.4964672207765 L 279.78618906865523 254.77681637127955 L 279.9413348660279 255.49128971481338 L 280.09537244667774 254.78191990944325 L 280.24831753067417 255.48625857056993 L 280.40018550595335 254.78688018930768 L 280.55099143760935 255.48136766833082 L 280.7007500768628 254.79170315937336 L 280.8494758697196 255.47661122486412 L 280.997182965334 254.79639444330397 L 281.1438852240865 255.47198377060835 L 281.2895962253891 254.80095936180138 L 281.4343292752287 255.46748012869116 L 281.57809741345864 254.80540295273613 L 281.72091342084923 255.4630953956094 L 281.8627898259062 254.80972998969415 L 282.00373891146614 255.4588249234199 L 282.1437727210779 254.81394499908262 L 282.2829030651654 255.4546643033046 L 282.4211415270694 254.81805227592452 L 282.55849946870603 255.4506093503877 L 282.69498803629983 254.822055898457 L 282.83061816574667 255.44665608969532 L 282.965400587891 254.8259597416386 L 283.0993458335923 255.44280074315822 L 283.23246423871876 254.82976748965876 L 283.3647659488778 255.43903971756862 L 283.4962609240837 254.83348264753494 L 283.62695894293097 255.43536959341023 L 283.75686960848896 254.83710855187374 L 283.8860023496973 255.43178711448843 L 284.0143664279391 254.84064838086576 L 284.14197094034546 255.42828917829468 L 284.26882482271515 254.84410516357696 L 284.3949368551407 255.42487282704516 L 284.5203156638692 254.84748178859363 L 284.644969725687 255.4215352393392 L 284.7689073712884 254.85078101207296 L 284.89213678806766 255.418273722388 L 285.0146660253812 254.8540054652461 L 285.1365029944756 255.41508570476898 L 285.25765547359003 254.8571576614169 L 285.37813111127247 255.41196872966424 L 285.49793742712876 254.86024000249535 L 285.61708181938036 255.40892044854618 L 285.7355715600484 254.86325478510145 L 285.8534138048085 255.40593861527617 L 285.9706155917581 254.86620420627202 L 286.0871838449244 255.40302108058484 L 286.20312537654166 254.86909036880022 L 286.3184468899413 255.40016578690555 L 286.43315498103567 254.87191528623546 L 286.5472561410835 255.39737076353538 L 286.66075675943995 254.874680887568 L 286.7736631243617 255.39463412209892 L 286.8859814261173 254.87738902162164 L 286.99771775892 255.39195405229373 L 287.1088781221704 254.8800414611756 L 287.21946842382664 255.38932881789665 L 287.3294944808111 254.88263990683436 L 287.4389620216622 255.38675675301315 L 287.5478766880921 254.8851859906637 L 287.65624403654135 255.3842362585518 L 287.76406954066044 254.88768127960918 L 287.87135859166284 255.38176579890916 L 287.9781165015826 254.890127278712 L 288.08434850311295 255.37934389884978 L 288.19005975226924 254.89252543413593 L 288.29525532959815 255.37696914056875 L 288.39994024216367 254.8948771360189 L 288.50411942374984 255.37464016092375 L 288.6077977370309 254.89718372115965 L 288.71097997521724 255.37235564882604 L 288.81367086323917 254.89944647555217 L 288.915875058486 255.3701143427791 L 289.01759715228883 254.90166663677607 L 289.1188416713916 255.36791502855587 L 289.2196130793372 254.903845396254 L 289.31991577704434 255.3657565370053 L 289.41975410489556 254.90598390138354 L 289.5191323427701 255.36363774197974 L 289.61805471149285 254.90808325755194 L 289.7165253747779 255.36155755837603 L 289.8145484386067 254.9101445300416 L 289.91212795412343 255.3595149402821 L 290.0092679169576 254.91216874583236 L 290.1059722696763 255.35750887922384 L 290.20224490149525 254.91415689530777 L 290.298089650189 255.3555384025045 L 290.39351030223344 254.91610993387073 L 290.488510594388 255.3536025716323 L 290.5830942140726 254.9180287834744 L 290.8643811927043 255.3498312556215 L 290.9573340424719 254.9217674450003 L 291.049887949112 255.3479940514916 L 291.14204632195685 254.923588946271 L 291.23381252751597 255.34618805261368 L 291.32518988937227 254.92537963982477 L 291.4161816886409 255.34441247064163 L 291.50679116555693 254.92714030070132 L 291.59702151950773 255.34266654356253 L 291.6868759101388 254.9288716781593 L 291.77635745685603 255.34094953460627 L 291.8654692418512 254.93057449673944 L 291.9542143080108 255.33926073120884 L 292.21827907000323 254.93389723785597 L 292.30558695548774 255.3359650059968 L 292.39254278988136 254.93551849473957 L 292.479149400803 255.33435677144706 L 292.565409581799 254.9371138632265 L 292.65132609403463 255.33277411524236 L 292.90704072948216 254.94022937636 L 292.9916095196197 255.32968313519797 L 293.0758479601643 254.9417506940916 L 293.15975862140607 255.3281736566772 L 293.24334404546624 254.94324847106932 L 293.3266067422801 255.32668744570097 L 293.57448315864167 254.9461755550671 L 293.6564794923382 255.32378270713093 L 293.73816523161236 254.9476058975527 L 293.81954271976997 255.32236315982215 L 294.0618487293252 254.95040265646625 L 294.14201613397034 255.31958727338196 L 294.221886620198 254.95177001819906 L 294.4597383588419 255.31689258305624 L 294.5384428434732 254.95444496616625 L 294.61686112774225 255.31557458122307 L 294.85041940656953 254.9570430752599 L 294.9277134059553 255.31299516450892 L 295.0047313535832 254.9583143424895 L 295.2341484276903 255.31048853570763 L 295.3100816076947 254.96080325573342 L 295.38574835297686 255.3092615607135 L 295.61116852108614 254.96322315219112 L 295.68578796929046 255.30685846988567 L 295.9081095075967 254.96557686332736 L 295.9817102533004 255.30452088079895 L 296.201017196169 254.96786706781234 L 296.27362667964803 255.30224615136012 L 296.489999687401 254.9700963016912 L 296.5616442543338 255.30003177968695 L 296.77516079317456 254.97226696775184 L 296.98658398951505 255.2968182404843 L 297.05660026085945 254.9743813441639 L 297.26529536164753 255.29474465671012 L 297.47199015111966 254.9774520639624 L 297.54045049638916 255.29272365200362 L 297.65625 255.22671652079327 L 297.7445370998863 254.97943493578057 L 297.9467103552812 255.28978643768392 L 298.1470058062086 254.98231758519992 L 298.34545801419165 255.2869568466397 L 298.5421005958003 254.98509556943904 L 298.7369662558845 255.2842290701076 L 298.9300868200936 254.98777448724 L 299.12149326786255 255.2815977099594 L 299.4140625 255.0751186549254 L 299.609375 255.24200734411875 L 299.8091307056831 254.993668615488 L 300.09765625 255.2246747453746 L 300.29580820495966 254.99683000062063 L 300.59449691574764 255.27194094502119 L 300.87890625 255.02028258812723 L 301.17974257026816 255.2682835696044 L 301.46651511486857 255.00414879448354 L 301.953125 255.18907781992985 L 302.24976505890845 255.0088281604466 L 302.83203125 255.22014875482688 L 303.41796875 255.02882625901117 L 304.58984375 255.24875610505362 L 305.859375 255.12995311966972 L 306.34765625 255.04100161710159 L 307.03125 255.15771761728777 L 307.32421875 255.043631867197 L 307.7059502138694 255.23356781562586 L 307.91015625 255.05498208371344 L 308.10546875 255.12088983718127 L 308.2118963140749 255.2312900236387 L 308.5837152263017 255.04102632880617 L 308.69140625 255.17412137030075 L 308.88671875 255.14996171531996 L 309.06970676978585 255.04312798403308 L 309.1796875 255.20085028066066 L 309.375 255.08722133966802 L 309.3877211814796 255.04447781197476 L 309.58412473519775 255.22537457954527 L 309.7787556671395 255.0461105216209 L 309.9716456885935 255.22377107936794 L 310.23882560585486 255.04799395339796 L 310.427661839105 255.2219206933219 L 310.4652314651577 255.04890616381405 L 310.72640198956066 255.22072953052688 L 310.7634551937586 255.05009321186157 L 311.0210601606302 255.2195706978645 L 311.0576109476689 255.05124809601892 L 311.3117464025113 255.21844289671773 L 311.3478082150229 255.05237210606685 L 311.59856637409655 255.2173448971002 L 311.71875 255.10621608952107 L 311.7405583832383 255.21680670615183 L 311.9868167001433 255.0547944707433 L 312.02176801753467 255.21575124180646 L 312.26485385355153 255.05582625455887 L 312.3046875 255.20554258623574 L 312.4710542236867 255.05658290965405 L 312.50523007492734 255.21396852661792 L 312.64139442649 255.2134736062552 L 313.07808293713924 255.05876886694128 L 313.17761368446793 255.21155469785657 L 313.2766871675386 255.0594708002495 L 313.3753075688189 255.2108591847735 L 313.47347901304374 255.06015998079062 L 313.5712055696924 255.21017625068055 L 313.66849125287933 255.06083675297563 L 313.76534002237526 255.20950555738204 L 313.9577423957582 255.20884677869836 L 314.11677671645754 255.0623694770343 L 314.21163737971386 255.20798639864333 L 314.30608259325334 255.0630072216447 L 314.40011598014837 255.20735421584064 L 314.5559328123102 255.06384040658264 L 314.6488853513163 255.20652822407413 L 314.8948176591183 255.2057209649403 L 314.9863239719407 255.06525320481114 L 315.1379768844583 255.20493180832932 L 315.2885707587368 255.06622863811424 L 315.3784248681107 255.20416015207797 L 315.5273547071855 255.06698965062915 L 315.72265625 255.15812993281332 L 315.82216387541126 255.06791766741136 L 316.015625 255.16317799325313 L 316.2109375 255.1562118457678 L 316.4568973187386 255.06987317064844 L 316.69921875 255.14966941793566 L 316.89453125 255.12531587470167 L 317.08984375 255.15351532200043 L 317.28515625 255.09850980736232 L 317.4297083725433 255.19791542558235 L 317.7734375 255.09192552766132 L 318.06640625 255.18178126768214 L 318.45703125 255.0978969939829 L 318.9453125 255.17959805200374 L 319.921875 255.09129926784865 L 322.4609375 255.13440368844442 L 322.65625 255.15375065842727 L 323.0027476964689 255.18366423148677 L 323.2421875 255.13113997871156 L 323.58254125467136 255.18238224897573 L 323.6844551993105 255.08851570047665 L 324.0274036410109 255.18142171816788 L 324.36498342194966 255.0899702101425 L 324.56111892820337 255.0903809649404 L 325.04379239310975 255.179300115952 L 325.19599381916794 255.17899093233444 L 325.34712855936016 255.1786860673013 L 325.87890625 255.1224762550355 L 326.06911276629455 255.09341732541037 L 326.7578125 255.12756908095668 L 326.953125 255.12716453382387 L 327.24609375 255.12848879102293 L 327.5390625 255.128561118671 L 328.02734375 255.14655415375822 L 328.90625 255.14125005747667 L 329.4921875 255.10896859372613 L 330.4081486142852 255.10105769694283 L 330.98109307569405 255.16871967095648 L 331.2118135496246 255.1683644294674 L 331.34765625 255.13541301161808 L 332.2752376120794 255.1667753170037 L 332.71484375 255.13255354463203 L 333.10553376899264 255.1655879218442 L 333.3984375 255.140233246894 L 333.88671875 255.13050152555573 L 334.375 255.13812224298601 L 335.7421875 255.1340039912134 L 336.25358996685054 255.16147922953792 L 336.66961072557683 255.10969638758414 L 337.034004073935 255.16055012014397 L 337.30601761672506 255.11044204706675 L 337.57464276079486 255.15992590506613 L 338.0859375 255.13883491303102 L 338.671875 255.12894485389828 L 339.258415280971 255.15807914325282 L 344.62890625 255.13386818350818 L 345.3744330533163 255.1524634833226 L 345.6184834138204 255.11840537985486 L 346.38671875 255.12797528813903 L 347.9313522418388 255.12012743666025 L 348.046875 255.13369109758372 L 355.2260151763538 255.12449279153572 L 356.152542441566 255.1457272619353 L 358.65866100844744 255.12608872578352 L 362.49412920245163 255.14308035564588 L 363.53451477568353 255.1279604458651 L 364.58506997580616 255.12831123946677 L 365.23436684382216 255.12851965638617 L 366.2109375 255.13792700074168 L 367.5299894574913 255.12920818986447 L 368.9939329985582 255.14106563877561 L 370.89736276993904 255.14058176402 L 370.99609375 255.1345811598281 L 380.61518716478895 255.13199665696362 L 384.5189888934226 255.13812619948513 L 387.59768452214234 255.132920883829 L 390.52734375 255.13701714685126 L 393.84765625 255.1337123222539 L 398.3964792414337 255.13387308316194 L 400 255.13486711882052" stroke-linecap="round" stroke-linejoin="round" stroke-miterlimit="10" stroke-width="2.5" stroke-opacity="0.9" stroke-dasharray=""/></g></g><g id="sketch-3d0b7288"><title>Expression 3</title><path fill="#388c46" stroke="none" paint-order="stroke fill markers" d="" fill-opacity="0.4"/><g><path fill="none" stroke="#388c46" class="dcg-svg-curve" paint-order="fill stroke markers" d=" M 0 99.13916324042813 L 0 99.13916324042813 L 400 99.13916324042813" stroke-linecap="round" stroke-linejoin="round" stroke-miterlimit="10" stroke-width="2.5" stroke-opacity="0.9" stroke-dasharray=""/></g></g></g><g id="labels-3d0b7288"/></g></svg>