<?xml-stylesheet type="text/css" href="svg.css" ?>
<svg version="1.1" xmlns="http://www.w3.org/2000/svg" xmlns:xlink="http://www.w3.org/1999/xlink" width="800" height="800" viewBox="0 0 800 800"><defs/><g transform="scale(2,2)"><g id="background-0159e25b"><rect fill="white" stroke="none" x="0" y="0" width="400" height="400" class="dcg-svg-background"/></g><g id="background-images-0159e25b"/><g id="graphpaper-0159e25b"><g id="axis-0159e25b"><g id="yaxis-0159e25b"><title>Y axis</title><g><path fill="none" stroke="rgb(0,0,0)" class="dcg-svg-axis-line" paint-order="fill stroke markers" d=" M 199 3 L 199 397" stroke-opacity="0.9" stroke-miterlimit="10" stroke-width="1.5" stroke-dasharray=""/><g class="dcg-svg-axis-line"><path fill="rgb(0,0,0)" stroke="rgb(0,0,0)" class="dcg-svg-axis-line" paint-order="stroke fill markers" d=" M 199 398.5 L 195.89417145876976 386.9088900845312 L 202.10582854123024 386.9088900845312 L 199 398.5 L 195.89417145876976 386.9088900845312" stroke-opacity="0.9" stroke-linejoin="round" stroke-miterlimit="10" stroke-width="1.5" stroke-dasharray="" fill-opacity="0.9"/></g><g class="dcg-svg-axis-line"><path fill="rgb(0,0,0)" stroke="rgb(0,0,0)" class="dcg-svg-axis-line" paint-order="stroke fill markers" d=" M 199 1.5 L 202.10582854123024 13.09110991546882 L 195.89417145876976 13.09110991546882 L 199 1.5 L 202.10582854123024 13.09110991546882" stroke-opacity="0.9" stroke-linejoin="round" stroke-miterlimit="10" stroke-width="1.5" stroke-dasharray="" fill-opacity="0.9"/></g></g></g><g id="xaxis-0159e25b"><title>X axis</title><g><path fill="none" stroke="rgb(0,0,0)" class="dcg-svg-axis-line" paint-order="fill stroke markers" d=" M 3 208 L 397 208" stroke-opacity="0.9" stroke-miterlimit="10" stroke-width="1.5" stroke-dasharray=""/><g class="dcg-svg-axis-line"><path fill="rgb(0,0,0)" stroke="rgb(0,0,0)" class="dcg-svg-axis-line" paint-order="stroke fill markers" d=" M 1.5 208 L 13.09110991546882 204.89417145876976 L 13.09110991546882 211.10582854123024 L 1.5 208 L 13.09110991546882 204.89417145876976" stroke-opacity="0.9" stroke-linejoin="round" stroke-miterlimit="10" stroke-width="1.5" stroke-dasharray="" fill-opacity="0.9"/></g><g class="dcg-svg-axis-line"><path fill="rgb(0,0,0)" stroke="rgb(0,0,0)" class="dcg-svg-axis-line" paint-order="stroke fill markers" d=" M 398.5 208 L 386.9088900845312 211.10582854123027 L 386.9088900845312 204.89417145876976 L 398.5 208 L 386.9088900845312 211.10582854123027" stroke-opacity="0.9" stroke-linejoin="round" stroke-miterlimit="10" stroke-width="1.5" stroke-dasharray="" fill-opacity="0.9"/></g></g></g><g><g><path fill="none" stroke="rgb(0,0,0)" class="dcg-svg-tickmark" paint-order="fill stroke markers" d="" stroke-opacity="0.9" stroke-miterlimit="2" stroke-width="1.5" stroke-dasharray=""/></g></g></g></g><g id="expressions-0159e25b"><g id="sketch-0159e25b"><title>Expression 18</title><path fill="none" stroke="#388c46" class="dcg-svg-point" paint-order="fill stroke markers" d=" M 198.8409899361339 236.5823273087415 L 198.8409899361339 236.7823273087415 L 199.04098993613388 236.7823273087415 L 199.04098993613388 236.5823273087415" stroke-linecap="round" stroke-linejoin="round" stroke-miterlimit="10" stroke-width="7.5" stroke-opacity="0.9" stroke-dasharray=""/><path fill="none" stroke="#388c46" class="dcg-svg-point" paint-order="fill stroke markers" d=" M 198.8409899361339 179.0338782692826 L 198.8409899361339 179.2338782692826 L 199.04098993613388 179.2338782692826 L 199.04098993613388 179.0338782692826" stroke-linecap="round" stroke-linejoin="round" stroke-miterlimit="10" stroke-width="7.5" stroke-opacity="0.9" stroke-dasharray=""/><path fill="none" stroke="#388c46" class="dcg-svg-point" paint-order="fill stroke markers" d=" M 227.61521445586334 179.0338782692826 L 227.61521445586334 179.2338782692826 L 227.81521445586333 179.2338782692826 L 227.81521445586333 179.0338782692826" stroke-linecap="round" stroke-linejoin="round" stroke-miterlimit="10" stroke-width="7.5" stroke-opacity="0.9" stroke-dasharray=""/><path fill="none" stroke="#388c46" class="dcg-svg-point" paint-order="fill stroke markers" d=" M 227.61521445586334 207.80810278901205 L 227.61521445586334 208.00810278901204 L 227.81521445586333 208.00810278901204 L 227.81521445586333 207.80810278901205" stroke-linecap="round" stroke-linejoin="round" stroke-miterlimit="10" stroke-width="7.5" stroke-opacity="0.9" stroke-dasharray=""/><path fill="none" stroke="#388c46" class="dcg-svg-point" paint-order="fill stroke markers" d=" M 227.61521445586334 236.5823273087415 L 227.61521445586334 236.7823273087415 L 227.81521445586333 236.7823273087415 L 227.81521445586333 236.5823273087415" stroke-linecap="round" stroke-linejoin="round" stroke-miterlimit="10" stroke-width="7.5" stroke-opacity="0.9" stroke-dasharray=""/><path fill="none" stroke="#388c46" class="dcg-svg-point" paint-order="fill stroke markers" d=" M 198.8409899361339 236.5823273087415 L 198.8409899361339 236.7823273087415 L 199.04098993613388 236.7823273087415 L 199.04098993613388 236.5823273087415" stroke-linecap="round" stroke-linejoin="round" stroke-miterlimit="10" stroke-width="7.5" stroke-opacity="0.9" stroke-dasharray=""/><path fill="none" stroke="#388c46" class="dcg-svg-point" paint-order="fill stroke markers" d=" M 170.06676541640445 236.5823273087415 L 170.06676541640445 236.7823273087415 L 170.26676541640444 236.7823273087415 L 170.26676541640444 236.5823273087415" stroke-linecap="round" stroke-linejoin="round" stroke-miterlimit="10" stroke-width="7.5" stroke-opacity="0.9" stroke-dasharray=""/><path fill="none" stroke="#388c46" class="dcg-svg-point" paint-order="fill stroke markers" d=" M 170.06676541640445 207.80810278901205 L 170.06676541640445 208.00810278901204 L 170.26676541640444 208.00810278901204 L 170.26676541640444 207.80810278901205" stroke-linecap="round" stroke-linejoin="round" stroke-miterlimit="10" stroke-width="7.5" stroke-opacity="0.9" stroke-dasharray=""/><path fill="none" stroke="#388c46" class="dcg-svg-point" paint-order="fill stroke markers" d=" M 170.06676541640445 179.0338782692826 L 170.06676541640445 179.2338782692826 L 170.26676541640444 179.2338782692826 L 170.26676541640444 179.0338782692826" stroke-linecap="round" stroke-linejoin="round" stroke-miterlimit="10" stroke-width="7.5" stroke-opacity="0.9" stroke-dasharray=""/><path fill="none" stroke="#388c46" class="dcg-svg-point" paint-order="fill stroke markers" d=" M 170.06676541640445 150.2596537495532 L 170.06676541640445 150.45965374955318 L 170.26676541640444 150.45965374955318 L 170.26676541640444 150.2596537495532" stroke-linecap="round" stroke-linejoin="round" stroke-miterlimit="10" stroke-width="7.5" stroke-opacity="0.9" stroke-dasharray=""/><path fill="none" stroke="#388c46" class="dcg-svg-point" paint-order="fill stroke markers" d=" M 198.8409899361339 150.2596537495532 L 198.8409899361339 150.45965374955318 L 199.04098993613388 150.45965374955318 L 199.04098993613388 150.2596537495532" stroke-linecap="round" stroke-linejoin="round" stroke-miterlimit="10" stroke-width="7.5" stroke-opacity="0.9" stroke-dasharray=""/><path fill="none" stroke="#388c46" class="dcg-svg-point" paint-order="fill stroke markers" d=" M 227.61521445586334 150.2596537495532 L 227.61521445586334 150.45965374955318 L 227.81521445586333 150.45965374955318 L 227.81521445586333 150.2596537495532" stroke-linecap="round" stroke-linejoin="round" stroke-miterlimit="10" stroke-width="7.5" stroke-opacity="0.9" stroke-dasharray=""/><path fill="none" stroke="#388c46" class="dcg-svg-point" paint-order="fill stroke markers" d=" M 256.3894389755927 150.2596537495532 L 256.3894389755927 150.45965374955318 L 256.58943897559277 150.45965374955318 L 256.58943897559277 150.2596537495532" stroke-linecap="round" stroke-linejoin="round" stroke-miterlimit="10" stroke-width="7.5" stroke-opacity="0.9" stroke-dasharray=""/><path fill="none" stroke="#388c46" class="dcg-svg-point" paint-order="fill stroke markers" d=" M 256.3894389755927 179.0338782692826 L 256.3894389755927 179.2338782692826 L 256.58943897559277 179.2338782692826 L 256.58943897559277 179.0338782692826" stroke-linecap="round" stroke-linejoin="round" stroke-miterlimit="10" stroke-width="7.5" stroke-opacity="0.9" stroke-dasharray=""/><path fill="none" stroke="#388c46" class="dcg-svg-point" paint-order="fill stroke markers" d=" M 256.3894389755927 207.80810278901205 L 256.3894389755927 208.00810278901204 L 256.58943897559277 208.00810278901204 L 256.58943897559277 207.80810278901205" stroke-linecap="round" stroke-linejoin="round" stroke-miterlimit="10" stroke-width="7.5" stroke-opacity="0.9" stroke-dasharray=""/><path fill="none" stroke="#388c46" class="dcg-svg-point" paint-order="fill stroke markers" d=" M 256.3894389755927 236.5823273087415 L 256.3894389755927 236.7823273087415 L 256.58943897559277 236.7823273087415 L 256.58943897559277 236.5823273087415" stroke-linecap="round" stroke-linejoin="round" stroke-miterlimit="10" stroke-width="7.5" stroke-opacity="0.9" stroke-dasharray=""/><path fill="none" stroke="#388c46" class="dcg-svg-point" paint-order="fill stroke markers" d=" M 256.3894389755927 265.3565518284709 L 256.3894389755927 265.55655182847096 L 256.58943897559277 265.55655182847096 L 256.58943897559277 265.3565518284709" stroke-linecap="round" stroke-linejoin="round" stroke-miterlimit="10" stroke-width="7.5" stroke-opacity="0.9" stroke-dasharray=""/><path fill="none" stroke="#388c46" class="dcg-svg-point" paint-order="fill stroke markers" d=" M 227.61521445586334 265.3565518284709 L 227.61521445586334 265.55655182847096 L 227.81521445586333 265.55655182847096 L 227.81521445586333 265.3565518284709" stroke-linecap="round" stroke-linejoin="round" stroke-miterlimit="10" stroke-width="7.5" stroke-opacity="0.9" stroke-dasharray=""/><path fill="none" stroke="#388c46" class="dcg-svg-point" paint-order="fill stroke markers" d=" M 198.8409899361339 265.3565518284709 L 198.8409899361339 265.55655182847096 L 199.04098993613388 265.55655182847096 L 199.04098993613388 265.3565518284709" stroke-linecap="round" stroke-linejoin="round" stroke-miterlimit="10" stroke-width="7.5" stroke-opacity="0.9" stroke-dasharray=""/><path fill="none" stroke="#388c46" class="dcg-svg-point" paint-order="fill stroke markers" d=" M 170.06676541640445 265.3565518284709 L 170.06676541640445 265.55655182847096 L 170.26676541640444 265.55655182847096 L 170.26676541640444 265.3565518284709" stroke-linecap="round" stroke-linejoin="round" stroke-miterlimit="10" stroke-width="7.5" stroke-opacity="0.9" stroke-dasharray=""/><path fill="none" stroke="#388c46" class="dcg-svg-point" paint-order="fill stroke markers" d=" M 141.29254089667504 265.3565518284709 L 141.29254089667504 265.55655182847096 L 141.49254089667502 265.55655182847096 L 141.49254089667502 265.3565518284709" stroke-linecap="round" stroke-linejoin="round" stroke-miterlimit="10" stroke-width="7.5" stroke-opacity="0.9" stroke-dasharray=""/><path fill="none" stroke="#388c46" class="dcg-svg-point" paint-order="fill stroke markers" d=" M 141.29254089667504 236.5823273087415 L 141.29254089667504 236.7823273087415 L 141.49254089667502 236.7823273087415 L 141.49254089667502 236.5823273087415" stroke-linecap="round" stroke-linejoin="round" stroke-miterlimit="10" stroke-width="7.5" stroke-opacity="0.9" stroke-dasharray=""/><path fill="none" stroke="#388c46" class="dcg-svg-point" paint-order="fill stroke markers" d=" M 141.29254089667504 207.80810278901205 L 141.29254089667504 208.00810278901204 L 141.49254089667502 208.00810278901204 L 141.49254089667502 207.80810278901205" stroke-linecap="round" stroke-linejoin="round" stroke-miterlimit="10" stroke-width="7.5" stroke-opacity="0.9" stroke-dasharray=""/><path fill="none" stroke="#388c46" class="dcg-svg-point" paint-order="fill stroke markers" d=" M 141.29254089667504 179.0338782692826 L 141.29254089667504 179.2338782692826 L 141.49254089667502 179.2338782692826 L 141.49254089667502 179.0338782692826" stroke-linecap="round" stroke-linejoin="round" stroke-miterlimit="10" stroke-width="7.5" stroke-opacity="0.9" stroke-dasharray=""/><path fill="none" stroke="#388c46" class="dcg-svg-point" paint-order="fill stroke markers" d=" M 141.29254089667504 150.2596537495532 L 141.29254089667504 150.45965374955318 L 141.49254089667502 150.45965374955318 L 141.49254089667502 150.2596537495532" stroke-linecap="round" stroke-linejoin="round" stroke-miterlimit="10" stroke-width="7.5" stroke-opacity="0.9" stroke-dasharray=""/><path fill="none" stroke="#388c46" class="dcg-svg-point" paint-order="fill stroke markers" d=" M 141.29254089667504 121.48542922982375 L 141.29254089667504 121.68542922982374 L 141.49254089667502 121.68542922982374 L 141.49254089667502 121.48542922982375" stroke-linecap="round" stroke-linejoin="round" stroke-miterlimit="10" stroke-width="7.5" stroke-opacity="0.9" stroke-dasharray=""/><path fill="none" stroke="#388c46" class="dcg-svg-point" paint-order="fill stroke markers" d=" M 170.06676541640445 121.48542922982375 L 170.06676541640445 121.68542922982374 L 170.26676541640444 121.68542922982374 L 170.26676541640444 121.48542922982375" stroke-linecap="round" stroke-linejoin="round" stroke-miterlimit="10" stroke-width="7.5" stroke-opacity="0.9" stroke-dasharray=""/><path fill="none" stroke="#388c46" class="dcg-svg-point" paint-order="fill stroke markers" d=" M 198.8409899361339 121.48542922982375 L 198.8409899361339 121.68542922982374 L 199.04098993613388 121.68542922982374 L 199.04098993613388 121.48542922982375" stroke-linecap="round" stroke-linejoin="round" stroke-miterlimit="10" stroke-width="7.5" stroke-opacity="0.9" stroke-dasharray=""/><path fill="none" stroke="#388c46" class="dcg-svg-point" paint-order="fill stroke markers" d=" M 227.61521445586334 121.48542922982375 L 227.61521445586334 121.68542922982374 L 227.81521445586333 121.68542922982374 L 227.81521445586333 121.48542922982375" stroke-linecap="round" stroke-linejoin="round" stroke-miterlimit="10" stroke-width="7.5" stroke-opacity="0.9" stroke-dasharray=""/><path fill="none" stroke="#388c46" class="dcg-svg-point" paint-order="fill stroke markers" d=" M 256.3894389755927 121.48542922982375 L 256.3894389755927 121.68542922982374 L 256.58943897559277 121.68542922982374 L 256.58943897559277 121.48542922982375" stroke-linecap="round" stroke-linejoin="round" stroke-miterlimit="10" stroke-width="7.5" stroke-opacity="0.9" stroke-dasharray=""/><path fill="none" stroke="#388c46" class="dcg-svg-point" paint-order="fill stroke markers" d=" M 285.16366349532217 121.48542922982375 L 285.16366349532217 121.68542922982374 L 285.3636634953222 121.68542922982374 L 285.3636634953222 121.48542922982375" stroke-linecap="round" stroke-linejoin="round" stroke-miterlimit="10" stroke-width="7.5" stroke-opacity="0.9" stroke-dasharray=""/><path fill="none" stroke="#388c46" class="dcg-svg-point" paint-order="fill stroke markers" d=" M 285.16366349532217 150.2596537495532 L 285.16366349532217 150.45965374955318 L 285.3636634953222 150.45965374955318 L 285.3636634953222 150.2596537495532" stroke-linecap="round" stroke-linejoin="round" stroke-miterlimit="10" stroke-width="7.5" stroke-opacity="0.9" stroke-dasharray=""/><path fill="none" stroke="#388c46" class="dcg-svg-point" paint-order="fill stroke markers" d=" M 285.16366349532217 179.0338782692826 L 285.16366349532217 179.2338782692826 L 285.3636634953222 179.2338782692826 L 285.3636634953222 179.0338782692826" stroke-linecap="round" stroke-linejoin="round" stroke-miterlimit="10" stroke-width="7.5" stroke-opacity="0.9" stroke-dasharray=""/><path fill="none" stroke="#388c46" class="dcg-svg-point" paint-order="fill stroke markers" d=" M 285.16366349532217 207.80810278901205 L 285.16366349532217 208.00810278901204 L 285.3636634953222 208.00810278901204 L 285.3636634953222 207.80810278901205" stroke-linecap="round" stroke-linejoin="round" stroke-miterlimit="10" stroke-width="7.5" stroke-opacity="0.9" stroke-dasharray=""/><path fill="none" stroke="#388c46" class="dcg-svg-point" paint-order="fill stroke markers" d=" M 285.16366349532217 236.5823273087415 L 285.16366349532217 236.7823273087415 L 285.3636634953222 236.7823273087415 L 285.3636634953222 236.5823273087415" stroke-linecap="round" stroke-linejoin="round" stroke-miterlimit="10" stroke-width="7.5" stroke-opacity="0.9" stroke-dasharray=""/><path fill="none" stroke="#388c46" class="dcg-svg-point" paint-order="fill stroke markers" d=" M 285.16366349532217 265.3565518284709 L 285.16366349532217 265.55655182847096 L 285.3636634953222 265.55655182847096 L 285.3636634953222 265.3565518284709" stroke-linecap="round" stroke-linejoin="round" stroke-miterlimit="10" stroke-width="7.5" stroke-opacity="0.9" stroke-dasharray=""/><path fill="none" stroke="#388c46" class="dcg-svg-point" paint-order="fill stroke markers" d=" M 285.16366349532217 294.13077634820036 L 285.16366349532217 294.3307763482004 L 285.3636634953222 294.3307763482004 L 285.3636634953222 294.13077634820036" stroke-linecap="round" stroke-linejoin="round" stroke-miterlimit="10" stroke-width="7.5" stroke-opacity="0.9" stroke-dasharray=""/><path fill="none" stroke="#388c46" class="dcg-svg-point" paint-order="fill stroke markers" d=" M 256.3894389755927 294.13077634820036 L 256.3894389755927 294.3307763482004 L 256.58943897559277 294.3307763482004 L 256.58943897559277 294.13077634820036" stroke-linecap="round" stroke-linejoin="round" stroke-miterlimit="10" stroke-width="7.5" stroke-opacity="0.9" stroke-dasharray=""/><path fill="none" stroke="#388c46" class="dcg-svg-point" paint-order="fill stroke markers" d=" M 227.61521445586334 294.13077634820036 L 227.61521445586334 294.3307763482004 L 227.81521445586333 294.3307763482004 L 227.81521445586333 294.13077634820036" stroke-linecap="round" stroke-linejoin="round" stroke-miterlimit="10" stroke-width="7.5" stroke-opacity="0.9" stroke-dasharray=""/><path fill="none" stroke="#388c46" class="dcg-svg-point" paint-order="fill stroke markers" d=" M 198.8409899361339 294.13077634820036 L 198.8409899361339 294.3307763482004 L 199.04098993613388 294.3307763482004 L 199.04098993613388 294.13077634820036" stroke-linecap="round" stroke-linejoin="round" stroke-miterlimit="10" stroke-width="7.5" stroke-opacity="0.9" stroke-dasharray=""/><path fill="none" stroke="#388c46" class="dcg-svg-point" paint-order="fill stroke markers" d=" M 170.06676541640445 294.13077634820036 L 170.06676541640445 294.3307763482004 L 170.26676541640444 294.3307763482004 L 170.26676541640444 294.13077634820036" stroke-linecap="round" stroke-linejoin="round" stroke-miterlimit="10" stroke-width="7.5" stroke-opacity="0.9" stroke-dasharray=""/><path fill="none" stroke="#388c46" class="dcg-svg-point" paint-order="fill stroke markers" d=" M 141.29254089667504 294.13077634820036 L 141.29254089667504 294.3307763482004 L 141.49254089667502 294.3307763482004 L 141.49254089667502 294.13077634820036" stroke-linecap="round" stroke-linejoin="round" stroke-miterlimit="10" stroke-width="7.5" stroke-opacity="0.9" stroke-dasharray=""/><path fill="none" stroke="#388c46" class="dcg-svg-point" paint-order="fill stroke markers" d=" M 112.51831637694559 294.13077634820036 L 112.51831637694559 294.3307763482004 L 112.71831637694558 294.3307763482004 L 112.71831637694558 294.13077634820036" stroke-linecap="round" stroke-linejoin="round" stroke-miterlimit="10" stroke-width="7.5" stroke-opacity="0.9" stroke-dasharray=""/><path fill="none" stroke="#388c46" class="dcg-svg-point" paint-order="fill stroke markers" d=" M 112.51831637694559 265.3565518284709 L 112.51831637694559 265.55655182847096 L 112.71831637694558 265.55655182847096 L 112.71831637694558 265.3565518284709" stroke-linecap="round" stroke-linejoin="round" stroke-miterlimit="10" stroke-width="7.5" stroke-opacity="0.9" stroke-dasharray=""/><path fill="none" stroke="#388c46" class="dcg-svg-point" paint-order="fill stroke markers" d=" M 112.51831637694559 236.5823273087415 L 112.51831637694559 236.7823273087415 L 112.71831637694558 236.7823273087415 L 112.71831637694558 236.5823273087415" stroke-linecap="round" stroke-linejoin="round" stroke-miterlimit="10" stroke-width="7.5" stroke-opacity="0.9" stroke-dasharray=""/><path fill="none" stroke="#388c46" class="dcg-svg-point" paint-order="fill stroke markers" d=" M 112.51831637694559 207.80810278901205 L 112.51831637694559 208.00810278901204 L 112.71831637694558 208.00810278901204 L 112.71831637694558 207.80810278901205" stroke-linecap="round" stroke-linejoin="round" stroke-miterlimit="10" stroke-width="7.5" stroke-opacity="0.9" stroke-dasharray=""/><path fill="none" stroke="#388c46" class="dcg-svg-point" paint-order="fill stroke markers" d=" M 112.51831637694559 179.0338782692826 L 112.51831637694559 179.2338782692826 L 112.71831637694558 179.2338782692826 L 112.71831637694558 179.0338782692826" stroke-linecap="round" stroke-linejoin="round" stroke-miterlimit="10" stroke-width="7.5" stroke-opacity="0.9" stroke-dasharray=""/><path fill="none" stroke="#388c46" class="dcg-svg-point" paint-order="fill stroke markers" d=" M 112.51831637694559 150.2596537495532 L 112.51831637694559 150.45965374955318 L 112.71831637694558 150.45965374955318 L 112.71831637694558 150.2596537495532" stroke-linecap="round" stroke-linejoin="round" stroke-miterlimit="10" stroke-width="7.5" stroke-opacity="0.9" stroke-dasharray=""/><path fill="none" stroke="#388c46" class="dcg-svg-point" paint-order="fill stroke markers" d=" M 112.51831637694559 121.48542922982375 L 112.51831637694559 121.68542922982374 L 112.71831637694558 121.68542922982374 L 112.71831637694558 121.48542922982375" stroke-linecap="round" stroke-linejoin="round" stroke-miterlimit="10" stroke-width="7.5" stroke-opacity="0.9" stroke-dasharray=""/><path fill="none" stroke="#388c46" class="dcg-svg-point" paint-order="fill stroke markers" d=" M 112.51831637694559 92.71120471009432 L 112.51831637694559 92.91120471009431 L 112.71831637694558 92.91120471009431 L 112.71831637694558 92.71120471009432" stroke-linecap="round" stroke-linejoin="round" stroke-miterlimit="10" stroke-width="7.5" stroke-opacity="0.9" stroke-dasharray=""/><path fill="none" stroke="#388c46" class="dcg-svg-point" paint-order="fill stroke markers" d=" M 141.29254089667504 92.71120471009432 L 141.29254089667504 92.91120471009431 L 141.49254089667502 92.91120471009431 L 141.49254089667502 92.71120471009432" stroke-linecap="round" stroke-linejoin="round" stroke-miterlimit="10" stroke-width="7.5" stroke-opacity="0.9" stroke-dasharray=""/><path fill="none" stroke="#388c46" class="dcg-svg-point" paint-order="fill stroke markers" d=" M 170.06676541640445 92.71120471009432 L 170.06676541640445 92.91120471009431 L 170.26676541640444 92.91120471009431 L 170.26676541640444 92.71120471009432" stroke-linecap="round" stroke-linejoin="round" stroke-miterlimit="10" stroke-width="7.5" stroke-opacity="0.9" stroke-dasharray=""/><path fill="none" stroke="#388c46" class="dcg-svg-point" paint-order="fill stroke markers" d=" M 198.8409899361339 92.71120471009432 L 198.8409899361339 92.91120471009431 L 199.04098993613388 92.91120471009431 L 199.04098993613388 92.71120471009432" stroke-linecap="round" stroke-linejoin="round" stroke-miterlimit="10" stroke-width="7.5" stroke-opacity="0.9" stroke-dasharray=""/><path fill="none" stroke="#388c46" class="dcg-svg-point" paint-order="fill stroke markers" d=" M 227.61521445586334 92.71120471009432 L 227.61521445586334 92.91120471009431 L 227.81521445586333 92.91120471009431 L 227.81521445586333 92.71120471009432" stroke-linecap="round" stroke-linejoin="round" stroke-miterlimit="10" stroke-width="7.5" stroke-opacity="0.9" stroke-dasharray=""/><path fill="none" stroke="#388c46" class="dcg-svg-point" paint-order="fill stroke markers" d=" M 256.3894389755927 92.71120471009432 L 256.3894389755927 92.91120471009431 L 256.58943897559277 92.91120471009431 L 256.58943897559277 92.71120471009432" stroke-linecap="round" stroke-linejoin="round" stroke-miterlimit="10" stroke-width="7.5" stroke-opacity="0.9" stroke-dasharray=""/><path fill="none" stroke="#388c46" class="dcg-svg-point" paint-order="fill stroke markers" d=" M 285.16366349532217 92.71120471009432 L 285.16366349532217 92.91120471009431 L 285.3636634953222 92.91120471009431 L 285.3636634953222 92.71120471009432" stroke-linecap="round" stroke-linejoin="round" stroke-miterlimit="10" stroke-width="7.5" stroke-opacity="0.9" stroke-dasharray=""/><path fill="none" stroke="#388c46" class="dcg-svg-point" paint-order="fill stroke markers" d=" M 313.9378880150516 92.71120471009432 L 313.9378880150516 92.91120471009431 L 314.13788801505166 92.91120471009431 L 314.13788801505166 92.71120471009432" stroke-linecap="round" stroke-linejoin="round" stroke-miterlimit="10" stroke-width="7.5" stroke-opacity="0.9" stroke-dasharray=""/><path fill="none" stroke="#388c46" class="dcg-svg-point" paint-order="fill stroke markers" d=" M 313.9378880150516 121.48542922982375 L 313.9378880150516 121.68542922982374 L 314.13788801505166 121.68542922982374 L 314.13788801505166 121.48542922982375" stroke-linecap="round" stroke-linejoin="round" stroke-miterlimit="10" stroke-width="7.5" stroke-opacity="0.9" stroke-dasharray=""/><path fill="none" stroke="#388c46" class="dcg-svg-point" paint-order="fill stroke markers" d=" M 313.9378880150516 150.2596537495532 L 313.9378880150516 150.45965374955318 L 314.13788801505166 150.45965374955318 L 314.13788801505166 150.2596537495532" stroke-linecap="round" stroke-linejoin="round" stroke-miterlimit="10" stroke-width="7.5" stroke-opacity="0.9" stroke-dasharray=""/><path fill="none" stroke="#388c46" class="dcg-svg-point" paint-order="fill stroke markers" d=" M 313.9378880150516 179.0338782692826 L 313.9378880150516 179.2338782692826 L 314.13788801505166 179.2338782692826 L 314.13788801505166 179.0338782692826" stroke-linecap="round" stroke-linejoin="round" stroke-miterlimit="10" stroke-width="7.5" stroke-opacity="0.9" stroke-dasharray=""/><path fill="none" stroke="#388c46" class="dcg-svg-point" paint-order="fill stroke markers" d=" M 313.9378880150516 207.80810278901205 L 313.9378880150516 208.00810278901204 L 314.13788801505166 208.00810278901204 L 314.13788801505166 207.80810278901205" stroke-linecap="round" stroke-linejoin="round" stroke-miterlimit="10" stroke-width="7.5" stroke-opacity="0.9" stroke-dasharray=""/><path fill="none" stroke="#388c46" class="dcg-svg-point" paint-order="fill stroke markers" d=" M 313.9378880150516 236.5823273087415 L 313.9378880150516 236.7823273087415 L 314.13788801505166 236.7823273087415 L 314.13788801505166 236.5823273087415" stroke-linecap="round" stroke-linejoin="round" stroke-miterlimit="10" stroke-width="7.5" stroke-opacity="0.9" stroke-dasharray=""/><path fill="none" stroke="#388c46" class="dcg-svg-point" paint-order="fill stroke markers" d=" M 313.9378880150516 265.3565518284709 L 313.9378880150516 265.55655182847096 L 314.13788801505166 265.55655182847096 L 314.13788801505166 265.3565518284709" stroke-linecap="round" stroke-linejoin="round" stroke-miterlimit="10" stroke-width="7.5" stroke-opacity="0.9" stroke-dasharray=""/><path fill="none" stroke="#388c46" class="dcg-svg-point" paint-order="fill stroke markers" d=" M 313.9378880150516 294.13077634820036 L 313.9378880150516 294.3307763482004 L 314.13788801505166 294.3307763482004 L 314.13788801505166 294.13077634820036" stroke-linecap="round" stroke-linejoin="round" stroke-miterlimit="10" stroke-width="7.5" stroke-opacity="0.9" stroke-dasharray=""/><path fill="none" stroke="#388c46" class="dcg-svg-point" paint-order="fill stroke markers" d=" M 313.9378880150516 322.90500086792974 L 313.9378880150516 323.1050008679298 L 314.13788801505166 323.1050008679298 L 314.13788801505166 322.90500086792974" stroke-linecap="round" stroke-linejoin="round" stroke-miterlimit="10" stroke-width="7.5" stroke-opacity="0.9" stroke-dasharray=""/><path fill="none" stroke="#388c46" class="dcg-svg-point" paint-order="fill stroke markers" d=" M 285.16366349532217 322.90500086792974 L 285.16366349532217 323.1050008679298 L 285.3636634953222 323.1050008679298 L 285.3636634953222 322.90500086792974" stroke-linecap="round" stroke-linejoin="round" stroke-miterlimit="10" stroke-width="7.5" stroke-opacity="0.9" stroke-dasharray=""/><path fill="none" stroke="#388c46" class="dcg-svg-point" paint-order="fill stroke markers" d=" M 256.3894389755927 322.90500086792974 L 256.3894389755927 323.1050008679298 L 256.58943897559277 323.1050008679298 L 256.58943897559277 322.90500086792974" stroke-linecap="round" stroke-linejoin="round" stroke-miterlimit="10" stroke-width="7.5" stroke-opacity="0.9" stroke-dasharray=""/><path fill="none" stroke="#388c46" class="dcg-svg-point" paint-order="fill stroke markers" d=" M 227.61521445586334 322.90500086792974 L 227.61521445586334 323.1050008679298 L 227.81521445586333 323.1050008679298 L 227.81521445586333 322.90500086792974" stroke-linecap="round" stroke-linejoin="round" stroke-miterlimit="10" stroke-width="7.5" stroke-opacity="0.9" stroke-dasharray=""/><path fill="none" stroke="#388c46" class="dcg-svg-point" paint-order="fill stroke markers" d=" M 198.8409899361339 322.90500086792974 L 198.8409899361339 323.1050008679298 L 199.04098993613388 323.1050008679298 L 199.04098993613388 322.90500086792974" stroke-linecap="round" stroke-linejoin="round" stroke-miterlimit="10" stroke-width="7.5" stroke-opacity="0.9" stroke-dasharray=""/><path fill="none" stroke="#388c46" class="dcg-svg-point" paint-order="fill stroke markers" d=" M 170.06676541640445 322.90500086792974 L 170.06676541640445 323.1050008679298 L 170.26676541640444 323.1050008679298 L 170.26676541640444 322.90500086792974" stroke-linecap="round" stroke-linejoin="round" stroke-miterlimit="10" stroke-width="7.5" stroke-opacity="0.9" stroke-dasharray=""/><path fill="none" stroke="#388c46" class="dcg-svg-point" paint-order="fill stroke markers" d=" M 141.29254089667504 322.90500086792974 L 141.29254089667504 323.1050008679298 L 141.49254089667502 323.1050008679298 L 141.49254089667502 322.90500086792974" stroke-linecap="round" stroke-linejoin="round" stroke-miterlimit="10" stroke-width="7.5" stroke-opacity="0.9" stroke-dasharray=""/><path fill="none" stroke="#388c46" class="dcg-svg-point" paint-order="fill stroke markers" d=" M 112.51831637694559 322.90500086792974 L 112.51831637694559 323.1050008679298 L 112.71831637694558 323.1050008679298 L 112.71831637694558 322.90500086792974" stroke-linecap="round" stroke-linejoin="round" stroke-miterlimit="10" stroke-width="7.5" stroke-opacity="0.9" stroke-dasharray=""/><path fill="none" stroke="#388c46" class="dcg-svg-point" paint-order="fill stroke markers" d=" M 83.74409185721616 322.90500086792974 L 83.74409185721616 323.1050008679298 L 83.94409185721615 323.1050008679298 L 83.94409185721615 322.90500086792974" stroke-linecap="round" stroke-linejoin="round" stroke-miterlimit="10" stroke-width="7.5" stroke-opacity="0.9" stroke-dasharray=""/><path fill="none" stroke="#388c46" class="dcg-svg-point" paint-order="fill stroke markers" d=" M 83.74409185721616 294.13077634820036 L 83.74409185721616 294.3307763482004 L 83.94409185721615 294.3307763482004 L 83.94409185721615 294.13077634820036" stroke-linecap="round" stroke-linejoin="round" stroke-miterlimit="10" stroke-width="7.5" stroke-opacity="0.9" stroke-dasharray=""/><path fill="none" stroke="#388c46" class="dcg-svg-point" paint-order="fill stroke markers" d=" M 83.74409185721616 265.3565518284709 L 83.74409185721616 265.55655182847096 L 83.94409185721615 265.55655182847096 L 83.94409185721615 265.3565518284709" stroke-linecap="round" stroke-linejoin="round" stroke-miterlimit="10" stroke-width="7.5" stroke-opacity="0.9" stroke-dasharray=""/><path fill="none" stroke="#388c46" class="dcg-svg-point" paint-order="fill stroke markers" d=" M 83.74409185721616 236.5823273087415 L 83.74409185721616 236.7823273087415 L 83.94409185721615 236.7823273087415 L 83.94409185721615 236.5823273087415" stroke-linecap="round" stroke-linejoin="round" stroke-miterlimit="10" stroke-width="7.5" stroke-opacity="0.9" stroke-dasharray=""/><path fill="none" stroke="#388c46" class="dcg-svg-point" paint-order="fill stroke markers" d=" M 83.74409185721616 207.80810278901205 L 83.74409185721616 208.00810278901204 L 83.94409185721615 208.00810278901204 L 83.94409185721615 207.80810278901205" stroke-linecap="round" stroke-linejoin="round" stroke-miterlimit="10" stroke-width="7.5" stroke-opacity="0.9" stroke-dasharray=""/><path fill="none" stroke="#388c46" class="dcg-svg-point" paint-order="fill stroke markers" d=" M 83.74409185721616 179.0338782692826 L 83.74409185721616 179.2338782692826 L 83.94409185721615 179.2338782692826 L 83.94409185721615 179.0338782692826" stroke-linecap="round" stroke-linejoin="round" stroke-miterlimit="10" stroke-width="7.5" stroke-opacity="0.9" stroke-dasharray=""/><path fill="none" stroke="#388c46" class="dcg-svg-point" paint-order="fill stroke markers" d=" M 83.74409185721616 150.2596537495532 L 83.74409185721616 150.45965374955318 L 83.94409185721615 150.45965374955318 L 83.94409185721615 150.2596537495532" stroke-linecap="round" stroke-linejoin="round" stroke-miterlimit="10" stroke-width="7.5" stroke-opacity="0.9" stroke-dasharray=""/><path fill="none" stroke="#388c46" class="dcg-svg-point" paint-order="fill stroke markers" d=" M 83.74409185721616 121.48542922982375 L 83.74409185721616 121.68542922982374 L 83.94409185721615 121.68542922982374 L 83.94409185721615 121.48542922982375" stroke-linecap="round" stroke-linejoin="round" stroke-miterlimit="10" stroke-width="7.5" stroke-opacity="0.9" stroke-dasharray=""/><path fill="none" stroke="#388c46" class="dcg-svg-point" paint-order="fill stroke markers" d=" M 83.74409185721616 92.71120471009432 L 83.74409185721616 92.91120471009431 L 83.94409185721615 92.91120471009431 L 83.94409185721615 92.71120471009432" stroke-linecap="round" stroke-linejoin="round" stroke-miterlimit="10" stroke-width="7.5" stroke-opacity="0.9" stroke-dasharray=""/><path fill="none" stroke="#388c46" class="dcg-svg-point" paint-order="fill stroke markers" d=" M 83.74409185721616 63.936980190364885 L 83.74409185721616 64.13698019036488 L 83.94409185721615 64.13698019036488 L 83.94409185721615 63.936980190364885" stroke-linecap="round" stroke-linejoin="round" stroke-miterlimit="10" stroke-width="7.5" stroke-opacity="0.9" stroke-dasharray=""/><path fill="none" stroke="#388c46" class="dcg-svg-point" paint-order="fill stroke markers" d=" M 112.51831637694559 63.936980190364885 L 112.51831637694559 64.13698019036488 L 112.71831637694558 64.13698019036488 L 112.71831637694558 63.936980190364885" stroke-linecap="round" stroke-linejoin="round" stroke-miterlimit="10" stroke-width="7.5" stroke-opacity="0.9" stroke-dasharray=""/><path fill="none" stroke="#388c46" class="dcg-svg-point" paint-order="fill stroke markers" d=" M 141.29254089667504 63.936980190364885 L 141.29254089667504 64.13698019036488 L 141.49254089667502 64.13698019036488 L 141.49254089667502 63.936980190364885" stroke-linecap="round" stroke-linejoin="round" stroke-miterlimit="10" stroke-width="7.5" stroke-opacity="0.9" stroke-dasharray=""/><path fill="none" stroke="#388c46" class="dcg-svg-point" paint-order="fill stroke markers" d=" M 170.06676541640445 63.936980190364885 L 170.06676541640445 64.13698019036488 L 170.26676541640444 64.13698019036488 L 170.26676541640444 63.936980190364885" stroke-linecap="round" stroke-linejoin="round" stroke-miterlimit="10" stroke-width="7.5" stroke-opacity="0.9" stroke-dasharray=""/><path fill="none" stroke="#388c46" class="dcg-svg-point" paint-order="fill stroke markers" d=" M 198.8409899361339 63.936980190364885 L 198.8409899361339 64.13698019036488 L 199.04098993613388 64.13698019036488 L 199.04098993613388 63.936980190364885" stroke-linecap="round" stroke-linejoin="round" stroke-miterlimit="10" stroke-width="7.5" stroke-opacity="0.9" stroke-dasharray=""/><path fill="none" stroke="#388c46" class="dcg-svg-point" paint-order="fill stroke markers" d=" M 227.61521445586334 63.936980190364885 L 227.61521445586334 64.13698019036488 L 227.81521445586333 64.13698019036488 L 227.81521445586333 63.936980190364885" stroke-linecap="round" stroke-linejoin="round" stroke-miterlimit="10" stroke-width="7.5" stroke-opacity="0.9" stroke-dasharray=""/><path fill="none" stroke="#388c46" class="dcg-svg-point" paint-order="fill stroke markers" d=" M 256.3894389755927 63.936980190364885 L 256.3894389755927 64.13698019036488 L 256.58943897559277 64.13698019036488 L 256.58943897559277 63.936980190364885" stroke-linecap="round" stroke-linejoin="round" stroke-miterlimit="10" stroke-width="7.5" stroke-opacity="0.9" stroke-dasharray=""/><path fill="none" stroke="#388c46" class="dcg-svg-point" paint-order="fill stroke markers" d=" M 285.16366349532217 63.936980190364885 L 285.16366349532217 64.13698019036488 L 285.3636634953222 64.13698019036488 L 285.3636634953222 63.936980190364885" stroke-linecap="round" stroke-linejoin="round" stroke-miterlimit="10" stroke-width="7.5" stroke-opacity="0.9" stroke-dasharray=""/><path fill="none" stroke="#388c46" class="dcg-svg-point" paint-order="fill stroke markers" d=" M 313.9378880150516 63.936980190364885 L 313.9378880150516 64.13698019036488 L 314.13788801505166 64.13698019036488 L 314.13788801505166 63.936980190364885" stroke-linecap="round" stroke-linejoin="round" stroke-miterlimit="10" stroke-width="7.5" stroke-opacity="0.9" stroke-dasharray=""/><path fill="none" stroke="#388c46" class="dcg-svg-point" paint-order="fill stroke markers" d=" M 342.712112534781 63.936980190364885 L 342.712112534781 64.13698019036488 L 342.91211253478104 64.13698019036488 L 342.91211253478104 63.936980190364885" stroke-linecap="round" stroke-linejoin="round" stroke-miterlimit="10" stroke-width="7.5" stroke-opacity="0.9" stroke-dasharray=""/><path fill="none" stroke="#388c46" class="dcg-svg-point" paint-order="fill stroke markers" d=" M 342.712112534781 92.71120471009432 L 342.712112534781 92.91120471009431 L 342.91211253478104 92.91120471009431 L 342.91211253478104 92.71120471009432" stroke-linecap="round" stroke-linejoin="round" stroke-miterlimit="10" stroke-width="7.5" stroke-opacity="0.9" stroke-dasharray=""/><path fill="none" stroke="#388c46" class="dcg-svg-point" paint-order="fill stroke markers" d=" M 342.712112534781 121.48542922982375 L 342.712112534781 121.68542922982374 L 342.91211253478104 121.68542922982374 L 342.91211253478104 121.48542922982375" stroke-linecap="round" stroke-linejoin="round" stroke-miterlimit="10" stroke-width="7.5" stroke-opacity="0.9" stroke-dasharray=""/><path fill="none" stroke="#388c46" class="dcg-svg-point" paint-order="fill stroke markers" d=" M 342.712112534781 150.2596537495532 L 342.712112534781 150.45965374955318 L 342.91211253478104 150.45965374955318 L 342.91211253478104 150.2596537495532" stroke-linecap="round" stroke-linejoin="round" stroke-miterlimit="10" stroke-width="7.5" stroke-opacity="0.9" stroke-dasharray=""/><path fill="none" stroke="#388c46" class="dcg-svg-point" paint-order="fill stroke markers" d=" M 342.712112534781 179.0338782692826 L 342.712112534781 179.2338782692826 L 342.91211253478104 179.2338782692826 L 342.91211253478104 179.0338782692826" stroke-linecap="round" stroke-linejoin="round" stroke-miterlimit="10" stroke-width="7.5" stroke-opacity="0.9" stroke-dasharray=""/><path fill="none" stroke="#388c46" class="dcg-svg-point" paint-order="fill stroke markers" d=" M 342.712112534781 207.80810278901205 L 342.712112534781 208.00810278901204 L 342.91211253478104 208.00810278901204 L 342.91211253478104 207.80810278901205" stroke-linecap="round" stroke-linejoin="round" stroke-miterlimit="10" stroke-width="7.5" stroke-opacity="0.9" stroke-dasharray=""/><path fill="none" stroke="#388c46" class="dcg-svg-point" paint-order="fill stroke markers" d=" M 342.712112534781 236.5823273087415 L 342.712112534781 236.7823273087415 L 342.91211253478104 236.7823273087415 L 342.91211253478104 236.5823273087415" stroke-linecap="round" stroke-linejoin="round" stroke-miterlimit="10" stroke-width="7.5" stroke-opacity="0.9" stroke-dasharray=""/><path fill="none" stroke="#388c46" class="dcg-svg-point" paint-order="fill stroke markers" d=" M 342.712112534781 265.3565518284709 L 342.712112534781 265.55655182847096 L 342.91211253478104 265.55655182847096 L 342.91211253478104 265.3565518284709" stroke-linecap="round" stroke-linejoin="round" stroke-miterlimit="10" stroke-width="7.5" stroke-opacity="0.9" stroke-dasharray=""/><path fill="none" stroke="#388c46" class="dcg-svg-point" paint-order="fill stroke markers" d=" M 342.712112534781 294.13077634820036 L 342.712112534781 294.3307763482004 L 342.91211253478104 294.3307763482004 L 342.91211253478104 294.13077634820036" stroke-linecap="round" stroke-linejoin="round" stroke-miterlimit="10" stroke-width="7.5" stroke-opacity="0.9" stroke-dasharray=""/><path fill="none" stroke="#388c46" class="dcg-svg-point" paint-order="fill stroke markers" d=" M 342.712112534781 322.90500086792974 L 342.712112534781 323.1050008679298 L 342.91211253478104 323.1050008679298 L 342.91211253478104 322.90500086792974" stroke-linecap="round" stroke-linejoin="round" stroke-miterlimit="10" stroke-width="7.5" stroke-opacity="0.9" stroke-dasharray=""/><path fill="none" stroke="#388c46" class="dcg-svg-point" paint-order="fill stroke markers" d=" M 342.712112534781 351.6792253876592 L 342.712112534781 351.87922538765923 L 342.91211253478104 351.87922538765923 L 342.91211253478104 351.6792253876592" stroke-linecap="round" stroke-linejoin="round" stroke-miterlimit="10" stroke-width="7.5" stroke-opacity="0.9" stroke-dasharray=""/><path fill="none" stroke="#388c46" class="dcg-svg-point" paint-order="fill stroke markers" d=" M 313.9378880150516 351.6792253876592 L 313.9378880150516 351.87922538765923 L 314.13788801505166 351.87922538765923 L 314.13788801505166 351.6792253876592" stroke-linecap="round" stroke-linejoin="round" stroke-miterlimit="10" stroke-width="7.5" stroke-opacity="0.9" stroke-dasharray=""/><path fill="none" stroke="#388c46" class="dcg-svg-point" paint-order="fill stroke markers" d=" M 285.16366349532217 351.6792253876592 L 285.16366349532217 351.87922538765923 L 285.3636634953222 351.87922538765923 L 285.3636634953222 351.6792253876592" stroke-linecap="round" stroke-linejoin="round" stroke-miterlimit="10" stroke-width="7.5" stroke-opacity="0.9" stroke-dasharray=""/><path fill="none" stroke="#388c46" class="dcg-svg-point" paint-order="fill stroke markers" d=" M 256.3894389755927 351.6792253876592 L 256.3894389755927 351.87922538765923 L 256.58943897559277 351.87922538765923 L 256.58943897559277 351.6792253876592" stroke-linecap="round" stroke-linejoin="round" stroke-miterlimit="10" stroke-width="7.5" stroke-opacity="0.9" stroke-dasharray=""/><path fill="none" stroke="#388c46" class="dcg-svg-point" paint-order="fill stroke markers" d=" M 227.61521445586334 351.6792253876592 L 227.61521445586334 351.87922538765923 L 227.81521445586333 351.87922538765923 L 227.81521445586333 351.6792253876592" stroke-linecap="round" stroke-linejoin="round" stroke-miterlimit="10" stroke-width="7.5" stroke-opacity="0.9" stroke-dasharray=""/><path fill="none" stroke="#388c46" class="dcg-svg-point" paint-order="fill stroke markers" d=" M 198.8409899361339 351.6792253876592 L 198.8409899361339 351.87922538765923 L 199.04098993613388 351.87922538765923 L 199.04098993613388 351.6792253876592" stroke-linecap="round" stroke-linejoin="round" stroke-miterlimit="10" stroke-width="7.5" stroke-opacity="0.9" stroke-dasharray=""/><path fill="none" stroke="#388c46" class="dcg-svg-point" paint-order="fill stroke markers" d=" M 170.06676541640445 351.6792253876592 L 170.06676541640445 351.87922538765923 L 170.26676541640444 351.87922538765923 L 170.26676541640444 351.6792253876592" stroke-linecap="round" stroke-linejoin="round" stroke-miterlimit="10" stroke-width="7.5" stroke-opacity="0.9" stroke-dasharray=""/><path fill="none" stroke="#388c46" class="dcg-svg-point" paint-order="fill stroke markers" d=" M 141.29254089667504 351.6792253876592 L 141.29254089667504 351.87922538765923 L 141.49254089667502 351.87922538765923 L 141.49254089667502 351.6792253876592" stroke-linecap="round" stroke-linejoin="round" stroke-miterlimit="10" stroke-width="7.5" stroke-opacity="0.9" stroke-dasharray=""/><path fill="none" stroke="#388c46" class="dcg-svg-point" paint-order="fill stroke markers" d=" M 112.51831637694559 351.6792253876592 L 112.51831637694559 351.87922538765923 L 112.71831637694558 351.87922538765923 L 112.71831637694558 351.6792253876592" stroke-linecap="round" stroke-linejoin="round" stroke-miterlimit="10" stroke-width="7.5" stroke-opacity="0.9" stroke-dasharray=""/><path fill="none" stroke="#388c46" class="dcg-svg-point" paint-order="fill stroke markers" d=" M 83.74409185721616 351.6792253876592 L 83.74409185721616 351.87922538765923 L 83.94409185721615 351.87922538765923 L 83.94409185721615 351.6792253876592" stroke-linecap="round" stroke-linejoin="round" stroke-miterlimit="10" stroke-width="7.5" stroke-opacity="0.9" stroke-dasharray=""/><path fill="none" stroke="#388c46" class="dcg-svg-point" paint-order="fill stroke markers" d=" M 54.969867337486725 351.6792253876592 L 54.969867337486725 351.87922538765923 L 55.16986733748673 351.87922538765923 L 55.16986733748673 351.6792253876592" stroke-linecap="round" stroke-linejoin="round" stroke-miterlimit="10" stroke-width="7.5" stroke-opacity="0.9" stroke-dasharray=""/><path fill="none" stroke="#388c46" class="dcg-svg-point" paint-order="fill stroke markers" d=" M 54.969867337486725 322.90500086792974 L 54.969867337486725 323.1050008679298 L 55.16986733748673 323.1050008679298 L 55.16986733748673 322.90500086792974" stroke-linecap="round" stroke-linejoin="round" stroke-miterlimit="10" stroke-width="7.5" stroke-opacity="0.9" stroke-dasharray=""/><path fill="none" stroke="#388c46" class="dcg-svg-point" paint-order="fill stroke markers" d=" M 54.969867337486725 294.13077634820036 L 54.969867337486725 294.3307763482004 L 55.16986733748673 294.3307763482004 L 55.16986733748673 294.13077634820036" stroke-linecap="round" stroke-linejoin="round" stroke-miterlimit="10" stroke-width="7.5" stroke-opacity="0.9" stroke-dasharray=""/><path fill="none" stroke="#388c46" class="dcg-svg-point" paint-order="fill stroke markers" d=" M 54.969867337486725 265.3565518284709 L 54.969867337486725 265.55655182847096 L 55.16986733748673 265.55655182847096 L 55.16986733748673 265.3565518284709" stroke-linecap="round" stroke-linejoin="round" stroke-miterlimit="10" stroke-width="7.5" stroke-opacity="0.9" stroke-dasharray=""/><path fill="none" stroke="#388c46" class="dcg-svg-point" paint-order="fill stroke markers" d=" M 54.969867337486725 236.5823273087415 L 54.969867337486725 236.7823273087415 L 55.16986733748673 236.7823273087415 L 55.16986733748673 236.5823273087415" stroke-linecap="round" stroke-linejoin="round" stroke-miterlimit="10" stroke-width="7.5" stroke-opacity="0.9" stroke-dasharray=""/><path fill="none" stroke="#388c46" class="dcg-svg-point" paint-order="fill stroke markers" d=" M 54.969867337486725 207.80810278901205 L 54.969867337486725 208.00810278901204 L 55.16986733748673 208.00810278901204 L 55.16986733748673 207.80810278901205" stroke-linecap="round" stroke-linejoin="round" stroke-miterlimit="10" stroke-width="7.5" stroke-opacity="0.9" stroke-dasharray=""/><path fill="none" stroke="#388c46" class="dcg-svg-point" paint-order="fill stroke markers" d=" M 54.969867337486725 179.0338782692826 L 54.969867337486725 179.2338782692826 L 55.16986733748673 179.2338782692826 L 55.16986733748673 179.0338782692826" stroke-linecap="round" stroke-linejoin="round" stroke-miterlimit="10" stroke-width="7.5" stroke-opacity="0.9" stroke-dasharray=""/><path fill="none" stroke="#388c46" class="dcg-svg-point" paint-order="fill stroke markers" d=" M 54.969867337486725 150.2596537495532 L 54.969867337486725 150.45965374955318 L 55.16986733748673 150.45965374955318 L 55.16986733748673 150.2596537495532" stroke-linecap="round" stroke-linejoin="round" stroke-miterlimit="10" stroke-width="7.5" stroke-opacity="0.9" stroke-dasharray=""/><path fill="none" stroke="#388c46" class="dcg-svg-point" paint-order="fill stroke markers" d=" M 54.969867337486725 121.48542922982375 L 54.969867337486725 121.68542922982374 L 55.16986733748673 121.68542922982374 L 55.16986733748673 121.48542922982375" stroke-linecap="round" stroke-linejoin="round" stroke-miterlimit="10" stroke-width="7.5" stroke-opacity="0.9" stroke-dasharray=""/><path fill="none" stroke="#388c46" class="dcg-svg-point" paint-order="fill stroke markers" d=" M 54.969867337486725 92.71120471009432 L 54.969867337486725 92.91120471009431 L 55.16986733748673 92.91120471009431 L 55.16986733748673 92.71120471009432" stroke-linecap="round" stroke-linejoin="round" stroke-miterlimit="10" stroke-width="7.5" stroke-opacity="0.9" stroke-dasharray=""/><path fill="none" stroke="#388c46" class="dcg-svg-point" paint-order="fill stroke markers" d=" M 54.969867337486725 63.936980190364885 L 54.969867337486725 64.13698019036488 L 55.16986733748673 64.13698019036488 L 55.16986733748673 63.936980190364885" stroke-linecap="round" stroke-linejoin="round" stroke-miterlimit="10" stroke-width="7.5" stroke-opacity="0.9" stroke-dasharray=""/><path fill="none" stroke="#388c46" class="dcg-svg-point" paint-order="fill stroke markers" d=" M 54.969867337486725 35.16275567063544 L 54.969867337486725 35.362755670635444 L 55.16986733748673 35.362755670635444 L 55.16986733748673 35.16275567063544" stroke-linecap="round" stroke-linejoin="round" stroke-miterlimit="10" stroke-width="7.5" stroke-opacity="0.9" stroke-dasharray=""/><path fill="none" stroke="#388c46" class="dcg-svg-point" paint-order="fill stroke markers" d=" M 83.74409185721616 35.16275567063544 L 83.74409185721616 35.362755670635444 L 83.94409185721615 35.362755670635444 L 83.94409185721615 35.16275567063544" stroke-linecap="round" stroke-linejoin="round" stroke-miterlimit="10" stroke-width="7.5" stroke-opacity="0.9" stroke-dasharray=""/><path fill="none" stroke="#388c46" class="dcg-svg-point" paint-order="fill stroke markers" d=" M 112.51831637694559 35.16275567063544 L 112.51831637694559 35.362755670635444 L 112.71831637694558 35.362755670635444 L 112.71831637694558 35.16275567063544" stroke-linecap="round" stroke-linejoin="round" stroke-miterlimit="10" stroke-width="7.5" stroke-opacity="0.9" stroke-dasharray=""/><path fill="none" stroke="#388c46" class="dcg-svg-point" paint-order="fill stroke markers" d=" M 141.29254089667504 35.16275567063544 L 141.29254089667504 35.362755670635444 L 141.49254089667502 35.362755670635444 L 141.49254089667502 35.16275567063544" stroke-linecap="round" stroke-linejoin="round" stroke-miterlimit="10" stroke-width="7.5" stroke-opacity="0.9" stroke-dasharray=""/><path fill="none" stroke="#388c46" class="dcg-svg-point" paint-order="fill stroke markers" d=" M 170.06676541640445 35.16275567063544 L 170.06676541640445 35.362755670635444 L 170.26676541640444 35.362755670635444 L 170.26676541640444 35.16275567063544" stroke-linecap="round" stroke-linejoin="round" stroke-miterlimit="10" stroke-width="7.5" stroke-opacity="0.9" stroke-dasharray=""/><path fill="none" stroke="#388c46" class="dcg-svg-point" paint-order="fill stroke markers" d=" M 198.8409899361339 35.16275567063544 L 198.8409899361339 35.362755670635444 L 199.04098993613388 35.362755670635444 L 199.04098993613388 35.16275567063544" stroke-linecap="round" stroke-linejoin="round" stroke-miterlimit="10" stroke-width="7.5" stroke-opacity="0.9" stroke-dasharray=""/><path fill="none" stroke="#388c46" class="dcg-svg-point" paint-order="fill stroke markers" d=" M 227.61521445586334 35.16275567063544 L 227.61521445586334 35.362755670635444 L 227.81521445586333 35.362755670635444 L 227.81521445586333 35.16275567063544" stroke-linecap="round" stroke-linejoin="round" stroke-miterlimit="10" stroke-width="7.5" stroke-opacity="0.9" stroke-dasharray=""/><path fill="none" stroke="#388c46" class="dcg-svg-point" paint-order="fill stroke markers" d=" M 256.3894389755927 35.16275567063544 L 256.3894389755927 35.362755670635444 L 256.58943897559277 35.362755670635444 L 256.58943897559277 35.16275567063544" stroke-linecap="round" stroke-linejoin="round" stroke-miterlimit="10" stroke-width="7.5" stroke-opacity="0.9" stroke-dasharray=""/><path fill="none" stroke="#388c46" class="dcg-svg-point" paint-order="fill stroke markers" d=" M 285.16366349532217 35.16275567063544 L 285.16366349532217 35.362755670635444 L 285.3636634953222 35.362755670635444 L 285.3636634953222 35.16275567063544" stroke-linecap="round" stroke-linejoin="round" stroke-miterlimit="10" stroke-width="7.5" stroke-opacity="0.9" stroke-dasharray=""/><path fill="none" stroke="#388c46" class="dcg-svg-point" paint-order="fill stroke markers" d=" M 313.9378880150516 35.16275567063544 L 313.9378880150516 35.362755670635444 L 314.13788801505166 35.362755670635444 L 314.13788801505166 35.16275567063544" stroke-linecap="round" stroke-linejoin="round" stroke-miterlimit="10" stroke-width="7.5" stroke-opacity="0.9" stroke-dasharray=""/><path fill="none" stroke="#388c46" class="dcg-svg-point" paint-order="fill stroke markers" d=" M 342.712112534781 35.16275567063544 L 342.712112534781 35.362755670635444 L 342.91211253478104 35.362755670635444 L 342.91211253478104 35.16275567063544" stroke-linecap="round" stroke-linejoin="round" stroke-miterlimit="10" stroke-width="7.5" stroke-opacity="0.9" stroke-dasharray=""/><path fill="none" stroke="#388c46" class="dcg-svg-point" paint-order="fill stroke markers" d=" M 371.4863370545105 35.16275567063544 L 371.4863370545105 35.362755670635444 L 371.68633705451055 35.362755670635444 L 371.68633705451055 35.16275567063544" stroke-linecap="round" stroke-linejoin="round" stroke-miterlimit="10" stroke-width="7.5" stroke-opacity="0.9" stroke-dasharray=""/><path fill="none" stroke="#388c46" class="dcg-svg-point" paint-order="fill stroke markers" d=" M 371.4863370545105 63.936980190364885 L 371.4863370545105 64.13698019036488 L 371.68633705451055 64.13698019036488 L 371.68633705451055 63.936980190364885" stroke-linecap="round" stroke-linejoin="round" stroke-miterlimit="10" stroke-width="7.5" stroke-opacity="0.9" stroke-dasharray=""/><path fill="none" stroke="#388c46" class="dcg-svg-point" paint-order="fill stroke markers" d=" M 371.4863370545105 92.71120471009432 L 371.4863370545105 92.91120471009431 L 371.68633705451055 92.91120471009431 L 371.68633705451055 92.71120471009432" stroke-linecap="round" stroke-linejoin="round" stroke-miterlimit="10" stroke-width="7.5" stroke-opacity="0.9" stroke-dasharray=""/><path fill="none" stroke="#388c46" class="dcg-svg-point" paint-order="fill stroke markers" d=" M 371.4863370545105 121.48542922982375 L 371.4863370545105 121.68542922982374 L 371.68633705451055 121.68542922982374 L 371.68633705451055 121.48542922982375" stroke-linecap="round" stroke-linejoin="round" stroke-miterlimit="10" stroke-width="7.5" stroke-opacity="0.9" stroke-dasharray=""/><path fill="none" stroke="#388c46" class="dcg-svg-point" paint-order="fill stroke markers" d=" M 371.4863370545105 150.2596537495532 L 371.4863370545105 150.45965374955318 L 371.68633705451055 150.45965374955318 L 371.68633705451055 150.2596537495532" stroke-linecap="round" stroke-linejoin="round" stroke-miterlimit="10" stroke-width="7.5" stroke-opacity="0.9" stroke-dasharray=""/><path fill="none" stroke="#388c46" class="dcg-svg-point" paint-order="fill stroke markers" d=" M 371.4863370545105 179.0338782692826 L 371.4863370545105 179.2338782692826 L 371.68633705451055 179.2338782692826 L 371.68633705451055 179.0338782692826" stroke-linecap="round" stroke-linejoin="round" stroke-miterlimit="10" stroke-width="7.5" stroke-opacity="0.9" stroke-dasharray=""/><path fill="none" stroke="#388c46" class="dcg-svg-point" paint-order="fill stroke markers" d=" M 371.4863370545105 207.80810278901205 L 371.4863370545105 208.00810278901204 L 371.68633705451055 208.00810278901204 L 371.68633705451055 207.80810278901205" stroke-linecap="round" stroke-linejoin="round" stroke-miterlimit="10" stroke-width="7.5" stroke-opacity="0.9" stroke-dasharray=""/><path fill="none" stroke="#388c46" class="dcg-svg-point" paint-order="fill stroke markers" d=" M 371.4863370545105 236.5823273087415 L 371.4863370545105 236.7823273087415 L 371.68633705451055 236.7823273087415 L 371.68633705451055 236.5823273087415" stroke-linecap="round" stroke-linejoin="round" stroke-miterlimit="10" stroke-width="7.5" stroke-opacity="0.9" stroke-dasharray=""/><path fill="none" stroke="#388c46" class="dcg-svg-point" paint-order="fill stroke markers" d=" M 371.4863370545105 265.3565518284709 L 371.4863370545105 265.55655182847096 L 371.68633705451055 265.55655182847096 L 371.68633705451055 265.3565518284709" stroke-linecap="round" stroke-linejoin="round" stroke-miterlimit="10" stroke-width="7.5" stroke-opacity="0.9" stroke-dasharray=""/><path fill="none" stroke="#388c46" class="dcg-svg-point" paint-order="fill stroke markers" d=" M 371.4863370545105 294.13077634820036 L 371.4863370545105 294.3307763482004 L 371.68633705451055 294.3307763482004 L 371.68633705451055 294.13077634820036" stroke-linecap="round" stroke-linejoin="round" stroke-miterlimit="10" stroke-width="7.5" stroke-opacity="0.9" stroke-dasharray=""/><path fill="none" stroke="#388c46" class="dcg-svg-point" paint-order="fill stroke markers" d=" M 371.4863370545105 322.90500086792974 L 371.4863370545105 323.1050008679298 L 371.68633705451055 323.1050008679298 L 371.68633705451055 322.90500086792974" stroke-linecap="round" stroke-linejoin="round" stroke-miterlimit="10" stroke-width="7.5" stroke-opacity="0.9" stroke-dasharray=""/><path fill="none" stroke="#388c46" class="dcg-svg-point" paint-order="fill stroke markers" d=" M 371.4863370545105 351.6792253876592 L 371.4863370545105 351.87922538765923 L 371.68633705451055 351.87922538765923 L 371.68633705451055 351.6792253876592" stroke-linecap="round" stroke-linejoin="round" stroke-miterlimit="10" stroke-width="7.5" stroke-opacity="0.9" stroke-dasharray=""/><path fill="none" stroke="#388c46" class="dcg-svg-point" paint-order="fill stroke markers" d=" M 371.4863370545105 380.45344990738863 L 371.4863370545105 380.6534499073887 L 371.68633705451055 380.6534499073887 L 371.68633705451055 380.45344990738863" stroke-linecap="round" stroke-linejoin="round" stroke-miterlimit="10" stroke-width="7.5" stroke-opacity="0.9" stroke-dasharray=""/><path fill="none" stroke="#388c46" class="dcg-svg-point" paint-order="fill stroke markers" d=" M 342.712112534781 380.45344990738863 L 342.712112534781 380.6534499073887 L 342.91211253478104 380.6534499073887 L 342.91211253478104 380.45344990738863" stroke-linecap="round" stroke-linejoin="round" stroke-miterlimit="10" stroke-width="7.5" stroke-opacity="0.9" stroke-dasharray=""/><path fill="none" stroke="#388c46" class="dcg-svg-point" paint-order="fill stroke markers" d=" M 313.9378880150516 380.45344990738863 L 313.9378880150516 380.6534499073887 L 314.13788801505166 380.6534499073887 L 314.13788801505166 380.45344990738863" stroke-linecap="round" stroke-linejoin="round" stroke-miterlimit="10" stroke-width="7.5" stroke-opacity="0.9" stroke-dasharray=""/><path fill="none" stroke="#388c46" class="dcg-svg-point" paint-order="fill stroke markers" d=" M 285.16366349532217 380.45344990738863 L 285.16366349532217 380.6534499073887 L 285.3636634953222 380.6534499073887 L 285.3636634953222 380.45344990738863" stroke-linecap="round" stroke-linejoin="round" stroke-miterlimit="10" stroke-width="7.5" stroke-opacity="0.9" stroke-dasharray=""/><path fill="none" stroke="#388c46" class="dcg-svg-point" paint-order="fill stroke markers" d=" M 256.3894389755927 380.45344990738863 L 256.3894389755927 380.6534499073887 L 256.58943897559277 380.6534499073887 L 256.58943897559277 380.45344990738863" stroke-linecap="round" stroke-linejoin="round" stroke-miterlimit="10" stroke-width="7.5" stroke-opacity="0.9" stroke-dasharray=""/><path fill="none" stroke="#388c46" class="dcg-svg-point" paint-order="fill stroke markers" d=" M 227.61521445586334 380.45344990738863 L 227.61521445586334 380.6534499073887 L 227.81521445586333 380.6534499073887 L 227.81521445586333 380.45344990738863" stroke-linecap="round" stroke-linejoin="round" stroke-miterlimit="10" stroke-width="7.5" stroke-opacity="0.9" stroke-dasharray=""/><path fill="none" stroke="#388c46" class="dcg-svg-point" paint-order="fill stroke markers" d=" M 198.8409899361339 380.45344990738863 L 198.8409899361339 380.6534499073887 L 199.04098993613388 380.6534499073887 L 199.04098993613388 380.45344990738863" stroke-linecap="round" stroke-linejoin="round" stroke-miterlimit="10" stroke-width="7.5" stroke-opacity="0.9" stroke-dasharray=""/><path fill="none" stroke="#388c46" class="dcg-svg-point" paint-order="fill stroke markers" d=" M 170.06676541640445 380.45344990738863 L 170.06676541640445 380.6534499073887 L 170.26676541640444 380.6534499073887 L 170.26676541640444 380.45344990738863" stroke-linecap="round" stroke-linejoin="round" stroke-miterlimit="10" stroke-width="7.5" stroke-opacity="0.9" stroke-dasharray=""/><path fill="none" stroke="#388c46" class="dcg-svg-point" paint-order="fill stroke markers" d=" M 141.29254089667504 380.45344990738863 L 141.29254089667504 380.6534499073887 L 141.49254089667502 380.6534499073887 L 141.49254089667502 380.45344990738863" stroke-linecap="round" stroke-linejoin="round" stroke-miterlimit="10" stroke-width="7.5" stroke-opacity="0.9" stroke-dasharray=""/><path fill="none" stroke="#388c46" class="dcg-svg-point" paint-order="fill stroke markers" d=" M 112.51831637694559 380.45344990738863 L 112.51831637694559 380.6534499073887 L 112.71831637694558 380.6534499073887 L 112.71831637694558 380.45344990738863" stroke-linecap="round" stroke-linejoin="round" stroke-miterlimit="10" stroke-width="7.5" stroke-opacity="0.9" stroke-dasharray=""/><path fill="none" stroke="#388c46" class="dcg-svg-point" paint-order="fill stroke markers" d=" M 83.74409185721616 380.45344990738863 L 83.74409185721616 380.6534499073887 L 83.94409185721615 380.6534499073887 L 83.94409185721615 380.45344990738863" stroke-linecap="round" stroke-linejoin="round" stroke-miterlimit="10" stroke-width="7.5" stroke-opacity="0.9" stroke-dasharray=""/><path fill="none" stroke="#388c46" class="dcg-svg-point" paint-order="fill stroke markers" d=" M 54.969867337486725 380.45344990738863 L 54.969867337486725 380.6534499073887 L 55.16986733748673 380.6534499073887 L 55.16986733748673 380.45344990738863" stroke-linecap="round" stroke-linejoin="round" stroke-miterlimit="10" stroke-width="7.5" stroke-opacity="0.9" stroke-dasharray=""/><path fill="none" stroke="#388c46" class="dcg-svg-point" paint-order="fill stroke markers" d=" M 26.19564281775728 380.45344990738863 L 26.19564281775728 380.6534499073887 L 26.395642817757285 380.6534499073887 L 26.395642817757285 380.45344990738863" stroke-linecap="round" stroke-linejoin="round" stroke-miterlimit="10" stroke-width="7.5" stroke-opacity="0.9" stroke-dasharray=""/><path fill="none" stroke="#388c46" class="dcg-svg-point" paint-order="fill stroke markers" d=" M 26.19564281775728 351.6792253876592 L 26.19564281775728 351.87922538765923 L 26.395642817757285 351.87922538765923 L 26.395642817757285 351.6792253876592" stroke-linecap="round" stroke-linejoin="round" stroke-miterlimit="10" stroke-width="7.5" stroke-opacity="0.9" stroke-dasharray=""/><path fill="none" stroke="#388c46" class="dcg-svg-point" paint-order="fill stroke markers" d=" M 26.19564281775728 322.90500086792974 L 26.19564281775728 323.1050008679298 L 26.395642817757285 323.1050008679298 L 26.395642817757285 322.90500086792974" stroke-linecap="round" stroke-linejoin="round" stroke-miterlimit="10" stroke-width="7.5" stroke-opacity="0.9" stroke-dasharray=""/><path fill="none" stroke="#388c46" class="dcg-svg-point" paint-order="fill stroke markers" d=" M 26.19564281775728 294.13077634820036 L 26.19564281775728 294.3307763482004 L 26.395642817757285 294.3307763482004 L 26.395642817757285 294.13077634820036" stroke-linecap="round" stroke-linejoin="round" stroke-miterlimit="10" stroke-width="7.5" stroke-opacity="0.9" stroke-dasharray=""/><path fill="none" stroke="#388c46" class="dcg-svg-point" paint-order="fill stroke markers" d=" M 26.19564281775728 265.3565518284709 L 26.19564281775728 265.55655182847096 L 26.395642817757285 265.55655182847096 L 26.395642817757285 265.3565518284709" stroke-linecap="round" stroke-linejoin="round" stroke-miterlimit="10" stroke-width="7.5" stroke-opacity="0.9" stroke-dasharray=""/><path fill="none" stroke="#388c46" class="dcg-svg-point" paint-order="fill stroke markers" d=" M 26.19564281775728 236.5823273087415 L 26.19564281775728 236.7823273087415 L 26.395642817757285 236.7823273087415 L 26.395642817757285 236.5823273087415" stroke-linecap="round" stroke-linejoin="round" stroke-miterlimit="10" stroke-width="7.5" stroke-opacity="0.9" stroke-dasharray=""/><path fill="none" stroke="#388c46" class="dcg-svg-point" paint-order="fill stroke markers" d=" M 26.19564281775728 207.80810278901205 L 26.19564281775728 208.00810278901204 L 26.395642817757285 208.00810278901204 L 26.395642817757285 207.80810278901205" stroke-linecap="round" stroke-linejoin="round" stroke-miterlimit="10" stroke-width="7.5" stroke-opacity="0.9" stroke-dasharray=""/><path fill="none" stroke="#388c46" class="dcg-svg-point" paint-order="fill stroke markers" d=" M 26.19564281775728 179.0338782692826 L 26.19564281775728 179.2338782692826 L 26.395642817757285 179.2338782692826 L 26.395642817757285 179.0338782692826" stroke-linecap="round" stroke-linejoin="round" stroke-miterlimit="10" stroke-width="7.5" stroke-opacity="0.9" stroke-dasharray=""/><path fill="none" stroke="#388c46" class="dcg-svg-point" paint-order="fill stroke markers" d=" M 26.19564281775728 150.2596537495532 L 26.19564281775728 150.45965374955318 L 26.395642817757285 150.45965374955318 L 26.395642817757285 150.2596537495532" stroke-linecap="round" stroke-linejoin="round" stroke-miterlimit="10" stroke-width="7.5" stroke-opacity="0.9" stroke-dasharray=""/><path fill="none" stroke="#388c46" class="dcg-svg-point" paint-order="fill stroke markers" d=" M 26.19564281775728 121.48542922982375 L 26.19564281775728 121.68542922982374 L 26.395642817757285 121.68542922982374 L 26.395642817757285 121.48542922982375" stroke-linecap="round" stroke-linejoin="round" stroke-miterlimit="10" stroke-width="7.5" stroke-opacity="0.9" stroke-dasharray=""/><path fill="none" stroke="#388c46" class="dcg-svg-point" paint-order="fill stroke markers" d=" M 26.19564281775728 92.71120471009432 L 26.19564281775728 92.91120471009431 L 26.395642817757285 92.91120471009431 L 26.395642817757285 92.71120471009432" stroke-linecap="round" stroke-linejoin="round" stroke-miterlimit="10" stroke-width="7.5" stroke-opacity="0.9" stroke-dasharray=""/><path fill="none" stroke="#388c46" class="dcg-svg-point" paint-order="fill stroke markers" d=" M 26.19564281775728 63.936980190364885 L 26.19564281775728 64.13698019036488 L 26.395642817757285 64.13698019036488 L 26.395642817757285 63.936980190364885" stroke-linecap="round" stroke-linejoin="round" stroke-miterlimit="10" stroke-width="7.5" stroke-opacity="0.9" stroke-dasharray=""/><path fill="none" stroke="#388c46" class="dcg-svg-point" paint-order="fill stroke markers" d=" M 26.19564281775728 35.16275567063544 L 26.19564281775728 35.362755670635444 L 26.395642817757285 35.362755670635444 L 26.395642817757285 35.16275567063544" stroke-linecap="round" stroke-linejoin="round" stroke-miterlimit="10" stroke-width="7.5" stroke-opacity="0.9" stroke-dasharray=""/><path fill="none" stroke="#388c46" class="dcg-svg-point" paint-order="fill stroke markers" d=" M 26.19564281775728 6.388531150906028 L 26.19564281775728 6.588531150906027 L 26.395642817757285 6.588531150906027 L 26.395642817757285 6.388531150906028" stroke-linecap="round" stroke-linejoin="round" stroke-miterlimit="10" stroke-width="7.5" stroke-opacity="0.9" stroke-dasharray=""/></g></g><g id="labels-0159e25b"/></g></svg>