<?xml-stylesheet type="text/css" href="svg.css" ?>
<svg version="1.1" xmlns="http://www.w3.org/2000/svg" xmlns:xlink="http://www.w3.org/1999/xlink" width="800" height="800" viewBox="0 0 800 800"><defs/><g transform="scale(2,2)"><g id="background-cd1e6dff"><rect fill="white" stroke="none" x="0" y="0" width="400" height="400" class="dcg-svg-background"/></g><g id="background-images-cd1e6dff"/><g id="graphpaper-cd1e6dff"><g id="axis-cd1e6dff"><g><g><path fill="none" stroke="rgb(0,0,0)" class="dcg-svg-tickmark" paint-order="fill stroke markers" d="" stroke-opacity="0.9" stroke-miterlimit="2" stroke-width="1.5" stroke-dasharray=""/></g></g></g></g><g id="expressions-cd1e6dff"><g id="sketch-cd1e6dff"><title>Expression 1</title><path fill="#000000" stroke="none" paint-order="stroke fill markers" d="" fill-opacity="0.4"/><g><path fill="none" stroke="#000000" class="dcg-svg-curve" paint-order="fill stroke markers" d=" M 185.9375 55.90216630501027 L 185.9375 55.90216630501027 L 182.91423417491794 56.35173417491794 L 178.90625 57.09435566366639 L 169.7002467654611 59.375 L 164.84375 60.87959011946194 L 157.8125 63.41028975882614 L 150.65624652400865 66.40625 L 141.28341248813263 70.97091248813263 L 136.71875000000003 73.46123027980016 L 129.6875 77.65041435219726 L 122.65625 82.28551628217124 L 115.48580871929398 87.5 L 106.80281585007175 94.53125000000001 L 99.03630499298795 101.5625 L 92.03010995315559 108.59375 L 85.67793477495799 115.62500000000001 L 78.0149097343459 125.11009026565408 L 73.43750000000003 131.41775859954083 L 68.53429290767804 138.84679290767798 L 65.57224065752277 143.75 L 61.68911820328361 150.78125 L 58.22308875166513 157.81250000000003 L 57.2614112427363 159.9260887572637 L 54.36367098201467 166.8636709820147 L 52.34375000000003 172.37975272610223 L 50.2845099819163 178.90625 L 49.50323529515765 181.74676470484235 L 47.928598369635466 188.55359836963547 L 47.146689588676 192.96875 L 46.35049602233801 200 L 46.22675856187041 203.31933508434096 L 46.508834721262446 208.22758472126245 L 47.005847386917736 212.3691526130823 L 47.67767011186265 216.42767011186265 L 48.653274741342784 221.09375 L 49.37900950578174 224.0584904942183 L 50.502252118256706 228.125 L 53.02255487750031 235.8350548775003 L 56.63303770228967 244.92946229771036 L 59.375 250.90110338732882 L 62.08265113815111 256.25 L 66.40625 263.94904594935133 L 71.59181864280119 272.1581813571988 L 75.18970955147736 277.34375 L 80.49348154710842 284.375 L 86.32582084275475 291.40625 L 90.20287784810468 295.73462215189534 L 94.53125000000001 300.2799363374027 L 99.82506963364403 305.46875 L 104.40393998802051 309.6585600119795 L 108.59375 313.26961630694825 L 115.62500000000001 318.88851877649756 L 120.03671243724975 322.1507875627503 L 126.46202170871295 326.5625 L 129.6875 328.63197289282806 L 138.1004841682836 333.59375 L 146.45470215050221 337.9202978494978 L 152.35380326059575 340.625 L 157.8125 342.8720929211755 L 164.84375 345.40279296946505 L 166.54667193118934 345.9533280688107 L 172.40290482160174 347.65625 L 180.81099465858367 349.5609946585837 L 185.9375 350.38022004322613 L 189.82271570488314 350.8022842951169 L 193.3502329868271 351.00200068557103 L 196.25930443562078 350.9468044356208 L 200 350.6482941911987 L 207.03125 349.62612325431894 L 208.6850734054265 349.31007340542646 L 215.79204891331855 347.65625 L 223.34522332227039 345.4047766777296 L 230.37500015828326 342.8750001582832 L 235.84115067031496 340.625 L 242.1875 337.7034841505334 L 250.09447157161728 333.59375 L 258.39187847665414 328.7043784766542 L 263.28125 325.53510462963345 L 270.3125 320.58222968409007 L 274.8987315769683 317.0862315769683 L 280.5143296932117 312.5 L 284.375 309.13871238189023 L 291.40625 302.54010036876883 L 298.4375 295.25019708539594 L 303.53163647273885 289.4691364727388 L 307.70147294314387 284.375 L 313.00524416987656 277.34375 L 317.8224453590456 270.3125 L 322.18403419787955 263.28125 L 326.5625 255.3925486319383 L 330.87107995821873 246.49607995821873 L 333.59375 240.02529447482763 L 335.4144064223957 235.15625 L 336.36105531240275 232.38894468759725 L 338.3413962720506 225.84139627205053 L 339.5416792012212 221.09375 L 340.9879428333589 213.69955716664114 L 341.6977184727489 208.10396847274887 L 341.87644338639 205.77980661361005 L 341.96788466535315 203.35167769493185 L 341.8444578177279 200 L 341.75856847878833 198.86643152121172 L 341.04826494445933 192.96875 L 340.625 190.44182405570595 L 339.4399451735907 184.75244517359067 L 337.9104443840562 178.90625 L 335.67692248709477 171.875 L 332.6362424829976 163.8862424829976 L 328.8765837824132 155.49841621758682 L 326.50583675551195 150.78125 L 322.62271323522356 143.75 L 318.3081986875755 136.71875 L 313.107074461454 129.08042553854602 L 308.29065859387237 122.65625 L 305.46875 119.13627408760598 L 300.61484471071475 113.44765528928528 L 296.16484452125263 108.59375 L 291.40625 103.74227995995012 L 286.6909075074462 99.24659249255386 L 281.3921388157097 94.53125000000001 L 277.34375 91.15035442427109 L 270.3125 85.70015419335913 L 262.8648084634409 80.46875 L 254.48614632946828 75.20135367053173 L 249.21875 72.20744828976206 L 242.1875 68.57889794220992 L 235.15625 65.36197365866508 L 233.35242328941854 64.60242328941854 L 225.78953609838908 61.71046390161092 L 218.4947086946836 59.375 L 212.48622320212425 57.79872320212425 L 207.03125 56.65626454651678 L 200 55.63408626390333 L 195.94510254594448 55.32010254594445 L 193.30371897631173 55.28155514685278 L 189.8332886087421 55.479211391257905 L 185.9375 55.90216630501027" stroke-linecap="round" stroke-linejoin="round" stroke-miterlimit="10" stroke-width="2.5" stroke-opacity="0.9" stroke-dasharray=""/></g></g></g><g id="labels-cd1e6dff"/></g></svg>