<?xml-stylesheet type="text/css" href="svg.css" ?>
<svg version="1.1" xmlns="http://www.w3.org/2000/svg" xmlns:xlink="http://www.w3.org/1999/xlink" width="800" height="800" viewBox="0 0 800 800"><defs/><g transform="scale(2,2)"><g id="background-153b4df7"><rect fill="white" stroke="none" x="0" y="0" width="400" height="400" class="dcg-svg-background"/></g><g id="background-images-153b4df7"/><g id="graphpaper-153b4df7"><g id="axis-153b4df7"><g id="yaxis-153b4df7"><title>Y axis</title><g><path fill="none" stroke="rgb(0,0,0)" class="dcg-svg-axis-line" paint-order="fill stroke markers" d=" M 207 0 L 207 400" stroke-opacity="0.9" stroke-miterlimit="10" stroke-width="1.5" stroke-dasharray=""/></g></g><g id="xaxis-153b4df7"><title>X axis</title><g><path fill="none" stroke="rgb(0,0,0)" class="dcg-svg-axis-line" paint-order="fill stroke markers" d=" M 0 221 L 400 221" stroke-opacity="0.9" stroke-miterlimit="10" stroke-width="1.5" stroke-dasharray=""/></g></g><g><g class="dcg-svg-axis-value"><text fill="none" stroke="#ffffff" font-family="Arial" font-size="14px" font-style="normal" font-weight="normal" text-decoration="normal" x="198.5096169469552" y="236.76081675152625" text-anchor="middle" stroke-miterlimit="2" stroke-width="3" stroke-dasharray="">0</text><text fill="#000000" stroke="none" font-family="Arial" font-size="14px" font-style="normal" font-weight="normal" text-decoration="normal" x="198.5096169469552" y="236.76081675152625" text-anchor="middle">0</text></g><g><path fill="none" stroke="rgb(0,0,0)" class="dcg-svg-tickmark" paint-order="fill stroke markers" d=" M 42 218 L 42 224 M 373 218 L 373 224 M 204 386 L 210 386 M 204 56 L 210 56" stroke-opacity="0.9" stroke-miterlimit="2" stroke-width="1.5" stroke-dasharray=""/></g><g class="dcg-svg-axis-value"><text fill="none" stroke="#ffffff" font-family="Arial" font-size="14px" font-style="normal" font-weight="normal" text-decoration="normal" x="39.67083840725746" y="236.76081675152625" text-anchor="middle" stroke-miterlimit="2" stroke-width="3" stroke-dasharray="">-5</text><text fill="#000000" stroke="none" font-family="Arial" font-size="14px" font-style="normal" font-weight="normal" text-decoration="normal" x="39.67083840725746" y="236.76081675152625" text-anchor="middle">-5</text></g><g class="dcg-svg-axis-value"><text fill="none" stroke="#ffffff" font-family="Arial" font-size="14px" font-style="normal" font-weight="normal" text-decoration="normal" x="372.8034736116529" y="236.76081675152625" text-anchor="middle" stroke-miterlimit="2" stroke-width="3" stroke-dasharray="">5</text><text fill="#000000" stroke="none" font-family="Arial" font-size="14px" font-style="normal" font-weight="normal" text-decoration="normal" x="372.8034736116529" y="236.76081675152625" text-anchor="middle">5</text></g><g class="dcg-svg-axis-value"><text fill="none" stroke="#ffffff" font-family="Arial" font-size="14px" font-style="normal" font-weight="normal" text-decoration="normal" x="196.1785622594552" y="390.161607009974" text-anchor="middle" stroke-miterlimit="2" stroke-width="3" stroke-dasharray="">-5</text><text fill="#000000" stroke="none" font-family="Arial" font-size="14px" font-style="normal" font-weight="normal" text-decoration="normal" x="196.1785622594552" y="390.161607009974" text-anchor="middle">-5</text></g><g class="dcg-svg-axis-value"><text fill="none" stroke="#ffffff" font-family="Arial" font-size="14px" font-style="normal" font-weight="normal" text-decoration="normal" x="198.5096169469552" y="59.36002649307853" text-anchor="middle" stroke-miterlimit="2" stroke-width="3" stroke-dasharray="">5</text><text fill="#000000" stroke="none" font-family="Arial" font-size="14px" font-style="normal" font-weight="normal" text-decoration="normal" x="198.5096169469552" y="59.36002649307853" text-anchor="middle">5</text></g></g></g></g><g id="expressions-153b4df7"><g id="sketch-153b4df7"><title>Expression 1</title><path fill="#c74440" stroke="none" paint-order="stroke fill markers" d="" fill-opacity="0.4"/><g><path fill="none" stroke="#c74440" class="dcg-svg-curve" paint-order="fill stroke markers" d=" M 0 133.57083963081132 L 0 133.57083963081132 L 11.035156250000028 135.3753030096774 L 20.99609375 137.26338100951097 L 30.17578125 139.26601641219602 L 38.57421875 141.36168727454088 L 46.38671875 143.57880817562528 L 53.61328125 145.89942504862339 L 60.35156250000003 148.33559849957405 L 66.69921875 150.90893472562502 L 72.65625000000003 153.60653674683485 L 78.32031250000003 156.46173625065327 L 83.69140624999999 159.46639307722458 L 88.8671875 162.67122435218712 L 93.84765625 166.07751333003745 L 98.6328125 169.68311522844414 L 103.22265625 173.48168621317365 L 107.8125 177.6470629465569 L 112.30468749999997 182.11141761048265 L 116.79687499999999 186.9893906214392 L 121.2890625 192.3058398317915 L 125.87890625 198.2052760922541 L 130.76171875 204.99161972502094 L 136.1328125 212.99443371743084 L 150.9765625 235.5056432057315 L 153.61328125 238.73783756868787 L 155.6640625 240.82010651920834 L 157.421875 242.207728888968 L 158.88671875 243.02007756229116 L 160.15625 243.42725049460753 L 161.328125 243.5251481606601 L 162.40234375 243.35457592354607 L 163.4765625 242.91174790230383 L 164.55078125 242.1750480678828 L 165.72265625 241.01326255333825 L 166.9921875 239.30987353800867 L 168.359375 236.9407762557077 L 169.7265625 234.01871395281583 L 171.19140625 230.31269385198362 L 173.046875 224.92413511282908 L 177.34375 212.07979709842027 L 178.41796875 209.7113731967118 L 179.296875 208.35293253961575 L 179.98046875 207.7546905242984 L 180.49757172490317 207.61157067411153 L 180.95703125 207.73018972242423 L 181.4453125 208.12639809479842 L 182.03125 208.98593034558672 L 182.71484375 210.5278971911047 L 183.49609374999997 212.97641482709014 L 184.47265624999997 216.91078669962542 L 187.20703125 228.65117788250717 L 187.79296875 229.99775753823266 L 188.18359375 230.4056057826686 L 188.4765625 230.41501957371727 L 188.76953125 230.15156686515024 L 189.16015625 229.36091621888093 L 189.6484375 227.67669481638143 L 190.234375 224.76245466097458 L 192.08984375 214.48085036636272 L 192.48046875 213.653070138072 L 192.67578125 213.59142037690754 L 192.87109375 213.78698394682877 L 193.1640625 214.5747038667716 L 193.5546875 216.4993527051219 L 194.140625 220.71728508584533 L 194.82421875 225.53487998949223 L 195.1171875 226.70063383981991 L 195.33301743278295 226.9775004556472 L 195.5078125 226.78747149867394 L 195.703125 226.123154951239 L 195.99609375 224.30246465359613 L 197.0703125 216.02364464819428 L 197.265625 215.90194751790983 L 197.4609375 216.55825906819112 L 197.75390625 218.85573463335646 L 198.4375 225.1190404798085 L 198.5653703655351 225.36748467290928 L 198.63281249999997 225.29583727449818 L 198.828125 224.29126421305995 L 199.21875 219.88334087315113 L 199.51171875 217.26505802808393 L 199.60817573643382 217.05830043859382 L 199.70703125 217.28264779906027 L 199.90234375 218.95309405910183 L 200.43060632749902 224.43689567382452 L 200.48828125 224.33032074595812 L 200.68359375 222.50972531083258 L 201.09590129712487 217.80087639413316 L 201.171875 218.0499459704701 L 201.3671875 220.59218035128205 L 201.56249999999997 223.45906775541582 L 201.6451991297321 223.83045505523293 L 201.7578125 223.1251058639218 L 202.1064221889021 218.30554546355555 L 202.24609375 219.64207743344588 L 202.44140625 223.1088884466282 L 202.4991921092809 223.4038803802106 L 202.83770232361599 218.6708765436431 L 202.9296875 219.58790161693832 L 203.13247447107136 223.08747073384822 L 203.22265625 222.02955488212683 L 203.3914740343187 218.9475854710126 L 203.62084238352548 222.84342430644597 L 203.8253908039264 219.16443533423254 L 204.0089421750514 222.64946119172006 L 204.174572446066 219.33895592890656 L 204.32478460112054 222.49159741917524 L 204.46163615814294 219.48244034658683 L 204.58683406661942 222.36061220938112 L 204.70180633297824 219.60249224133477 L 204.807756772799 222.25017893749992 L 204.905707350926 219.70441883302007 L 204.99653127558665 222.1558121837852 L 205.08097911647022 219.79203704756858 L 205.1596996077865 222.07424332839255 L 205.3667860125071 219.93491691060402 L 205.538862622231 221.88468965157136 L 205.84588270148058 220.1744382592897 L 206.0097720399404 221.64925676945114 L 206.14244052759938 220.32270692109174 L 206.25203389734844 221.5281326636133 L 206.3440908370353 220.42352735818218 L 206.42250872471962 221.44289861635994 L 206.70256624461214 220.60276018311274 L 206.73774874804846 221.28528235281388 L 206.74436514618895 220.6236592990272 L 207.00769496494576 221.15031058904316 L 207.05538413629253 220.77916738548328 L 207.1287271170078 221.08979475064112 L 207.61714165640896 220.84558765700302 L 207.81234634464974 221.1576478493892 L 207.93409498839412 220.68711180236372 L 207.99605425284207 221.24950099235426 L 208.20463851712472 220.5518421542001 L 208.3028405913355 221.4028911498018 L 208.4962725698137 220.40602971153456 L 208.5948003349553 221.5488654386872 L 208.7890625 221.48461510558838 L 208.88950810692867 220.20942339454015 L 208.9970016361733 221.74995244256817 L 209.12125060244747 220.0935624981581 L 209.37779649406207 221.94032873665276 L 209.57211035240945 219.86816233249587 L 209.64566709863266 222.07424332839255 L 209.89965935555645 219.70441883302007 L 209.9976099336519 222.25017893749992 L 210.10356037295423 219.60249224133477 L 210.21853263971306 222.36061220938112 L 210.34373054822606 219.48244034658683 L 210.48058210528984 222.49159741917524 L 210.63079426034437 219.33895592890656 L 210.79642453135898 222.64946119172006 L 210.97997590248397 219.16443533423254 L 211.03515624999997 219.82358695692665 L 211.1845243228849 222.84342430644597 L 211.4138926720917 218.9475854710126 L 211.67289223533902 223.08747073384822 L 211.9676643827944 218.6708765436431 L 212.30617459712948 223.4038803802106 L 212.40234375 222.62336138607682 L 212.6989445175083 218.30554546355555 L 212.79296875 218.90897115022247 L 213.16016757667828 223.83045505523293 L 213.28125 223.06036437668428 L 213.7094654092855 217.80087639413316 L 213.76953124999997 217.95295788714503 L 213.96484374999997 220.11595946871526 L 214.25781249999997 224.00084386682687 L 214.37476037891136 224.43689567382452 L 214.45312499999997 224.24595654972305 L 214.6484375 222.40111570574823 L 215.0390625 217.6293055346534 L 215.19719096997656 217.05830043859382 L 215.33203125 217.45642008741004 L 215.625 220.3552380812609 L 216.015625 224.5779719456549 L 216.23999634087528 225.36748467290928 L 216.30859375 225.29486846357418 L 216.50390625 224.36048389234338 L 216.89453125 220.50952670617963 L 217.28515625 216.9075821151517 L 217.48046875 216.01850820560358 L 217.67578124999997 215.90678995558486 L 217.87109375 216.53346278563708 L 218.16406249999997 218.54110854496804 L 219.14062499999997 226.2907620277565 L 219.47234927362743 226.9775004556472 L 219.62890624999997 226.83035572991568 L 219.921875 225.8344464598965 L 220.3125 223.41938310359876 L 221.484375 215.23491046588447 L 221.875 213.8984877111816 L 222.1791583767686 213.58317933706374 L 222.36328125 213.69424838145196 L 222.65625 214.30003681757523 L 223.046875 215.79721415014708 L 223.6328125 219.02398346285398 L 225.09765625 227.42262460793845 L 225.68359375 229.4609496499879 L 226.07421875 230.20202877205742 L 226.464169415205 230.44373197162412 L 226.7578125 230.3128283494725 L 227.14843749999997 229.75818433081906 L 227.63671874999997 228.53652866520983 L 228.3203125 226.07460607496336 L 229.4921875 220.7828690497959 L 231.0546875 213.91895201743455 L 231.93359375 210.96276005050973 L 232.71484375 209.0966465609838 L 233.3984375 208.08485935175943 L 233.984375 207.66998865209328 L 234.47265625 207.6263939307402 L 234.9609375 207.8381702328084 L 235.546875 208.39921578625746 L 236.328125 209.6014492651573 L 237.3046875 211.69411217453026 L 238.57421874999997 215.10352267506767 L 240.72265625 221.70596054388153 L 243.26171874999997 229.34202318220596 L 244.921875 233.6490309803402 L 246.38671875 236.82545125405952 L 247.75390625 239.2187354671412 L 249.12109375 241.05745619015215 L 250.390625 242.2852991675657 L 251.5625 243.03237274515826 L 252.63671875 243.4140846686626 L 253.71093749999997 243.52840077695376 L 254.8828125 243.374783870486 L 256.0546875 242.9593528425277 L 257.421875 242.1819685674856 L 258.984375 240.9602465226225 L 260.83984375 239.12609224786428 L 263.0859375 236.4683718342406 L 266.015625 232.48749311403978 L 270.01953125 226.48960938069757 L 284.765625 203.95648642518563 L 289.74609375 197.11705016160894 L 294.53125 191.06535631412746 L 299.12109375 185.7412214604829 L 303.7109375 180.8691419322633 L 308.30078125 176.42076057770345 L 312.890625 172.3633562401517 L 317.578125 168.5880673964848 L 322.4609375 165.01389148142817 L 327.44140625 161.7069460795223 L 332.6171875 158.59416607117572 L 337.98828125 155.67423732034382 L 343.65234375 152.89786453677527 L 349.609375 150.27299154216124 L 355.95703125 147.76724307389074 L 362.6953125 145.39325724274906 L 369.921875 143.13008328735867 L 377.63671874999994 140.99146863421052 L 385.9375 138.9634707274481 L 394.921875 137.03872791892377 L 400 136.05833471871523" stroke-linecap="round" stroke-linejoin="round" stroke-miterlimit="10" stroke-width="2.5" stroke-opacity="0.9" stroke-dasharray=""/></g></g></g><g id="labels-153b4df7"/></g></svg>