<?xml-stylesheet type="text/css" href="svg.css" ?>
<svg width="351.102" height = "75.201" viewBox="0 0 351.102 75.201" xmlns="http://www.w3.org/2000/svg">
    <g id="svgGroup" stroke-linecap="round" fill-rule="evenodd" font-size="9pt" stroke="#000" stroke-width="0.3mm" fill="white" style="stroke:#000;stroke-width:0.3mm;fill:white">
        <path d="M 174.001 74 L 165.001 74 L 165.001 22 L 173.701 22 L 173.701 30.7 Q 176.501 26.5 180.801 23.65 A 17.205 17.205 0 0 1 190.003 20.809 A 20.858 20.858 0 0 1 190.601 20.8 A 20.994 20.994 0 0 1 195.018 21.24 Q 198.004 21.882 200.286 23.463 A 13.128 13.128 0 0 1 200.751 23.8 A 15.751 15.751 0 0 1 206.198 31.489 A 19.154 19.154 0 0 1 206.301 31.8 Q 209.401 27.2 213.651 24 A 15.669 15.669 0 0 1 220.441 21.116 A 21.446 21.446 0 0 1 224.201 20.8 A 21.437 21.437 0 0 1 229.088 21.322 Q 232.674 22.162 235.163 24.351 A 12.994 12.994 0 0 1 236.851 26.15 A 18.992 18.992 0 0 1 240.262 33.422 Q 241.001 36.472 241.001 40.1 L 241.001 74 L 232.001 74 L 232.001 40.8 A 19.042 19.042 0 0 0 231.663 37.111 Q 231.228 34.905 230.229 33.161 A 10.982 10.982 0 0 0 229.501 32.05 A 7.974 7.974 0 0 0 223.687 28.754 A 10.678 10.678 0 0 0 222.601 28.7 A 11.926 11.926 0 0 0 215.841 30.827 A 15.996 15.996 0 0 0 214.251 32.05 Q 210.401 35.4 207.501 39.9 L 207.501 74 L 198.501 74 L 198.501 40.8 A 19.042 19.042 0 0 0 198.163 37.111 Q 197.728 34.905 196.729 33.161 A 10.982 10.982 0 0 0 196.001 32.05 A 7.974 7.974 0 0 0 190.187 28.754 A 10.678 10.678 0 0 0 189.101 28.7 A 12.02 12.02 0 0 0 182.782 30.528 A 16.244 16.244 0 0 0 180.801 31.95 Q 176.901 35.2 174.001 39.6 L 174.001 74 Z M 113.701 69.8 L 117.501 62.3 A 18.557 18.557 0 0 0 120.644 64.426 Q 122.199 65.27 124.051 65.95 A 24.073 24.073 0 0 0 131.662 67.387 A 27.464 27.464 0 0 0 132.501 67.4 Q 137.893 67.4 140.735 65.685 A 7.738 7.738 0 0 0 140.951 65.55 Q 143.801 63.7 143.801 60.8 A 7.123 7.123 0 0 0 143.487 58.653 A 6.212 6.212 0 0 0 142.751 57.1 A 6.384 6.384 0 0 0 141.822 56.006 Q 140.808 55.034 139.134 54.081 A 22.3 22.3 0 0 0 138.901 53.95 A 28.462 28.462 0 0 0 136.906 52.957 Q 134.791 51.995 131.802 50.946 A 103.602 103.602 0 0 0 130.801 50.6 A 46.616 46.616 0 0 1 126.403 48.857 Q 124.289 47.883 122.613 46.795 A 19.335 19.335 0 0 1 119.851 44.65 A 11.324 11.324 0 0 1 116.557 38.654 A 16.794 16.794 0 0 1 116.201 35.1 Q 116.201 29.1 121.451 24.95 Q 125.855 21.469 133.109 20.908 A 37.527 37.527 0 0 1 136.001 20.8 A 40.794 40.794 0 0 1 140.446 21.031 Q 142.754 21.284 144.771 21.815 A 25.234 25.234 0 0 1 144.901 21.85 Q 148.801 22.9 151.901 24.5 L 149.401 31.9 Q 146.701 30.3 143.251 29.3 A 25.024 25.024 0 0 0 138.767 28.453 A 31.837 31.837 0 0 0 135.601 28.3 A 20.632 20.632 0 0 0 132.664 28.495 Q 129.578 28.94 127.701 30.4 A 9.322 9.322 0 0 0 126.343 31.673 Q 125.64 32.492 125.305 33.365 A 4.529 4.529 0 0 0 125.001 35 A 4.921 4.921 0 0 0 126.496 38.552 A 7.082 7.082 0 0 0 127.101 39.1 Q 129.166 40.772 135.099 42.734 A 84.459 84.459 0 0 0 135.301 42.8 A 67.753 67.753 0 0 1 140.363 44.698 Q 146.29 47.217 149.101 50.1 Q 153.001 54.1 153.001 60.1 Q 153.001 66.848 147.75 70.855 A 16.618 16.618 0 0 1 147.351 71.15 Q 142.611 74.547 135.162 75.095 A 40.423 40.423 0 0 1 132.201 75.2 Q 126.301 75.2 121.551 73.7 A 30.883 30.883 0 0 1 117.71 72.215 Q 115.73 71.284 114.148 70.136 A 18.229 18.229 0 0 1 113.701 69.8 Z M 311.801 69.8 L 315.601 62.3 A 18.557 18.557 0 0 0 318.744 64.426 Q 320.299 65.27 322.151 65.95 A 24.073 24.073 0 0 0 329.762 67.387 A 27.464 27.464 0 0 0 330.601 67.4 Q 335.993 67.4 338.835 65.685 A 7.738 7.738 0 0 0 339.051 65.55 Q 341.901 63.7 341.901 60.8 A 7.123 7.123 0 0 0 341.587 58.653 A 6.212 6.212 0 0 0 340.851 57.1 A 6.384 6.384 0 0 0 339.922 56.006 Q 338.908 55.034 337.234 54.081 A 22.3 22.3 0 0 0 337.001 53.95 A 28.462 28.462 0 0 0 335.006 52.957 Q 332.891 51.995 329.902 50.946 A 103.602 103.602 0 0 0 328.901 50.6 A 46.616 46.616 0 0 1 324.503 48.857 Q 322.389 47.883 320.713 46.795 A 19.335 19.335 0 0 1 317.951 44.65 A 11.324 11.324 0 0 1 314.657 38.654 A 16.794 16.794 0 0 1 314.301 35.1 Q 314.301 29.1 319.551 24.95 Q 323.955 21.469 331.209 20.908 A 37.527 37.527 0 0 1 334.101 20.8 A 40.794 40.794 0 0 1 338.546 21.031 Q 340.854 21.284 342.871 21.815 A 25.234 25.234 0 0 1 343.001 21.85 Q 346.901 22.9 350.001 24.5 L 347.501 31.9 Q 344.801 30.3 341.351 29.3 A 25.024 25.024 0 0 0 336.867 28.453 A 31.837 31.837 0 0 0 333.701 28.3 A 20.632 20.632 0 0 0 330.764 28.495 Q 327.678 28.94 325.801 30.4 A 9.322 9.322 0 0 0 324.443 31.673 Q 323.74 32.492 323.405 33.365 A 4.529 4.529 0 0 0 323.101 35 A 4.921 4.921 0 0 0 324.596 38.552 A 7.082 7.082 0 0 0 325.201 39.1 Q 327.266 40.772 333.199 42.734 A 84.459 84.459 0 0 0 333.401 42.8 A 67.753 67.753 0 0 1 338.463 44.698 Q 344.39 47.217 347.201 50.1 Q 351.101 54.1 351.101 60.1 Q 351.101 66.848 345.85 70.855 A 16.618 16.618 0 0 1 345.451 71.15 Q 340.711 74.547 333.262 75.095 A 40.423 40.423 0 0 1 330.301 75.2 Q 324.401 75.2 319.651 73.7 A 30.883 30.883 0 0 1 315.81 72.215 Q 313.83 71.284 312.248 70.136 A 18.229 18.229 0 0 1 311.801 69.8 Z M 37.901 27.2 L 37.901 0 L 46.901 0 L 46.901 61.4 A 12.15 12.15 0 0 0 47.002 63.036 Q 47.334 65.47 48.751 66.35 Q 50.601 67.5 52.801 67.5 L 50.901 74.5 Q 41.401 74.5 39.301 66.9 Q 37.101 70 33.151 72.6 Q 29.201 75.2 23.201 75.2 Q 16.801 75.2 11.501 71.9 A 22.692 22.692 0 0 1 3.963 64.109 A 27.622 27.622 0 0 1 3.101 62.55 A 27.533 27.533 0 0 1 0.512 54.608 A 37.221 37.221 0 0 1 0.001 48.3 A 33.94 33.94 0 0 1 0.89 40.386 A 27.963 27.963 0 0 1 3.151 34.2 A 27.291 27.291 0 0 1 7.769 27.609 A 24.186 24.186 0 0 1 11.551 24.4 Q 16.801 20.8 23.101 20.8 A 21.642 21.642 0 0 1 27.373 21.202 A 15.942 15.942 0 0 1 32.051 22.9 A 34.343 34.343 0 0 1 34.631 24.489 Q 35.854 25.324 36.826 26.174 A 16.59 16.59 0 0 1 37.901 27.2 Z M 105.901 51.7 L 69.501 51.7 A 24.088 24.088 0 0 0 70.64 56.725 Q 71.976 60.538 74.601 63.1 Q 78.801 67.2 85.701 67.2 Q 90.201 67.2 93.801 66.25 Q 97.401 65.3 100.701 63.8 L 102.801 71.5 A 40.77 40.77 0 0 1 98.466 73.126 A 51.863 51.863 0 0 1 94.701 74.15 A 38.914 38.914 0 0 1 89.609 74.969 A 52.025 52.025 0 0 1 84.601 75.2 A 28.318 28.318 0 0 1 76.854 74.195 A 21.108 21.108 0 0 1 66.851 68.05 A 23.521 23.521 0 0 1 61.645 58.51 Q 60.301 53.845 60.301 48 A 35.359 35.359 0 0 1 61.133 40.178 A 28.84 28.84 0 0 1 63.251 34.05 A 24.642 24.642 0 0 1 68.267 26.968 A 22.887 22.887 0 0 1 71.501 24.35 A 21.048 21.048 0 0 1 81.76 20.878 A 26.205 26.205 0 0 1 83.801 20.8 Q 91.301 20.8 96.251 24.05 Q 101.201 27.3 103.701 32.8 A 28.185 28.185 0 0 1 106.127 42.664 A 33.434 33.434 0 0 1 106.201 44.9 A 75.204 75.204 0 0 1 105.91 51.597 A 69.426 69.426 0 0 1 105.901 51.7 Z M 265.101 71.75 A 24.559 24.559 0 0 0 269.699 73.84 Q 273.754 75.2 278.401 75.2 Q 285.801 75.2 291.651 71.8 Q 297.501 68.4 300.901 62.25 A 26.255 26.255 0 0 0 303.553 55.109 A 34.184 34.184 0 0 0 304.301 47.8 A 34.542 34.542 0 0 0 303.815 41.891 A 25.795 25.795 0 0 0 300.851 33.45 Q 297.401 27.4 291.551 24.1 A 24.848 24.848 0 0 0 286.909 22.073 A 27.738 27.738 0 0 0 278.401 20.8 A 31.325 31.325 0 0 0 276.82 20.839 A 26.169 26.169 0 0 0 265.201 24.1 Q 259.301 27.4 255.901 33.5 A 26.023 26.023 0 0 0 253.151 41.09 A 35.006 35.006 0 0 0 252.501 48 A 34.82 34.82 0 0 0 252.766 52.354 A 27.451 27.451 0 0 0 255.851 62.15 Q 259.201 68.3 265.101 71.75 Z M 278.401 67.2 Q 286.301 67.2 290.701 61.85 A 18.802 18.802 0 0 0 294.52 53.76 A 27.105 27.105 0 0 0 295.101 48 Q 295.101 42.8 292.901 38.45 A 19.198 19.198 0 0 0 288.729 32.881 A 18.17 18.17 0 0 0 286.951 31.45 Q 283.201 28.8 278.401 28.8 A 19.249 19.249 0 0 0 273.174 29.472 A 14.037 14.037 0 0 0 266.101 34 A 17.878 17.878 0 0 0 262.427 41.374 Q 261.701 44.306 261.701 47.8 Q 261.701 53 263.901 57.45 A 19.437 19.437 0 0 0 267.43 62.49 A 17.627 17.627 0 0 0 269.851 64.55 Q 273.601 67.2 278.401 67.2 Z M 37.901 60.9 L 37.901 35.1 A 15.847 15.847 0 0 0 35.79 32.927 Q 34.669 31.964 33.27 31.066 A 28.139 28.139 0 0 0 32.601 30.65 Q 29.201 28.6 25.101 28.6 A 14.946 14.946 0 0 0 20.145 29.4 A 13.385 13.385 0 0 0 16.701 31.2 A 16.69 16.69 0 0 0 11.531 37.35 A 19.924 19.924 0 0 0 11.151 38.15 A 22.19 22.19 0 0 0 9.411 44.514 A 28.113 28.113 0 0 0 9.201 48 A 24.757 24.757 0 0 0 9.793 53.519 A 20.327 20.327 0 0 0 11.301 57.85 A 18.205 18.205 0 0 0 14.341 62.363 A 16.122 16.122 0 0 0 17.051 64.7 Q 20.701 67.2 25.201 67.2 Q 28.901 67.2 32.251 65.45 Q 35.601 63.7 37.901 60.9 Z M 69.401 44.4 L 97.901 44.4 A 24.355 24.355 0 0 0 97.496 39.815 Q 97 37.231 95.896 35.207 A 12.422 12.422 0 0 0 94.101 32.7 A 12.488 12.488 0 0 0 87.14 28.924 A 18.395 18.395 0 0 0 83.601 28.6 A 13.58 13.58 0 0 0 78.489 29.535 A 12.524 12.524 0 0 0 74.001 32.65 Q 70.201 36.7 69.401 44.4 Z"/>
    </g>
</svg>