<svg id="visual" viewBox="0 0 900 450" width="900" height="450" xmlns="http://www.w3.org/2000/svg" xmlns:xlink="http://www.w3.org/1999/xlink" version="1.1"><rect x="0" y="0" width="900" height="450" fill="#ffffff"></rect><defs><linearGradient id="grad1_0" x1="50%" y1="0%" x2="100%" y2="100%"><stop offset="10%" stop-color="#00a686" stop-opacity="1"></stop><stop offset="90%" stop-color="#00a686" stop-opacity="1"></stop></linearGradient></defs><defs><linearGradient id="grad1_1" x1="50%" y1="0%" x2="100%" y2="100%"><stop offset="10%" stop-color="#00a686" stop-opacity="1"></stop><stop offset="90%" stop-color="#9ad3c1" stop-opacity="1"></stop></linearGradient></defs><defs><linearGradient id="grad1_2" x1="50%" y1="0%" x2="100%" y2="100%"><stop offset="10%" stop-color="#ffffff" stop-opacity="1"></stop><stop offset="90%" stop-color="#9ad3c1" stop-opacity="1"></stop></linearGradient></defs><defs><linearGradient id="grad2_0" x1="0%" y1="0%" x2="50%" y2="100%"><stop offset="10%" stop-color="#00a686" stop-opacity="1"></stop><stop offset="90%" stop-color="#00a686" stop-opacity="1"></stop></linearGradient></defs><defs><linearGradient id="grad2_1" x1="0%" y1="0%" x2="50%" y2="100%"><stop offset="10%" stop-color="#9ad3c1" stop-opacity="1"></stop><stop offset="90%" stop-color="#00a686" stop-opacity="1"></stop></linearGradient></defs><defs><linearGradient id="grad2_2" x1="0%" y1="0%" x2="50%" y2="100%"><stop offset="10%" stop-color="#9ad3c1" stop-opacity="1"></stop><stop offset="90%" stop-color="#ffffff" stop-opacity="1"></stop></linearGradient></defs><g transform="translate(900, 0)"><path d="M0 405C-44.6 382.3 -89.1 359.5 -142.7 344.6C-196.4 329.7 -259 322.6 -286.4 286.4C-313.7 250.2 -305.8 185 -319.7 132.4C-333.5 79.8 -369.3 39.9 -405 0L0 0Z" fill="#cde9df"></path><path d="M0 270C-29.7 254.8 -59.4 239.7 -95.2 229.7C-130.9 219.8 -172.7 215 -190.9 190.9C-209.2 166.8 -203.9 123.3 -213.1 88.3C-222.4 53.2 -246.2 26.6 -270 0L0 0Z" fill="#63bda3"></path><path d="M0 135C-14.9 127.4 -29.7 119.8 -47.6 114.9C-65.5 109.9 -86.3 107.5 -95.5 95.5C-104.6 83.4 -101.9 61.7 -106.6 44.1C-111.2 26.6 -123.1 13.3 -135 0L0 0Z" fill="#00a686"></path></g><g transform="translate(0, 450)"><path d="M0 -405C51.8 -396.3 103.6 -387.7 153.1 -369.6C202.5 -351.4 249.6 -323.8 286.4 -286.4C323.2 -248.9 349.6 -201.7 367.7 -152.3C385.8 -102.9 395.4 -51.5 405 0L0 0Z" fill="#cde9df"></path><path d="M0 -270C34.5 -264.2 69.1 -258.5 102 -246.4C135 -234.3 166.4 -215.9 190.9 -190.9C215.4 -166 233.1 -134.5 245.1 -101.5C257.2 -68.6 263.6 -34.3 270 0L0 0Z" fill="#63bda3"></path><path d="M0 -135C17.3 -132.1 34.5 -129.2 51 -123.2C67.5 -117.1 83.2 -107.9 95.5 -95.5C107.7 -83 116.5 -67.2 122.6 -50.8C128.6 -34.3 131.8 -17.2 135 0L0 0Z" fill="#00a686"></path></g></svg>