<?xml version="1.0" standalone="no"?>
<!DOCTYPE svg PUBLIC "-//W3C//DTD SVG 20010904//EN"
 "http://www.w3.org/TR/2001/REC-SVG-20010904/DTD/svg10.dtd">
<svg xmlns="http://www.w3.org/2000/svg" width="385.3" height="377.3" version="1.0" viewBox="0 0 289 283">
  <path d="M0 124v124h9c11.2 0 10.6-1.4 10.2 22.2l-.2 11.7-9.7.4c-5.4.1 55.3.4 135 .5l144.7.2V0H0v124zM287 19.5c0 16.7-.1 17.5-2 17.5-1 0-2.4-.9-3-2-.6-1.1-2-2-3.1-2-3.9 0-9-7.5-10.5-15.5a9 9 0 0 0-2-4.6c-.8-.7-1.4-3.1-1.4-6V2h22v17.5zM143 48.6c29.2 3 32.2 3.8 40 10.2a126 126 0 0 0 8.5 6.4c2.2 1.5 6.1 4.9 8.6 7.5 2.6 2.6 8.6 7.9 13.3 11.7 4.8 3.8 9.1 7.6 9.5 8.5.5.9 1.2 4.7 1.5 8.6.5 4.8 2 9.9 4.6 16a76.3 76.3 0 0 1 6 25 236 236 0 0 0 8.5 40c4.6 15.6 5.7 25 5.4 45.8-.4 18.5-.3 19.4 2 24 2.4 4.9 4 14.6 4.1 24.4v5.3h-41.8c-40.6 0-41.9-.1-43.7-2a73.1 73.1 0 0 0-20.4-11.5l-3.4-.7.5 7.1.5 7.1h-20.3c-13.5 0-20.4-.4-20.4-1a36 36 0 0 0-10.6-11c-.8 0-1.6-1.2-1.9-2.8-.4-1.5-1-3.5-1.6-4.4-.5-1-.9-2.9-.9-4.2 0-1.7-1-3-3.5-4.5-3.1-1.8-3.5-2.5-3.5-6.1 0-2.2.4-4 1-4 .5 0 1.2-1.1 1.6-2.5.3-1.4.9-2.5 1.3-2.5s1.5-2.3 2.5-5c1-2.8 2.4-5.4 3-5.8.7-.4 2.9-3.2 4.9-6.2 2-3 5.3-6.6 7.3-8 2-1.3 4.7-4.1 6-6.1 1.3-2.1 2.8-4.1 3.5-4.5 1.5-.9 4.4 2.9 5.8 7.7a38 38 0 0 0 13.5 15.6c1.7.9 4.5 3.2 6.1 5.2 8.7 10.4 13.1 14.3 19.9 17.5 8.7 4.2 17.1 6.3 18.9 4.7 1-.7 1.9-.7 3.3.3 1 .7 4.3 1.7 7.2 2.1 4.6.6 5.2.5 5.2-1.1 0-2-7.5-9.4-9.5-9.4-1.8 0-3.7-2.5-4.4-6.3-.5-2.4-1.9-4-5.5-6.4-4.6-3-6.5-4.9-6.6-6.4 0-.8 2.5-1.7 14.2-5.5 8.1-2.5 9.2-2.6 13.9-1.6 2.9.7 5.4 1.1 5.6.9 1.2-1.3-5.1-6.3-12.3-9.8-9.3-4.4-10.2-5.5-11.1-14.6-.5-4.9-.4-5.3 2.7-7.9 6.5-5.6 7.6-7.4 4.1-7.4-1.7 0-4.9-2.6-4-3.4.2-.2 1.6-.6 3.1-1 2-.4 3-.2 3.6 1 1.1 1.9 4.2 1.2 4.2-.9 0-1.9-6-5.2-10-5.4-1.9 0-6.3-.8-9.7-1.6a24.3 24.3 0 0 0-10.9-.6c-2.9.6-6 .5-7.9 0-1.6-.5-5-1.2-7.4-1.5-2.6-.4-6.2-1.9-8.5-3.6-2.2-1.7-4.4-3-5-3-.5 0-2.6-1.1-4.5-2.4a28.7 28.7 0 0 0-12.5-3.8l-8.8-1.2-2.9 3.6c-2.7 3.3-3.2 3.5-7.5 3a13 13 0 0 0-6.9.8c-3.7 2-8.4.5-12.7-4.1-3.6-3.9-3.9-4-8.3-3.4-2.5.4-4.5 1.1-4.5 1.5 0 .4-2.4.7-5.2.8-2.9 0-9.3.5-14.1 1-9.3 1-15.8.2-18.8-2.5-2.1-1.8-3-7.3-1.9-11.5 1.3-5.1 1.8-16.8.6-16.1-.5.4 0-.9 1.2-2.9 1.2-1.9 2.2-4.7 2.2-6 0-3.2 3-11.9 6.4-18.5 2.9-5.8 19.4-23.2 26.5-27.9 9-6 11.8-7.4 18-8.8a22 22 0 0 0 7-2.4c.7-1.1 12.7-4.2 16.2-4.2 1.3 0 3.5-.7 4.7-1.6l2.3-1.6-2-1.5c-2.7-1.8-2.7-3.1.2-3.5 5.7-.9 22.4-.5 34.7.8zM18.8 207c1.2 1.6 2.2 3.4 2.2 3.9 0 1.5 1.5 2.2 8.1 3.7S42 219.7 42 222c0 3.3-2.7 5.5-6.4 5.4-2.7-.2-3.6.2-3.6 1.4s-.3 1.3-1.1.5c-.9-.9-1.9-.6-3.9.9-2.8 2-5 1.8-5-.4 0-1.3-4-5.8-5.1-5.8-.4 0-1.5.7-2.3 1.6-1.5 1.4-1.6.7-1.2-8.8l.5-11.6c.2-2.2 2.7-1.3 4.9 1.8zM71 250.3c0 4-3 7.2-7.7 8-3.7.7-4.4-.4-3-4.8 1.5-4.4 3.8-6.4 7.5-6.4 3-.1 3.2.1 3.2 3.2zm-32.8 10c4.8 1.7 5.6 2.5 3.2 3.3l-3.9 1.4c-4 1.7-6.4 1.8-8.4.3-2.7-1.8-2.7-3.7.2-5.1 3-1.4 4.5-1.4 8.9.1zM80 272.6c0 1.3-3.5 6.4-4.7 6.8-2 .8-1.5-2.8.7-5.2 2-2.1 4-2.9 4-1.6z"/>
  <path d="M117 50.5c0 1.2.8 1.6 3.3 1.3 1.7-.2 3.2-.8 3.2-1.3 0-.6-1.5-1.1-3.2-1.3-2.5-.3-3.3.1-3.3 1.3zm-38.5 62.8a18.5 18.5 0 0 0-3.3 2.9c-.2.5-1 .8-1.8.8s-1.4.4-1.4 1c0 .5-.7 1-1.5 1s-1.5.8-1.5 1.7c0 1.5.2 1.5.9.4.8-1.2 1.8-1.3 4.8-.5 2.9.7 3.9 1.4 4.1 3.4.6 3.5 3 4.9 8.9 5 4.7 0 5.5-.3 7.5-3 1.6-2.3 3-3 5.5-3 2.6 0 3.3-.4 3.3-1.9 0-1.9-2.5-3.5-3.9-2.7-.4.3-2.3-1.3-4.1-3.5-3.3-3.7-3.8-3.9-9-3.9-4.1.1-6.3.6-8.5 2.3z"/>
</svg>
