<?xml version="1.0" encoding="UTF-8" standalone="no"?>
<svg id="svg5393" xmlns:rdf="http://www.w3.org/1999/02/22-rdf-syntax-ns#" xmlns="http://www.w3.org/2000/svg" height="130" viewBox="0 0 135 130" width="135" version="1.1" xmlns:cc="http://creativecommons.org/ns#" xmlns:dc="http://purl.org/dc/elements/1.1/">
<path id="path5403" d="m62.5 129.01c-1.1-0.46868-5.7362-0.59385-10.303-0.27814l-8.3026 0.574-3.6974-3.5085c-2.033-1.94-4.485-3.79-5.447-4.13-4.3343-1.515-1.9818-8.4246 5.7124-16.778 2.8388-3.0821 6.2586-8.1369 7.5995-11.233 2.872-6.627 4.938-7.385 4.938-1.808 0 3.9742-1.1189 8.23-3.6645 13.939-0.80679 1.8093-1.3102 4.0593-1.1187 5 0.73418 3.607 9.7728-8.2681 9.7795-12.848 0.0021-1.4074 0.66443-3.4324 1.4719-4.5 2.2079-2.9191 1.9894 3.1688-0.43211 12.041-2.1749 7.9684-2.055 8.7718 0.72044 4.8257 3.2347-4.599 4.9649-8.5542 5.7138-13.062 0.94461-5.6851 2.5217-4.4147 2.5614 2.0633 0.0293 4.7819 0.14752 5.038 1.5 3.2499 0.927-1.23 1.469-4.242 1.469-8.169 0-9.805 1.939-12.091 5.635-6.641 1.5724 2.3185 1.9181 5.1314 2.2034 17.926l0.33836 15.176-4.2157 4.5735c-4.3626 4.7328-7.5843 5.6586-12.461 3.5808zm32.521-8.2504c-4.116-2.15-7.001-8.42-6.79-14.76 0.16923-5.0786-2.3116-17.139-4.371-21.25-2.8382-5.6651 4.637 1.1432 10.705 9.75 5.5833 7.9192 8.0295 5.5056 3.4727-3.4264-1.143-2.241-1.815-4.074-1.493-4.074 1.9522 0 4.5748 2.6011 7.5168 7.4554 3.6486 6.0202 5.3726 7.1424 4.2932 2.7946-1.2416-5.0007-3.1511-8.7454-6.2565-12.27-5.8132-6.597-1.1971-6.8615 5.8417-0.33471 3.3059 3.0654 3.8623 1.3606 0.87619-2.6846-1.4635-1.9826-5.3553-4.5895-10.567-7.0782-11.53-5.5061-9.3842-9.8691 3.4575-7.0298 2.6359 0.5828 8.1675 1.6025 12.293 2.266 22.311 3.5885 29.388 27.608 9.6318 32.691-2.5188 0.64803-3.1835 1.3817-3.3959 3.748-0.92028 10.254-2.6294 12.253-11.587 13.55-2.8321 0.41022-6.4992 1.0154-8.1492 1.3448-1.6999 0.33939-4.0742 0.0378-5.4788-0.69589zm-80.956-19.19c-4.5588-4.649-4.7346-5.751-2.563-16.07 0.658-3.128 0.723-3.04-8.752-11.852-5.2199-4.854-3.1905-17.784 3.4523-21.996 7.6757-4.867 24.985-3.761 25.614 1.636 0.226 1.931 0.888 2.712 2.3 2.712 2.86 0 7.884 2.816 7.884 4.419 0 1.476-2.107 2.581-4.921 2.581-0.96673 0-2.22 1.0145-2.7849 2.2545-0.6386 1.4016-2.9292 2.9385-6.0547 4.0624-5.6821 2.0433-9.0532 4.2023-8.0804 5.1751 0.36057 0.36057 2.8313-0.50264 5.4905-1.9182 9.1802-4.887 13.806-2.8715 5.3508 2.3312-6.1424 3.7795-7.1058 7.0017-1.3779 4.6084 5.9098-2.4693 8.4201-0.44431 4.6952 3.7875-1.0646 1.2095-2.4747 3.4647-3.1335 5.0114l-1.1978 2.8123 4.507-0.67586c4.7568-0.71333 5.3531-0.13219 3.1592 3.0787-0.74129 1.0849-2.1524 4.11-3.1359 6.7225-0.98343 2.6125-2.0644 4.7798-2.4022 4.8163-0.33778 0.0365-3.5733 0.24583-7.19 0.46527l-6.5759 0.39897-4.2829-4.3639zm51.164-28.201c-3.998-1.73-5.28-9.763-2.186-13.697 5.62-7.144 16.957-3.319 16.957 5.723 0 5.621-8.992 10.475-14.771 7.974zm44.281-13.308c-10.686-0.66688-12.437-2.5273-5.6411-5.9942 5.3548-2.7318 6.3787-4.477 2.2731-3.8744-1.73 0.254-3.14 0.285-3.14 0.069 0-1.9838 2.8618-4.3786 7.4655-6.2471 3.04-1.235 5.53-2.644 5.53-3.13 0-1.8414-6.3261-0.7704-12.5 2.1161-3.5291 1.65-6.6604 3-6.9583 3-2.4107 0 3.3134-7.3305 7.9157-10.137 1.6734-1.0205 2.4657-1.8571 1.7605-1.8592-2.2805-0.0066-8.3175 2.9023-11.392 5.4893-3.2271 2.7154-5.3023 2.4364-4.5067-0.60587 1.0749-4.1105-1.6933-1.6823-9.1454 8.022-7.7269 10.062-2.6749-13.336 5.438-25.186 1.7986-2.627 3.5366-5.6162 3.8624-6.6425 2.5821-8.1353 22.398-2.2651 27.824 8.2423 1.0858 2.1029 3.6377 4.8735 5.671 6.1571 4.0652 2.5663 9.0422 8.0044 9.0113 9.8463-0.01 0.647-0.67 4.775-1.46 9.175-0.79499 4.4-1.4611 8.095-1.4803 8.211-0.29818 1.8038-5.064 4.2544-7.9734 4.1-1.9588-0.10393-7.6069-0.44143-12.551-0.75zm-70.01-14.061c-3.3-1.585-6.817-2.909-7.816-2.941-12.06-0.391-11.469-23.844 0.608-24.107 3.923-0.085 9.155-3.346 10.865-6.771 5.209-10.429 19.316-14.899 28.642-9.0742 8.8288 5.5137 11.006 25.142 3.021 27.23-0.98801 0.25837-2.2515 1.7508-2.8078 3.3165-2.7149 7.6411-4.338 7.8275-6.0492 0.69447-1.308-5.4523-5.1107-11.528-6.4064-10.236-0.33718 0.33622-0.15046 1.828 0.41493 3.3151 2.6589 6.9935 0.32593 10.038-2.8786 3.7567-2.3155-4.5387-4.4234-6.47-6.5658-6.0157-1.3011 0.27588-1.1267 0.98067 1.0232 4.1344 4.0655 5.9638 4.5723 11.197 0.99756 10.3-3.416-0.857-5.47 1.432-5.516 6.149-0.038 3.887 0.035 3.885-7.532 0.25z"/>
</svg>
