<svg id="visual" viewBox="0 0 900 200" width="900" height="200" xmlns="http://www.w3.org/2000/svg" xmlns:xlink="http://www.w3.org/1999/xlink" version="1.1"><path d="M0 25L43 25L43 13L86 13L86 33L129 33L129 23L171 23L171 13L214 13L214 17L257 17L257 15L300 15L300 11L343 11L343 21L386 21L386 9L429 9L429 31L471 31L471 27L514 27L514 13L557 13L557 25L600 25L600 13L643 13L643 15L686 15L686 21L729 21L729 19L771 19L771 11L814 11L814 17L857 17L857 27L900 27L900 17L900 0L900 0L857 0L857 0L814 0L814 0L771 0L771 0L729 0L729 0L686 0L686 0L643 0L643 0L600 0L600 0L557 0L557 0L514 0L514 0L471 0L471 0L429 0L429 0L386 0L386 0L343 0L343 0L300 0L300 0L257 0L257 0L214 0L214 0L171 0L171 0L129 0L129 0L86 0L86 0L43 0L43 0L0 0Z" fill="#ffffff"></path><path d="M0 63L43 63L43 37L86 37L86 47L129 47L129 45L171 45L171 47L214 47L214 51L257 51L257 43L300 43L300 33L343 33L343 51L386 51L386 31L429 31L429 61L471 61L471 47L514 47L514 49L557 49L557 47L600 47L600 39L643 39L643 47L686 47L686 37L729 37L729 45L771 45L771 35L814 35L814 59L857 59L857 53L900 53L900 45L900 15L900 25L857 25L857 15L814 15L814 9L771 9L771 17L729 17L729 19L686 19L686 13L643 13L643 11L600 11L600 23L557 23L557 11L514 11L514 25L471 25L471 29L429 29L429 7L386 7L386 19L343 19L343 9L300 9L300 13L257 13L257 15L214 15L214 11L171 11L171 21L129 21L129 31L86 31L86 11L43 11L43 23L0 23Z" fill="#f7e5ea"></path><path d="M0 97L43 97L43 87L86 87L86 85L129 85L129 81L171 81L171 117L214 117L214 101L257 101L257 95L300 95L300 63L343 63L343 91L386 91L386 63L429 63L429 113L471 113L471 75L514 75L514 105L557 105L557 91L600 91L600 103L643 103L643 113L686 113L686 77L729 77L729 75L771 75L771 93L814 93L814 95L857 95L857 91L900 91L900 93L900 43L900 51L857 51L857 57L814 57L814 33L771 33L771 43L729 43L729 35L686 35L686 45L643 45L643 37L600 37L600 45L557 45L557 47L514 47L514 45L471 45L471 59L429 59L429 29L386 29L386 49L343 49L343 31L300 31L300 41L257 41L257 49L214 49L214 45L171 45L171 43L129 43L129 45L86 45L86 35L43 35L43 61L0 61Z" fill="#eeccd6"></path><path d="M0 103L43 103L43 105L86 105L86 101L129 101L129 103L171 103L171 125L214 125L214 115L257 115L257 105L300 105L300 73L343 73L343 113L386 113L386 83L429 83L429 125L471 125L471 93L514 93L514 115L557 115L557 99L600 99L600 117L643 117L643 121L686 121L686 89L729 89L729 87L771 87L771 113L814 113L814 109L857 109L857 113L900 113L900 107L900 91L900 89L857 89L857 93L814 93L814 91L771 91L771 73L729 73L729 75L686 75L686 111L643 111L643 101L600 101L600 89L557 89L557 103L514 103L514 73L471 73L471 111L429 111L429 61L386 61L386 89L343 89L343 61L300 61L300 93L257 93L257 99L214 99L214 115L171 115L171 79L129 79L129 83L86 83L86 85L43 85L43 95L0 95Z" fill="#e4b3c2"></path><path d="M0 123L43 123L43 121L86 121L86 117L129 117L129 109L171 109L171 137L214 137L214 129L257 129L257 121L300 121L300 79L343 79L343 131L386 131L386 103L429 103L429 139L471 139L471 103L514 103L514 121L557 121L557 115L600 115L600 127L643 127L643 139L686 139L686 101L729 101L729 103L771 103L771 125L814 125L814 117L857 117L857 127L900 127L900 123L900 105L900 111L857 111L857 107L814 107L814 111L771 111L771 85L729 85L729 87L686 87L686 119L643 119L643 115L600 115L600 97L557 97L557 113L514 113L514 91L471 91L471 123L429 123L429 81L386 81L386 111L343 111L343 71L300 71L300 103L257 103L257 113L214 113L214 123L171 123L171 101L129 101L129 99L86 99L86 103L43 103L43 101L0 101Z" fill="#da9aae"></path><path d="M0 141L43 141L43 131L86 131L86 129L129 129L129 127L171 127L171 149L214 149L214 151L257 151L257 131L300 131L300 105L343 105L343 139L386 139L386 125L429 125L429 163L471 163L471 115L514 115L514 147L557 147L557 131L600 131L600 143L643 143L643 149L686 149L686 125L729 125L729 123L771 123L771 141L814 141L814 131L857 131L857 137L900 137L900 147L900 121L900 125L857 125L857 115L814 115L814 123L771 123L771 101L729 101L729 99L686 99L686 137L643 137L643 125L600 125L600 113L557 113L557 119L514 119L514 101L471 101L471 137L429 137L429 101L386 101L386 129L343 129L343 77L300 77L300 119L257 119L257 127L214 127L214 135L171 135L171 107L129 107L129 115L86 115L86 119L43 119L43 121L0 121Z" fill="#cf819b"></path><path d="M0 157L43 157L43 141L86 141L86 137L129 137L129 143L171 143L171 161L214 161L214 165L257 165L257 137L300 137L300 123L343 123L343 147L386 147L386 139L429 139L429 177L471 177L471 131L514 131L514 159L557 159L557 139L600 139L600 159L643 159L643 163L686 163L686 135L729 135L729 139L771 139L771 147L814 147L814 139L857 139L857 145L900 145L900 159L900 145L900 135L857 135L857 129L814 129L814 139L771 139L771 121L729 121L729 123L686 123L686 147L643 147L643 141L600 141L600 129L557 129L557 145L514 145L514 113L471 113L471 161L429 161L429 123L386 123L386 137L343 137L343 103L300 103L300 129L257 129L257 149L214 149L214 147L171 147L171 125L129 125L129 127L86 127L86 129L43 129L43 139L0 139Z" fill="#c36788"></path><path d="M0 163L43 163L43 157L86 157L86 147L129 147L129 157L171 157L171 177L214 177L214 177L257 177L257 147L300 147L300 135L343 135L343 159L386 159L386 145L429 145L429 183L471 183L471 137L514 137L514 165L557 165L557 155L600 155L600 171L643 171L643 173L686 173L686 141L729 141L729 151L771 151L771 161L814 161L814 153L857 153L857 151L900 151L900 167L900 157L900 143L857 143L857 137L814 137L814 145L771 145L771 137L729 137L729 133L686 133L686 161L643 161L643 157L600 157L600 137L557 137L557 157L514 157L514 129L471 129L471 175L429 175L429 137L386 137L386 145L343 145L343 121L300 121L300 135L257 135L257 163L214 163L214 159L171 159L171 141L129 141L129 135L86 135L86 139L43 139L43 155L0 155Z" fill="#b74c76"></path><path d="M0 201L43 201L43 201L86 201L86 201L129 201L129 201L171 201L171 201L214 201L214 201L257 201L257 201L300 201L300 201L343 201L343 201L386 201L386 201L429 201L429 201L471 201L471 201L514 201L514 201L557 201L557 201L600 201L600 201L643 201L643 201L686 201L686 201L729 201L729 201L771 201L771 201L814 201L814 201L857 201L857 201L900 201L900 201L900 165L900 149L857 149L857 151L814 151L814 159L771 159L771 149L729 149L729 139L686 139L686 171L643 171L643 169L600 169L600 153L557 153L557 163L514 163L514 135L471 135L471 181L429 181L429 143L386 143L386 157L343 157L343 133L300 133L300 145L257 145L257 175L214 175L214 175L171 175L171 155L129 155L129 145L86 145L86 155L43 155L43 161L0 161Z" fill="#aa2e64"></path></svg>