<?xml version="1.0" standalone="no"?>
<!DOCTYPE svg PUBLIC "-//W3C//DTD SVG 20010904//EN"
 "http://www.w3.org/TR/2001/REC-SVG-20010904/DTD/svg10.dtd">
<svg version="1.0" xmlns="http://www.w3.org/2000/svg"
 width="300.000000pt" height="118.000000pt" viewBox="0 0 300.000000 118.000000"
 preserveAspectRatio="xMidYMid meet">
<metadata>
Created by potrace 1.10, written by Peter Selinger 2001-2011
</metadata>
<g transform="translate(0.000000,118.000000) scale(0.100000,-0.100000)"
fill="#000000" stroke="none">
<path d="M305 900 c-5 -7 17 -9 72 -7 43 3 58 2 33 0 -96 -9 -53 -19 68 -15
117 4 231 -6 275 -23 10 -4 17 -3 17 4 0 6 -6 11 -14 11 -8 0 -18 5 -21 10 -4
6 -3 10 2 9 21 -4 63 2 63 9 0 12 -487 15 -495 2z"/>
</g>
</svg>
