<svg width="1" height="1" viewBox="0 0 1 1" fill="none" xmlns="http://www.w3.org/2000/svg">
<g clip-path="url(#clip0_1_51)">
<rect width="1" height="1" fill="white"/>
<path d="M0.998955 0.883776V0.864492C0.996547 0.830268 0.981727 0.803879 0.957223 0.782655C0.930363 0.75939 0.891947 0.742409 0.84575 0.728173C0.799559 0.713938 0.745623 0.702457 0.687739 0.690169L0.686503 0.689907C0.628979 0.677696 0.567594 0.664665 0.506083 0.647331C0.382184 0.612417 0.257726 0.560035 0.163212 0.461673C0.0733421 0.368142 0.0105427 0.233029 0.0010444 0.031885V0.883776C0.0010444 0.947329 0.0322223 0.998849 0.0706823 0.998849H0.929318C0.967777 0.998849 0.998955 0.947329 0.998955 0.883776Z" fill="black"/>
<path fill-rule="evenodd" clip-rule="evenodd" d="M0.000696046 0C0.000711893 0.000846286 0.000728646 0.00169143 0.000746302 0.00253549L0.00104643 0.0140887C0.00759107 0.224636 0.0712568 0.364612 0.163584 0.460699C0.257975 0.558935 0.382319 0.611288 0.5062 0.646197C0.567699 0.663527 0.629073 0.676555 0.686601 0.688768L0.687828 0.689028C0.745707 0.701315 0.799663 0.7128 0.845877 0.727041C0.892086 0.741281 0.930589 0.758286 0.957546 0.781636C0.980439 0.801464 0.995063 0.825925 0.998955 0.857223L0.999652 0.86442C0.999883 0.86773 1 0.871112 1 0.874571H0.999652V0.883776C0.999652 0.947965 0.968162 1 0.929318 1H0.0706823C0.0318377 1 0.000348023 0.947965 0.000348023 0.883776V0.0149772C0.000348023 0.0146893 0.000348657 0.0144015 0.000349922 0.014114C0.000205266 0.00945577 8.85238e-05 0.00476307 0 3.55915e-05L0.000696046 0ZM0.998955 0.883776V0.864492C0.996547 0.830268 0.981727 0.803879 0.957223 0.782655C0.930363 0.75939 0.891947 0.742409 0.84575 0.728173C0.799559 0.713938 0.745623 0.702457 0.687739 0.690169L0.686503 0.689907C0.628979 0.677696 0.567594 0.664665 0.506083 0.647331C0.382184 0.612417 0.257726 0.560035 0.163212 0.461673C0.0733421 0.368142 0.0105427 0.233029 0.0010444 0.031885V0.883776C0.0010444 0.947329 0.0322223 0.998849 0.0706823 0.998849H0.929318C0.967777 0.998849 0.998955 0.947329 0.998955 0.883776Z" fill="black"/>
<path d="M0.998955 0.883776V0.864492C0.996547 0.830268 0.981727 0.803879 0.957223 0.782655C0.930363 0.75939 0.891947 0.742409 0.84575 0.728173C0.799559 0.713938 0.745623 0.702457 0.687739 0.690169L0.686503 0.689907C0.628979 0.677696 0.567594 0.664665 0.506083 0.647331C0.382184 0.612417 0.257726 0.560035 0.163212 0.461673C0.0733421 0.368142 0.0105427 0.233029 0.0010444 0.031885V0.883776C0.0010444 0.947329 0.0322223 0.998849 0.0706823 0.998849H0.929318C0.967777 0.998849 0.998955 0.947329 0.998955 0.883776Z" stroke="black"/>
<path fill-rule="evenodd" clip-rule="evenodd" d="M0.000696046 0C0.000711893 0.000846286 0.000728646 0.00169143 0.000746302 0.00253549L0.00104643 0.0140887C0.00759107 0.224636 0.0712568 0.364612 0.163584 0.460699C0.257975 0.558935 0.382319 0.611288 0.5062 0.646197C0.567699 0.663527 0.629073 0.676555 0.686601 0.688768L0.687828 0.689028C0.745707 0.701315 0.799663 0.7128 0.845877 0.727041C0.892086 0.741281 0.930589 0.758286 0.957546 0.781636C0.980439 0.801464 0.995063 0.825925 0.998955 0.857223L0.999652 0.86442C0.999883 0.86773 1 0.871112 1 0.874571H0.999652V0.883776C0.999652 0.947965 0.968162 1 0.929318 1H0.0706823C0.0318377 1 0.000348023 0.947965 0.000348023 0.883776V0.0149772C0.000348023 0.0146893 0.000348657 0.0144015 0.000349922 0.014114C0.000205266 0.00945577 8.85238e-05 0.00476307 0 3.55915e-05L0.000696046 0ZM0.998955 0.883776V0.864492C0.996547 0.830268 0.981727 0.803879 0.957223 0.782655C0.930363 0.75939 0.891947 0.742409 0.84575 0.728173C0.799559 0.713938 0.745623 0.702457 0.687739 0.690169L0.686503 0.689907C0.628979 0.677696 0.567594 0.664665 0.506083 0.647331C0.382184 0.612417 0.257726 0.560035 0.163212 0.461673C0.0733421 0.368142 0.0105427 0.233029 0.0010444 0.031885V0.883776C0.0010444 0.947329 0.0322223 0.998849 0.0706823 0.998849H0.929318C0.967777 0.998849 0.998955 0.947329 0.998955 0.883776Z" stroke="black"/>
</g>
<defs>
<clipPath id="clip0_1_51">
<rect width="1" height="1" fill="white"/>
</clipPath>
</defs>
</svg>
