<svg width="1" height="1" viewBox="0 0 1 1" fill="none" xmlns="http://www.w3.org/2000/svg">
<g clip-path="url(#clip0_1_51)">
<rect width="1" height="1" fill="white"/>
<path d="M0.998955 0.883776V0.864492C0.996547 0.830268 0.981727 0.803879 0.957223 0.782655C0.930363 0.75939 0.891947 0.742409 0.84575 0.728173C0.799559 0.713938 0.745623 0.702457 0.687739 0.690169L0.686503 0.689907C0.628979 0.677696 0.567594 0.664665 0.506083 0.647331C0.382184 0.612417 0.257726 0.560035 0.163212 0.461673C0.0733421 0.368142 0.0105427 0.233029 0.0010444 0.031885V0.883776C0.0010444 0.947329 0.0322223 0.998849 0.0706823 0.998849H0.929318C0.967777 0.998849 0.998955 0.947329 0.998955 0.883776Z" fill="black"/>
<path fill-rule="evenodd" clip-rule="evenodd" d="M0.000696046 0C0.000711893 0.000846286 0.000728646 0.00169143 0.000746302 0.00253549L0.00104643 0.0140887C0.00759107 0.224636 0.0712568 0.364612 0.163584 0.460699C0.257975 0.558935 0.382319 0.611288 0.5062 0.646197C0.567699 0.663527 0.629073 0.676555 0.686601 0.688768L0.687828 0.689028C0.745707 0.701315 0.799663 0.7128 0.845877 0.727041C0.892086 0.741281 0.930589 0.758286 0.957546 0.781636C0.980439 0.801464 0.995063 0.825925 0.998955 0.857223L0.999652 0.86442C0.999883 0.86773 1 0.871112 1 0.874571H0.999652V0.883776C0.999652 0.947965 0.968162 1 0.929318 1H0.0706823C0.0318377 1 0.000348023 0.947965 0.000348023 0.883776V0.0149772C0.000348023 0.0146893 0.000348657 0.0144015 0.000349922 0.014114C0.000205266 0.00945577 8.85238e-05 0.00476307 0 3.55915e-05L0.000696046 0ZM0.998955 0.883776V0.864492C0.996547 0.830268 0.981727 0.803879 0.957223 0.782655C0.930363 0.75939 0.891947 0.742409 0.84575 0.728173C0.799559 0.713938 0.745623 0.702457 0.687739 0.690169L0.686503 0.689907C0.628979 0.677696 0.567594 0.664665 0.506083 0.647331C0.382184 0.612417 0.257726 0.560035 0.163212 0.461673C0.0733421 0.368142 0.0105427 0.233029 0.0010444 0.031885V0.883776C0.0010444 0.947329 0.0322223 0.998849 0.0706823 0.998849H0.929318C0.967777 0.998849 0.998955 0.947329 0.998955 0.883776Z" fill="black"/>
<path d="M0.998955 0.883776V0.864492C0.996547 0.830268 0.981727 0.803879 0.957223 0.782655C0.930363 0.75939 0.891947 0.742409 0.84575 0.728173C0.799559 0.713938 0.745623 0.702457 0.687739 0.690169L0.686503 0.689907C0.628979 0.677696 0.567594 0.664665 0.506083 0.647331C0.382184 0.612417 0.257726 0.560035 0.163212 0.461673C0.0733421 0.368142 0.0105427 0.233029 0.0010444 0.031885V0.883776C0.0010444 0.947329 0.0322223 0.998849 0.0706823 0.998849H0.929318C0.967777 0.998849 0.998955 0.947329 0.998955 0.883776Z" stroke="black"/>
<path fill-rule="evenodd" clip-rule="evenodd" d="M0.000696046 0C0.000711893 0.000846286 0.000728646 0.00169143 0.000746302 0.00253549L0.00104643 0.0140887C0.00759107 0.224636 0.0712568 0.364612 0.163584 0.460699C0.257975 0.558935 0.382319 0.611288 0.5062 0.646197C0.567699 0.663527 0.629073 0.676555 0.686601 0.688768L0.687828 0.689028C0.745707 0.701315 0.799663 0.7128 0.845877 0.727041C0.892086 0.741281 0.930589 0.758286 0.957546 0.781636C0.980439 0.801464 0.995063 0.825925 0.998955 0.857223L0.999652 0.86442C0.999883 0.86773 1 0.871112 1 0.874571H0.999652V0.883776C0.999652 0.947965 0.968162 1 0.929318 1H0.0706823C0.0318377 1 0.000348023 0.947965 0.000348023 0.883776V0.0149772C0.000348023 0.0146893 0.000348657 0.0144015 0.000349922 0.014114C0.000205266 0.00945577 8.85238e-05 0.00476307 0 3.55915e-05L0.000696046 0ZM0.998955 0.883776V0.864492C0.996547 0.830268 0.981727 0.803879 0.957223 0.782655C0.930363 0.75939 0.891947 0.742409 0.84575 0.728173C0.799559 0.713938 0.745623 0.702457 0.687739 0.690169L0.686503 0.689907C0.628979 0.677696 0.567594 0.664665 0.506083 0.647331C0.382184 0.612417 0.257726 0.560035 0.163212 0.461673C0.0733421 0.368142 0.0105427 0.233029 0.0010444 0.031885V0.883776C0.0010444 0.947329 0.0322223 0.998849 0.0706823 0.998849H0.929318C0.967777 0.998849 0.998955 0.947329 0.998955 0.883776Z" stroke="black"/>
<path d="M0.00104457 0.116224V0.135508C0.00345343 0.169732 0.0182734 0.196121 0.042777 0.217345C0.0696371 0.24061 0.108053 0.257591 0.15425 0.271827C0.200441 0.286062 0.254377 0.297543 0.312261 0.309831L0.313497 0.310093C0.371021 0.322304 0.432406 0.335335 0.493917 0.352669C0.617816 0.387583 0.742274 0.439965 0.836788 0.538327C0.926658 0.631858 0.989457 0.766971 0.998956 0.968115V0.116224C0.998956 0.0526706 0.967778 0.00115073 0.929318 0.00115073H0.0706825C0.0322225 0.00115073 0.00104457 0.0526706 0.00104457 0.116224Z" fill="black"/>
<path fill-rule="evenodd" clip-rule="evenodd" d="M0.999304 1C0.999288 0.999154 0.999271 0.998309 0.999254 0.997465L0.998954 0.985911C0.992409 0.775364 0.928743 0.635388 0.836416 0.539301C0.742025 0.441065 0.617681 0.388712 0.4938 0.353803C0.432301 0.336473 0.370927 0.323445 0.313399 0.311232L0.312172 0.310972C0.254293 0.298685 0.200337 0.2872 0.154123 0.272959C0.107914 0.258719 0.0694114 0.241714 0.0424537 0.218364C0.0195611 0.198536 0.00493699 0.174075 0.00104457 0.142777L0.00034821 0.13558C0.000117004 0.13227 0 0.128888 0 0.125429H0.00034821V0.116224C0.00034821 0.052035 0.0318379 0 0.0706825 0H0.929318C0.968162 0 0.999652 0.052035 0.999652 0.116224V0.985023C0.999652 0.985311 0.999651 0.985598 0.99965 0.985886C0.999795 0.990544 0.999911 0.995237 1 0.999964L0.999304 1ZM0.00104457 0.116224V0.135508C0.00345343 0.169732 0.0182734 0.196121 0.042777 0.217345C0.0696371 0.24061 0.108053 0.257591 0.15425 0.271827C0.200441 0.286062 0.254377 0.297543 0.312261 0.309831L0.313497 0.310093C0.371021 0.322304 0.432406 0.335335 0.493917 0.352669C0.617816 0.387583 0.742274 0.439965 0.836788 0.538327C0.926658 0.631858 0.989457 0.766971 0.998956 0.968115V0.116224C0.998956 0.0526706 0.967778 0.00115073 0.929318 0.00115073H0.0706825C0.0322225 0.00115073 0.00104457 0.0526706 0.00104457 0.116224Z" fill="black"/>
<path d="M0.00104457 0.116224V0.135508C0.00345343 0.169732 0.0182734 0.196121 0.042777 0.217345C0.0696371 0.24061 0.108053 0.257591 0.15425 0.271827C0.200441 0.286062 0.254377 0.297543 0.312261 0.309831L0.313497 0.310093C0.371021 0.322304 0.432406 0.335335 0.493917 0.352669C0.617816 0.387583 0.742274 0.439965 0.836788 0.538327C0.926658 0.631858 0.989457 0.766971 0.998956 0.968115V0.116224C0.998956 0.0526706 0.967778 0.00115073 0.929318 0.00115073H0.0706825C0.0322225 0.00115073 0.00104457 0.0526706 0.00104457 0.116224Z" stroke="black"/>
<path fill-rule="evenodd" clip-rule="evenodd" d="M0.999304 1C0.999288 0.999154 0.999271 0.998309 0.999254 0.997465L0.998954 0.985911C0.992409 0.775364 0.928743 0.635388 0.836416 0.539301C0.742025 0.441065 0.617681 0.388712 0.4938 0.353803C0.432301 0.336473 0.370927 0.323445 0.313399 0.311232L0.312172 0.310972C0.254293 0.298685 0.200337 0.2872 0.154123 0.272959C0.107914 0.258719 0.0694114 0.241714 0.0424537 0.218364C0.0195611 0.198536 0.00493699 0.174075 0.00104457 0.142777L0.00034821 0.13558C0.000117004 0.13227 0 0.128888 0 0.125429H0.00034821V0.116224C0.00034821 0.052035 0.0318379 0 0.0706825 0H0.929318C0.968162 0 0.999652 0.052035 0.999652 0.116224V0.985023C0.999652 0.985311 0.999651 0.985598 0.99965 0.985886C0.999795 0.990544 0.999911 0.995237 1 0.999964L0.999304 1ZM0.00104457 0.116224V0.135508C0.00345343 0.169732 0.0182734 0.196121 0.042777 0.217345C0.0696371 0.24061 0.108053 0.257591 0.15425 0.271827C0.200441 0.286062 0.254377 0.297543 0.312261 0.309831L0.313497 0.310093C0.371021 0.322304 0.432406 0.335335 0.493917 0.352669C0.617816 0.387583 0.742274 0.439965 0.836788 0.538327C0.926658 0.631858 0.989457 0.766971 0.998956 0.968115V0.116224C0.998956 0.0526706 0.967778 0.00115073 0.929318 0.00115073H0.0706825C0.0322225 0.00115073 0.00104457 0.0526706 0.00104457 0.116224Z" stroke="black"/>
<path d="M0 0.720459V0.999977H0.277352L0 0.720459Z" fill="#D9D9D9" stroke="black" stroke-width="0.00999998"/>
<path d="M0 0.500488V0.720446L0.277352 0.999964H0.494774L0 0.500488Z" fill="#D9D9D9" stroke="black" stroke-width="0.00999998"/>
<path d="M0 0.250732V0.50047L0.494774 0.999946H0.749477L0 0.250732Z" fill="#D9D9D9" stroke="black" stroke-width="0.00999998"/>
<path d="M0 0V0.250783L0.749477 0.999996H1L0 0Z" fill="#D9D9D9"/>
</g>
<defs>
<clipPath id="clip0_1_51">
<rect width="1" height="1" fill="white"/>
</clipPath>
</defs>
</svg>
