<?xml-stylesheet type="text/css" href="svg.css" ?>
<svg xmlns="http://www.w3.org/2000/svg" width="800" height="800" viewBox="0 0 800 800">
  <path fill="#fff" d="M0 0h800v800H0z" class="dcg-svg-background"/>
  <g fill="none" stroke="#388c46" stroke-linecap="round" stroke-linejoin="round" stroke-miterlimit="10" stroke-opacity=".9" stroke-width="5" paint-order="fill stroke markers">
    <path d="M39.4 399.6h0l.4 16 .8 12.4 1.2 12 1.6 12 2 11.6 2.2 11.8 2.8 11.6 3.4 12 3.6 12 4 11.8 4.8 12 5 11.6 5.8 12 6.2 12L90 582l7.4 11.8 8 11.8 8.8 11.8 9.4 11.4 9.6 10.8 10 10.4 10.4 10 10.4 9.4 11 9 11.2 8.4 11.4 8 11.8 7.4 12 7 12 6.4 12.4 6 12.4 5.4 12.6 5 13 4.6 13 4L310 744l13.2 3 13.6 2.6 13.4 2 13.4 1.2 13.6 1 13.6.4h13.6l13.8-.8 13.4-1.2 13.6-1.6 13.4-2.2 13.2-2.8 13.4-3.2 13-3.8 13-4.2 12.8-4.8 12.8-5.2 12.4-6 12.4-6 12-6.8 11.6-7.2 11.4-7.6 11.4-8.2 11-8.6 10.6-9.2 10.4-9.6 10-10 9.8-10.6 9.4-11 9-11.4 8.6-12 8-12.2 7.2-12 6.6-12.2 6-12 5.6-12.2 4.8-12 4.4-12.2 4-12 3.6-12.2 2.8-12 2.6-11.8 2-12 2-12.6 1-10.8.8-10 .6-13v-9.6" class="dcg-svg-curve"/>
    <path d="M39.4 399.6h0l.4-15.8.8-12.4 1.2-12 1.6-12 2-11.8 2.2-11.6 2.8-11.6 3.4-12 3.6-12 4-11.8 4.8-12 5-11.8L77 241l6.2-12 6.8-12 7.4-11.6 8-11.8 8.8-11.8 9.4-11.6 9.6-10.8 10-10.4 10.4-10 10.4-9 11-9 11.2-8.4 11.4-8 11.8-7.6 12-6.8 12-6.6 12.4-6L258 72l12.6-5 13-4.4 13-4 13.2-3.6 13.2-2.8 13.6-2.6 13.4-2 13.4-1.4 13.6-.8 13.6-.4h13.6l13.8.8 13.4 1.2 13.6 1.6 13.4 2.2 13.2 2.8 13.4 3.2 13 3.8 13 4 12.8 5 12.8 5.2 12.4 5.8 12.4 6.2 12 6.8 11.6 7 11.4 7.8 11.4 8 11 8.8 10.6 9.2L640 144l10 10 9.8 10.4 9.4 11 9 11.6 8.6 12 8 12 7.2 12.2 6.6 12 6 12.2 5.6 12 4.8 12 4.4 12.4 4 12L737 308l2.8 11.8 2.6 12 2 12 2 12.4 1 11 .8 10 .6 13v9.4" class="dcg-svg-curve"/>
  </g>
  <path fill="none" stroke="#000" stroke-linecap="round" stroke-linejoin="round" stroke-miterlimit="10" stroke-opacity=".9" stroke-width="5" d="M382.8 101.6h0L504 62.4m0 .2h0l10.2 14 234.6 322.8v.6l-245 337-4-1.2-392-127.4m-.6-1h0V192m.4-1h0l13.6-4.4 261.6-85" class="dcg-svg-curve" paint-order="fill stroke markers"/>
</svg>
