<?xml-stylesheet type="text/css" href="svg.css" ?>
<svg xmlns="http://www.w3.org/2000/svg" width="320" height="320">
<!-- <path fill="#fff" d="M0 0h320v320H0z" class="dcg-svg-background"/> -->
<path fill="#FDCBA3" fill-opacity="1" d="m17.132 152.252.134 6.152.312 5.088.468 4.844.626 4.76.78 4.714.94 4.676 1.092 4.64 1.328 4.872 1.484 4.772 1.64 4.688 1.876 4.8 2.032 4.694 2.266 4.75 2.5 4.772 2.734 4.766 2.968 4.734 3.204 4.686 3.516 4.718 3.75 4.616 3.828 4.336 3.984 4.156 4.14 3.984 4.22 3.746 4.374 3.582 4.454 3.362 4.608 3.202 4.688 2.99 4.766 2.784 4.844 2.584 4.92 2.386 5 2.19 5.08 1.994 5.156 1.8 5.234 1.604 5.234 1.388 5.314 1.192 5.39.992 5.39.78 5.39.57 5.392.364 5.468.158 5.468-.052 5.47-.264 5.39-.468 5.39-.676 5.392-.888 5.312-1.086 5.312-1.3 5.236-1.494 5.156-1.69 5.156-1.912 5.078-2.112 5-2.308 4.92-2.51 4.768-2.668 4.686-2.868 4.61-3.072 4.532-3.282 4.374-3.44 4.298-3.664 4.14-3.824 3.984-3.984 3.906-4.232 3.75-4.412 3.594-4.596 3.438-4.792 3.202-4.88 2.892-4.816 2.656-4.846 2.42-4.856 2.19-4.836 1.952-4.78 1.798-4.9 1.56-4.792 1.408-4.9 1.172-4.696 1.016-4.76.86-4.84.7-4.96.47-4.328.312-3.98.236-5.02.06-4.102-.06-4.102-.236-5.024-.312-3.976-.468-4.332-.704-4.96-.86-4.838-1.014-4.76-1.172-4.696-1.406-4.9-1.562-4.792-1.798-4.9-1.952-4.78-2.188-4.836-2.422-4.856-2.656-4.846-2.892-4.816-3.202-4.88-3.438-4.792-3.594-4.596-3.75-4.412-3.906-4.232-3.984-3.984-4.14-3.824-4.298-3.662-4.374-3.44L240 35.73l-4.61-3.072-4.686-2.866-4.766-2.668-4.922-2.51-5-2.31-5.08-2.11-5.154-1.914-5.158-1.69-5.234-1.494-5.312-1.3-5.312-1.086-5.39-.888-5.392-.676-5.39-.468-5.468-.262-5.47-.054-5.468.16-5.392.362-5.39.57-5.39.78-5.39.994-5.314 1.192-5.234 1.386-5.234 1.604-5.156 1.8-5.08 1.996-5 2.188-4.92 2.386-4.844 2.584-4.766 2.784-4.688 2.99-4.608 3.202-4.454 3.36-4.374 3.584-4.22 3.746-4.14 3.984-3.984 4.158-3.828 4.334-3.75 4.616-3.516 4.72-3.204 4.684-2.968 4.736-2.734 4.764-2.5 4.772-2.266 4.75-2.032 4.694-1.874 4.8-1.64 4.688-1.486 4.774-1.328 4.872-1.094 4.64-.936 4.674-.782 4.712-.626 4.76-.468 4.846-.312 5.088z" class="dcg-svg-region" paint-order="stroke fill markers"/>
<path fill="none" stroke="#fa7e19" stroke-linecap="round" stroke-linejoin="round" stroke-miterlimit="10" stroke-width="7" d="m17.132 152.252.134 6.152m0 0 .312 5.088m0 0 .468 4.844m0 0 .626 4.76m0 0 .78 4.714m0 0 .94 4.676m0 0 .076.324m5.524 18.79 1.82 4.66m0 0 2.032 4.692m0 0 2.266 4.75m0 0 2.5 4.772m0 0 2.734 4.766m0 0 2.412 3.846m11.716 15.692 3.138 3.552m0 0 3.984 4.156m0 0 4.14 3.984m0 0 4.22 3.746m0 0 4.374 3.582m0 0 2.602 1.966m16.434 10.65 4.324 2.306m0 0 4.92 2.386m0 0 5 2.19m0 0 5.08 1.994m0 0 5.156 1.8m0 0 3.876 1.188m19.116 4.252 3.57.516m0 0 5.39.57m0 0 5.392.364m0 0 5.468.158m0 0 5.468-.052m0 0 5.422-.262m19.4-2.684 2.132-.436m0 0 5.312-1.3m0 0 5.236-1.494m0 0 5.156-1.69m0 0 5.156-1.912m0 0 5.078-2.112m0 0 1.168-.54m17.266-9.24.94-.574m0 0 4.61-3.072m0 0 4.532-3.282m0 0 4.374-3.44m0 0 4.298-3.664m0 0 4.14-3.824m0 0 1.212-1.212m12.972-14.67 1.05-1.34m0 0 3.438-4.794m0 0 3.202-4.88m0 0 2.892-4.816m0 0 2.656-4.846m0 0 2.42-4.856m0 0 .328-.72m7.068-18.266.106-.32m0 0 1.406-4.9m0 0 1.172-4.7m0 0 1.016-4.758m0 0 .86-4.84m0 0 .7-4.96m0 0 .47-4.328m0 0 .108-1.372m-283.288-11.73.134-6.154m0 0 .312-5.088m0 0 .468-4.844m0 0 .626-4.76m0 0 .78-4.714m0 0 .94-4.674m0 0 .076-.326m5.524-18.79 1.82-4.66m0 0 2.032-4.692m0 0 2.266-4.75m0 0 2.5-4.772m0 0 2.734-4.764m0 0 2.412-3.848m11.716-15.69 3.138-3.552m0 0 3.984-4.16m0 0 4.14-3.982m0 0 4.22-3.746m0 0 4.374-3.582m0 0 2.602-1.964m16.434-10.652 4.324-2.306m0 0 4.92-2.386m0 0 5-2.188m0 0 5.08-1.996m0 0 5.156-1.8m0 0 3.876-1.188m19.116-4.252 3.57-.516m0 0 5.39-.57m0 0 5.392-.364m0 0 5.468-.158m0 0 5.468.054m0 0 5.422.26m19.4 2.684 2.132.436m0 0 5.312 1.3m0 0 5.236 1.494m0 0 5.156 1.69m0 0 5.156 1.914m0 0 5.078 2.11m0 0 1.168.54m17.266 9.24.94.574m0 0 4.61 3.072m0 0 4.532 3.282m0 0 4.374 3.44m0 0 4.298 3.664m0 0 4.14 3.824m0 0 1.212 1.212m12.972 14.67 1.05 1.342m0 0 3.438 4.792m0 0 3.202 4.88m0 0 2.892 4.816m0 0 2.656 4.846m0 0 2.42 4.856m0 0 .328.72m7.068 18.266.106.322m0 0 1.406 4.9m0 0 1.172 4.698m0 0 1.016 4.76m0 0 .86 4.836m0 0 .7 4.96m0 0 .47 4.332m0 0 .108 1.372" class="dcg-svg-curve" paint-order="fill stroke markers"/>
</svg>